<svg xmlns="http://www.w3.org/2000/svg" xmlns:xlink="http://www.w3.org/1999/xlink" width="363" height="41" viewBox="0 0 363 41">
  <defs>
    <clipPath id="clip-Artboard_11">
      <rect width="363" height="41"/>
    </clipPath>
  </defs>
  <g id="Artboard_11" data-name="Artboard – 11" clip-path="url(#clip-Artboard_11)">
    <path id="Path_2164" data-name="Path 2164" d="M-6.492,437.291H-348.509c-5.785,0-10.491-1.888-10.491-4.207V200.04a20.414,20.414,0,0,0,11.1,2.915,22.12,22.12,0,0,0,9.435-1.965,22.13,22.13,0,0,0,9.436,1.965,22.13,22.13,0,0,0,9.436-1.965,22.12,22.12,0,0,0,9.435,1.965,22.13,22.13,0,0,0,9.436-1.965,22.126,22.126,0,0,0,9.436,1.965,21.525,21.525,0,0,0,9.991-2.248,21.516,21.516,0,0,0,9.99,2.248,22.122,22.122,0,0,0,9.436-1.965,22.124,22.124,0,0,0,9.435,1.965A22.122,22.122,0,0,0-243,200.99a22.13,22.13,0,0,0,9.436,1.965,22.13,22.13,0,0,0,9.436-1.965,22.122,22.122,0,0,0,9.436,1.965,21.519,21.519,0,0,0,9.99-2.248,21.525,21.525,0,0,0,9.991,2.248,22.13,22.13,0,0,0,9.436-1.965,22.124,22.124,0,0,0,9.435,1.965,22.122,22.122,0,0,0,9.436-1.965,22.124,22.124,0,0,0,9.435,1.965,22.122,22.122,0,0,0,9.436-1.965,22.13,22.13,0,0,0,9.436,1.965,21.525,21.525,0,0,0,9.991-2.248,21.525,21.525,0,0,0,9.991,2.248,22.12,22.12,0,0,0,9.435-1.965,22.13,22.13,0,0,0,9.436,1.965A22.12,22.12,0,0,0-89.8,200.99a22.13,22.13,0,0,0,9.436,1.965,22.126,22.126,0,0,0,9.436-1.965,22.13,22.13,0,0,0,9.436,1.965,21.525,21.525,0,0,0,9.991-2.248,21.516,21.516,0,0,0,9.99,2.248,22.122,22.122,0,0,0,9.436-1.965,22.122,22.122,0,0,0,9.436,1.965,22.12,22.12,0,0,0,9.435-1.965,22.13,22.13,0,0,0,9.436,1.965A23.3,23.3,0,0,0,4,201.685v231.4C4,435.4-.706,437.291-6.492,437.291Z" transform="translate(358.5 -200.291)" fill="#fff" stroke="#ebebeb" stroke-width="1"/>
  </g>
</svg>
