<?xml version="1.0" encoding="iso-8859-1"?>
<!-- Generator: Adobe Illustrator 19.0.0, SVG Export Plug-In . SVG Version: 6.00 Build 0)  -->
<svg version="1.1" id="Capa_1" xmlns="http://www.w3.org/2000/svg" xmlns:xlink="http://www.w3.org/1999/xlink" x="0px" y="0px"
	 viewBox="0 0 512 512" style="enable-background:new 0 0 512 512;" xml:space="preserve">
<g>
	<g>
		<path d="M119.187,18.461L62.885,74.744c-3.607,3.606-1.053,9.774,4.047,9.774h56.302c3.162-0.001,5.725-2.564,5.725-5.726V22.51
			C128.959,17.41,122.793,14.856,119.187,18.461z"/>
	</g>
</g>
<g>
	<g>
		<path d="M370.022,316.87c-53.797,0-97.564,43.767-97.564,97.564c0,53.797,43.767,97.565,97.564,97.565
			s97.565-43.767,97.565-97.565C467.588,360.637,423.82,316.87,370.022,316.87z M354.989,376.363
			c0-8.303,6.731-15.034,15.034-15.034s15.034,6.731,15.034,15.034v38.072c0,8.303-6.731,15.034-15.034,15.034
			s-15.034-6.731-15.034-15.034V376.363z M384.979,455.7c-0.05,0.491-0.119,0.982-0.22,1.463c-0.09,0.481-0.221,0.962-0.361,1.423
			c-0.14,0.471-0.311,0.932-0.49,1.383c-0.19,0.451-0.401,0.902-0.631,1.333s-0.481,0.862-0.752,1.263
			c-0.272,0.411-0.571,0.812-0.883,1.193c-0.311,0.381-0.641,0.752-0.991,1.092c-0.341,0.351-0.712,0.682-1.092,1.002
			c-0.382,0.301-0.782,0.601-1.193,0.872c-0.401,0.271-0.832,0.521-1.263,0.752c-0.432,0.231-0.882,0.441-1.333,0.631
			c-0.451,0.19-0.912,0.351-1.383,0.491c-0.472,0.15-0.942,0.271-1.423,0.361c-0.481,0.1-0.973,0.18-1.463,0.221
			c-0.491,0.05-0.982,0.08-1.474,0.08c-0.49,0-0.991-0.03-1.482-0.08c-0.481-0.04-0.972-0.12-1.453-0.221
			c-0.481-0.09-0.962-0.21-1.433-0.361c-0.472-0.14-0.933-0.301-1.383-0.491c-0.451-0.19-0.902-0.401-1.333-0.631
			c-0.432-0.231-0.853-0.481-1.264-0.752c-0.41-0.271-0.812-0.571-1.183-0.872c-0.391-0.321-0.752-0.651-1.102-1.002
			c-0.352-0.341-0.683-0.712-0.992-1.092c-0.312-0.381-0.601-0.782-0.872-1.193c-0.281-0.401-0.531-0.832-0.762-1.263
			s-0.441-0.882-0.621-1.333c-0.19-0.451-0.361-0.912-0.501-1.383c-0.14-0.461-0.261-0.942-0.361-1.423
			c-0.1-0.481-0.17-0.972-0.221-1.463s-0.07-0.982-0.07-1.473s0.021-0.992,0.07-1.483c0.05-0.481,0.12-0.972,0.221-1.453
			c0.101-0.481,0.221-0.962,0.361-1.433c0.14-0.461,0.311-0.932,0.501-1.383c0.18-0.451,0.391-0.902,0.621-1.333
			c0.229-0.431,0.48-0.852,0.762-1.263c0.272-0.411,0.561-0.812,0.872-1.183c0.311-0.381,0.641-0.752,0.992-1.102
			c0.351-0.341,0.712-0.682,1.102-0.992c0.371-0.311,0.773-0.601,1.183-0.872c0.411-0.271,0.832-0.531,1.264-0.762
			c0.431-0.231,0.882-0.441,1.333-0.621c0.45-0.19,0.911-0.361,1.383-0.501c0.471-0.14,0.951-0.261,1.433-0.361
			c0.482-0.1,0.972-0.17,1.453-0.221c0.981-0.1,1.974-0.1,2.957,0c0.49,0.05,0.981,0.12,1.463,0.221
			c0.48,0.1,0.951,0.221,1.423,0.361c0.471,0.14,0.932,0.311,1.383,0.501c0.451,0.18,0.901,0.391,1.333,0.621
			c0.431,0.231,0.861,0.491,1.263,0.762c0.411,0.271,0.812,0.561,1.193,0.872c0.381,0.311,0.752,0.651,1.092,0.992
			c0.351,0.351,0.682,0.722,0.991,1.102c0.312,0.371,0.611,0.772,0.883,1.183c0.271,0.411,0.521,0.832,0.752,1.263
			c0.229,0.431,0.44,0.882,0.631,1.333c0.18,0.451,0.351,0.922,0.49,1.383c0.141,0.471,0.272,0.952,0.361,1.433
			c0.101,0.481,0.17,0.972,0.22,1.453c0.051,0.491,0.08,0.992,0.08,1.483S385.03,455.209,384.979,455.7z"/>
	</g>
</g>
<g>
	<g>
		<path d="M342.673,0H164.752c-3.162,0-5.725,2.563-5.725,5.725v93.126c0,0.118-0.015,0.233-0.018,0.35
			c0.003,0.117,0.018,0.232,0.018,0.35c0,8.303-6.731,15.034-15.034,15.034H50.137c-3.162,0-5.725,2.563-5.725,5.725v280.405
			c0,23.408,18.976,42.384,42.384,42.384h157.98c6.561,0,11.504-5.974,10.254-12.414c-1.409-7.262-2.147-14.764-2.147-22.438
			c0-64.695,52.445-112.129,117.14-112.129c1.423,0,2.84,0.025,4.251,0.076c5.898,0.211,10.782-4.536,10.782-10.439V42.384
			C385.056,18.976,366.081,0,342.673,0z M196.11,356.74h-76.49c-8.303,0-15.034-6.731-15.034-15.034
			c0-8.303,6.731-15.034,15.034-15.034h76.49c8.303,0,15.034,6.731,15.034,15.034C211.144,350.009,204.413,356.74,196.11,356.74z
			 M309.85,296.892H119.619c-8.303,0-15.034-6.731-15.034-15.034c0-8.303,6.731-15.034,15.034-15.034H309.85
			c8.303,0,15.034,6.731,15.034,15.034C324.884,290.161,318.152,296.892,309.85,296.892z M309.85,236.583H119.619
			c-8.303,0-15.034-6.731-15.034-15.034c0-8.303,6.731-15.034,15.034-15.034H309.85c8.303,0,15.034,6.731,15.034,15.034
			C324.884,229.852,318.152,236.583,309.85,236.583z M309.85,178.59H119.619c-8.303,0-15.034-6.731-15.034-15.034
			s6.731-15.034,15.034-15.034H309.85c8.303,0,15.034,6.731,15.034,15.034S318.152,178.59,309.85,178.59z"/>
	</g>
</g>
<g>
</g>
<g>
</g>
<g>
</g>
<g>
</g>
<g>
</g>
<g>
</g>
<g>
</g>
<g>
</g>
<g>
</g>
<g>
</g>
<g>
</g>
<g>
</g>
<g>
</g>
<g>
</g>
<g>
</g>
</svg>
