<svg xmlns="http://www.w3.org/2000/svg" xmlns:xlink="http://www.w3.org/1999/xlink" width="43" height="40" viewBox="0 0 43 40">
  <defs>
    <clipPath id="clip-Artboard_7">
      <rect width="43" height="40"/>
    </clipPath>
  </defs>
  <g id="Artboard_7" data-name="Artboard – 7" clip-path="url(#clip-Artboard_7)">
    <g id="box_4_" data-name="box (4)" transform="translate(-9 -25.651)">
      <path id="Path_2115" data-name="Path 2115" d="M49.464,42.936H47.291a2.14,2.14,0,0,0-2.042-1.57H42.93V35.694a.6.6,0,0,0-.292-.529l-16.361-9.45a.6.6,0,0,0-.607,0L9.3,35.166a.609.609,0,0,0-.3.529v18.9a.611.611,0,0,0,.305.529l16.368,9.45a.611.611,0,0,0,.305.082.642.642,0,0,0,.314-.082L34.905,59.6V63.2a2.585,2.585,0,0,0,2.607,2.592H49.464A2.6,2.6,0,0,0,52.088,63.2V45.568A2.634,2.634,0,0,0,49.464,42.936Zm-4.193-.349a.886.886,0,0,1,.886.886v.059a.886.886,0,0,1-.886.886H41.722a.886.886,0,0,1-.886-.886v-.059a.886.886,0,0,1,.886-.886ZM25.978,26.949l6.8,3.927L17.634,39.62l-6.8-3.927ZM25.4,62.986,10.221,54.242V36.75L25.4,45.5Zm.58-18.549-7.123-4.113L34,31.581l7.124,4.113Zm8.927,1.131V58.195l-8.286,4.792V45.5L41.708,36.75v4.615h.019a2.14,2.14,0,0,0-2.042,1.57H37.512A2.62,2.62,0,0,0,34.905,45.568ZM50.867,63.2a1.377,1.377,0,0,1-1.4,1.371H37.512A1.363,1.363,0,0,1,36.126,63.2V45.568a1.4,1.4,0,0,1,1.386-1.411h2.2a2.088,2.088,0,0,0,2.019,1.483h3.521a2.088,2.088,0,0,0,2.019-1.483h2.2a1.412,1.412,0,0,1,1.4,1.411Z" transform="translate(0 0)" fill="#83bd45"/>
      <path id="Path_2116" data-name="Path 2116" d="M337.606,282.1h.639a.611.611,0,0,0,0-1.221h-.024v-1.657H339.9a.588.588,0,0,0,.581.412.612.612,0,0,0,.614-.609v-.411a.619.619,0,0,0-.617-.613h-2.876a.609.609,0,0,0-.606.613v2.876a.606.606,0,0,0,.606.61Z" transform="translate(-299.391 -230.354)" fill="#83bd45"/>
      <path id="Path_2117" data-name="Path 2117" d="M337.611,346.1h2.878a.611.611,0,0,0,.611-.611v-2.878a.611.611,0,0,0-.611-.611h-2.878a.611.611,0,0,0-.611.611v2.878A.611.611,0,0,0,337.611,346.1Zm.611-2.878h1.657v1.657h-1.657Z" transform="translate(-299.391 -288.772)" fill="#83bd45"/>
      <path id="Path_2118" data-name="Path 2118" d="M338.245,408.878h-.024v-1.657h1.651a.614.614,0,1,0,1.227,0v-.588a.637.637,0,0,0-.617-.634h-2.876a.627.627,0,0,0-.606.634v2.876a.589.589,0,0,0,.606.589h.639a.611.611,0,0,0,0-1.221Z" transform="translate(-299.391 -347.19)" fill="#83bd45"/>
      <path id="Path_2119" data-name="Path 2119" d="M357.729,284.718l-1.788,1.788-.544-.544a.611.611,0,1,0-.863.863l.976.976a.611.611,0,0,0,.863,0l2.22-2.22a.611.611,0,0,0-.863-.864Z" transform="translate(-315.232 -236.323)" fill="#83bd45"/>
      <path id="Path_2120" data-name="Path 2120" d="M357.729,413.967l-1.788,1.788-.544-.544a.611.611,0,1,0-.863.863l.976.976a.611.611,0,0,0,.863,0l2.22-2.22a.611.611,0,1,0-.863-.863Z" transform="translate(-315.232 -354.298)" fill="#83bd45"/>
      <path id="Path_2121" data-name="Path 2121" d="M418.336,295H414.5a.611.611,0,1,0,0,1.221h3.835a.611.611,0,1,0,0-1.221Z" transform="translate(-369.575 -245.871)" fill="#83bd45"/>
      <path id="Path_2122" data-name="Path 2122" d="M418.336,359H414.5a.611.611,0,1,0,0,1.221h3.835a.611.611,0,0,0,0-1.221Z" transform="translate(-369.575 -304.289)" fill="#83bd45"/>
      <path id="Path_2123" data-name="Path 2123" d="M418.336,423H414.5a.611.611,0,1,0,0,1.221h3.835a.611.611,0,0,0,0-1.221Z" transform="translate(-369.575 -362.707)" fill="#83bd45"/>
    </g>
  </g>
</svg>
