<svg xmlns="http://www.w3.org/2000/svg" xmlns:xlink="http://www.w3.org/1999/xlink" width="69" height="68" viewBox="0 0 69 68">
  <defs>
    <clipPath id="clip-Artboard_5">
      <rect width="69" height="68"/>
    </clipPath>
  </defs>
  <g id="Artboard_5" data-name="Artboard – 5" clip-path="url(#clip-Artboard_5)">
    <g id="search_1_" data-name="search (1)" transform="translate(0.569 -2.749)">
      <path id="Path_2099" data-name="Path 2099" d="M162.417,65.551a13.635,13.635,0,1,0,19.283,0A13.651,13.651,0,0,0,162.417,65.551ZM182.3,81.223V69.162A11.932,11.932,0,0,1,182.3,81.223Zm-1.748-14.34V83.5c-.031.032-.06.065-.091.1a11.882,11.882,0,0,1-18.572-2.248H162.9a.874.874,0,1,0,0-1.748h-1.879a11.946,11.946,0,0,1-.8-5.405H167.1a.874.874,0,1,0,0-1.748h-6.6a11.808,11.808,0,0,1,2.912-5.405h11.2a.874.874,0,1,0,0-1.748h-9.137a11.907,11.907,0,0,1,14.989,1.492C180.5,66.819,180.524,66.852,180.555,66.883Z" transform="translate(-130.735 -48.534)" fill="#83bd45"/>
      <path id="Path_2100" data-name="Path 2100" d="M68.039,48.925,55.376,36.262a17.009,17.009,0,0,0-6.43-24.813V3.623a.874.874,0,0,0-.874-.874H9.735A.874.874,0,0,0,9.117,3L.256,11.864A.874.874,0,0,0,0,12.482V69.875a.874.874,0,0,0,.874.874h47.2a.874.874,0,0,0,.874-.874V41.869a16.858,16.858,0,0,0,1.976-1.162L63.59,53.375a3.146,3.146,0,1,0,4.45-4.45ZM56.592,26.659a15.256,15.256,0,1,1-4.472-10.8A15.169,15.169,0,0,1,56.592,26.659ZM8.861,5.733v5.875H2.984ZM47.2,69H1.748V13.356H9.735a.874.874,0,0,0,.874-.874V4.5H47.2v6.2a17.041,17.041,0,0,0-20.639,7.491h-8.2a.874.874,0,0,0,0,1.748h7.328A16.833,16.833,0,0,0,24.6,23.516H8.478a.874.874,0,1,0,0,1.748H24.363q-.056.692-.057,1.395a17.277,17.277,0,0,0,.139,2.189H16.257a.874.874,0,1,0,0,1.748h8.505A16.8,16.8,0,0,0,26.05,34.18H8.478a.874.874,0,0,0,0,1.748H27.047a17.184,17.184,0,0,0,2.244,2.764c.287.287.584.557.886.819H27.183a.874.874,0,0,0,0,1.748h5.4A17.059,17.059,0,0,0,47.2,42.624Zm6.158-30.309q.5-.5.949-1.03l8.963,8.963L61.29,48.6l-8.967-8.967C52.677,39.337,53.023,39.025,53.356,38.692ZM66.8,52.139a1.4,1.4,0,0,1-1.978,0l-2.3-2.3L64.5,47.862l2.3,2.3a1.4,1.4,0,0,1,0,1.978Z" fill="#83bd45"/>
      <path id="Path_2101" data-name="Path 2101" d="M44.374,92.8h6.992a.874.874,0,1,0,0-1.748H44.374a.874.874,0,1,0,0,1.748Z" transform="translate(-35.896 -72.865)" fill="#83bd45"/>
      <path id="Path_2102" data-name="Path 2102" d="M44.374,153.8h4.807a.874.874,0,1,0,0-1.748H44.374a.874.874,0,1,0,0,1.748Z" transform="translate(-35.896 -123.201)" fill="#83bd45"/>
      <path id="Path_2103" data-name="Path 2103" d="M44.374,214.8H60.509a.874.874,0,0,0,0-1.748H44.374a.874.874,0,0,0,0,1.748Z" transform="translate(-35.896 -173.538)" fill="#83bd45"/>
      <path id="Path_2104" data-name="Path 2104" d="M107.722,243.549H82.375a.874.874,0,1,0,0,1.748h25.347a.874.874,0,1,0,0-1.748Z" transform="translate(-67.254 -198.706)" fill="#83bd45"/>
      <path id="Path_2105" data-name="Path 2105" d="M44.374,245.3H48.22a.874.874,0,0,0,0-1.748H44.374a.874.874,0,1,0,0,1.748Z" transform="translate(-35.896 -198.706)" fill="#83bd45"/>
      <path id="Path_2106" data-name="Path 2106" d="M149.394,304.549H132.875a.874.874,0,1,0,0,1.748h16.519a.874.874,0,1,0,0-1.748Z" transform="translate(-108.926 -249.043)" fill="#83bd45"/>
      <path id="Path_2107" data-name="Path 2107" d="M44.374,306.3H57.1a.874.874,0,1,0,0-1.748H44.374a.874.874,0,1,0,0,1.748Z" transform="translate(-35.896 -249.043)" fill="#83bd45"/>
      <path id="Path_2108" data-name="Path 2108" d="M183.226,335.049h-9.352a.874.874,0,1,0,0,1.748h9.352a.874.874,0,1,0,0-1.748Z" transform="translate(-142.758 -274.212)" fill="#83bd45"/>
      <path id="Path_2109" data-name="Path 2109" d="M85.12,335.049H69.475a.874.874,0,0,0,0,1.748H85.12a.874.874,0,0,0,0-1.748Z" transform="translate(-56.609 -274.212)" fill="#83bd45"/>
      <path id="Path_2110" data-name="Path 2110" d="M46.122,335.049H44.374a.874.874,0,1,0,0,1.748h1.748a.874.874,0,0,0,0-1.748Z" transform="translate(-35.896 -274.212)" fill="#83bd45"/>
      <path id="Path_2111" data-name="Path 2111" d="M202.206,274.049h-5.331a.874.874,0,1,0,0,1.748h5.331a.874.874,0,0,0,0-1.748Z" transform="translate(-161.739 -223.875)" fill="#83bd45"/>
      <path id="Path_2112" data-name="Path 2112" d="M44.374,275.8h23.6a.874.874,0,1,0,0-1.748h-23.6a.874.874,0,1,0,0,1.748Z" transform="translate(-35.896 -223.875)" fill="#83bd45"/>
      <path id="Path_2113" data-name="Path 2113" d="M232.433,123.829h-3.059a.874.874,0,0,0,0,1.748h3.059a.874.874,0,0,0,0-1.748Z" transform="translate(-188.557 -99.914)" fill="#83bd45"/>
      <path id="Path_2114" data-name="Path 2114" d="M208.915,164.749h-8.041a.874.874,0,1,0,0,1.748h8.041a.874.874,0,1,0,0-1.748Z" transform="translate(-165.039 -133.681)" fill="#83bd45"/>
    </g>
  </g>
</svg>
