<svg xmlns="http://www.w3.org/2000/svg" xmlns:xlink="http://www.w3.org/1999/xlink" width="44" height="45" viewBox="0 0 44 45">
  <defs>
    <clipPath id="clip-Artboard_8">
      <rect width="44" height="45"/>
    </clipPath>
  </defs>
  <g id="Artboard_8" data-name="Artboard – 8" clip-path="url(#clip-Artboard_8)">
    <g id="notebook" transform="translate(-11.967 -0.193)">
      <path id="Path_2144" data-name="Path 2144" d="M442.281,9.181V6.689a1.778,1.778,0,0,0-3.556,0V9.215a1.537,1.537,0,0,0-.895,1.4v25.9a.665.665,0,1,0,1.33,0V16.27h2.766V42.913H439.16V39.6a.665.665,0,1,0-1.33,0v3.974a.668.668,0,0,0,.021.167l1.314,5.052a1.423,1.423,0,0,0,2.754,0l1.314-5.052a.668.668,0,0,0,.021-.167V10.61a1.537,1.537,0,0,0-.974-1.429ZM439.16,10.61a.206.206,0,0,1,.205-.205h2.355a.206.206,0,0,1,.205.205v1.584H439.16V10.61ZM440.5,6.241a.449.449,0,0,1,.448.448V9.075h-.9V6.689A.449.449,0,0,1,440.5,6.241Zm-1.343,8.7V13.524h2.766v1.417Zm1.473,33.521a.093.093,0,0,1-.18,0l-1.1-4.22h2.376Z" transform="translate(-387.2 -4.476)" fill="#83bd45"/>
      <path id="Path_2145" data-name="Path 2145" d="M123.385,58.6H133.9a.665.665,0,0,0,0-1.33H123.385a.665.665,0,1,0,0,1.33Z" transform="translate(-100.023 -52.192)" fill="#83bd45"/>
      <path id="Path_2146" data-name="Path 2146" d="M123.386,138.819h19.781a.665.665,0,1,0,0-1.33H123.386a.665.665,0,0,0,0,1.33Z" transform="translate(-100.024 -125.301)" fill="#83bd45"/>
      <path id="Path_2147" data-name="Path 2147" d="M123.386,212.139h19.781a.665.665,0,1,0,0-1.33H123.386a.665.665,0,1,0,0,1.33Z" transform="translate(-100.024 -192.122)" fill="#83bd45"/>
      <path id="Path_2148" data-name="Path 2148" d="M123.386,285.458h19.781a.665.665,0,1,0,0-1.33H123.386a.665.665,0,0,0,0,1.33Z" transform="translate(-100.024 -258.942)" fill="#83bd45"/>
      <path id="Path_2149" data-name="Path 2149" d="M123.386,358.778h19.781a.665.665,0,1,0,0-1.33H123.386a.665.665,0,0,0,0,1.33Z" transform="translate(-100.024 -325.762)" fill="#83bd45"/>
      <path id="Path_2150" data-name="Path 2150" d="M123.386,432.1h19.781a.665.665,0,0,0,0-1.33H123.386a.665.665,0,0,0,0,1.33Z" transform="translate(-100.024 -392.582)" fill="#83bd45"/>
      <path id="Path_2151" data-name="Path 2151" d="M19.944,89.847a2.138,2.138,0,0,0-2.136-2.136h-.687v-3.5h.687a2.136,2.136,0,0,0,0-4.272h-.687v-3.5h.687a2.136,2.136,0,1,0,0-4.272h-.687v-3.5h.687a2.136,2.136,0,0,0,0-4.272h-.687v-3.5h.687a2.136,2.136,0,1,0,0-4.272H15.1a2.136,2.136,0,0,0,0,4.272h.687v3.5H15.1a2.136,2.136,0,0,0,0,4.272h.687v3.5H15.1a2.136,2.136,0,1,0,0,4.272h.687v3.5H15.1a2.136,2.136,0,0,0,0,4.272h.687v3.5H15.1a2.136,2.136,0,0,0,0,4.272h2.7A2.138,2.138,0,0,0,19.944,89.847ZM14.3,58.774a.807.807,0,0,1,.806-.806h2.7a.806.806,0,0,1,0,1.612H15.1A.807.807,0,0,1,14.3,58.774Zm0,7.768a.807.807,0,0,1,.806-.806h2.7a.806.806,0,0,1,0,1.612H15.1A.807.807,0,0,1,14.3,66.542Zm0,7.768A.807.807,0,0,1,15.1,73.5h2.7a.806.806,0,0,1,0,1.612H15.1A.807.807,0,0,1,14.3,74.31Zm0,7.768a.807.807,0,0,1,.806-.806h2.7a.806.806,0,0,1,0,1.612H15.1A.807.807,0,0,1,14.3,82.078Zm0,7.768a.807.807,0,0,1,.806-.806h2.7a.806.806,0,1,1,0,1.612H15.1A.807.807,0,0,1,14.3,89.847Z" transform="translate(0 -51.617)" fill="#83bd45"/>
      <path id="Path_2152" data-name="Path 2152" d="M75.18,0H47.667A2.789,2.789,0,0,0,44.9,2.536a.665.665,0,1,0,1.325.113A1.451,1.451,0,0,1,47.667,1.33H75.18a1.445,1.445,0,0,1,1.443,1.443v39.84a1.445,1.445,0,0,1-1.443,1.443H47.667a1.451,1.451,0,0,1-1.438-1.319.665.665,0,1,0-1.325.113,2.789,2.789,0,0,0,2.763,2.536H75.18a2.776,2.776,0,0,0,2.773-2.773V2.773A2.776,2.776,0,0,0,75.18,0Z" transform="translate(-29.103)" fill="#83bd45"/>
    </g>
  </g>
</svg>
