<svg xmlns="http://www.w3.org/2000/svg" xmlns:xlink="http://www.w3.org/1999/xlink" width="46" height="45" viewBox="0 0 46 45">
  <defs>
    <clipPath id="clip-Artboard_10">
      <rect width="46" height="45"/>
    </clipPath>
  </defs>
  <g id="Artboard_10" data-name="Artboard – 10" clip-path="url(#clip-Artboard_10)">
    <g id="contract" transform="translate(0 -0.232)">
      <path id="Path_2153" data-name="Path 2153" d="M219.225,97.7a2.271,2.271,0,0,0-4.16-.545l-.378.658a.756.756,0,0,0-1.029.273l-1.921,3.275-.658-.378a.756.756,0,1,0-.756,1.309l.658.378-6.43,11.142-1.589,4.244-.756,1.414a2.27,2.27,0,0,0,.121,2.451l-1.7,2.088-.476-1.195a1.513,1.513,0,0,0-2.7-.212l-.272.461-.257-3.026a1.513,1.513,0,0,0-2.943-.355l-1.861,5.582a.756.756,0,0,0,.476.953.655.655,0,0,0,.235.06.756.756,0,0,0,.719-.514l1.853-5.582.265,3.071a1.513,1.513,0,0,0,2.806.651l.28-.462.469,1.188a1.513,1.513,0,0,0,2.587.386l1.763-2.231a2.329,2.329,0,0,0,.6.076,2.269,2.269,0,0,0,1.974-1.12l.756-1.263,2.882-3.5,6.5-11.278.658.378a.758.758,0,0,1,.28,1.036l-3.026,5.242a.751.751,0,1,0,1.278.787l3.026-5.242a2.269,2.269,0,0,0-.832-3.1l-.658-.378,1.891-3.275a.757.757,0,0,0-.272-1.029l.378-.658a2.268,2.268,0,0,0,.227-1.755Zm-2.852.212a.756.756,0,0,1,.462-.355.794.794,0,0,1,.575.076.757.757,0,0,1,.356.461.794.794,0,0,1-.076.575l-.378.658L216,98.57Zm-10.31,21.12-.378-.219-1.119-.651,1.074-2.874,2.383,1.377Zm-2.269,2.186a.756.756,0,0,1-.227-.991l.378-.658,1.316.756-.378.65a.756.756,0,0,1-1.089.242Zm5.091-5.794-2.617-1.513,6.051-10.484,2.617,1.513Zm6.808-11.793-2.617-1.513,1.513-2.617,2.617,1.513Zm0,0" transform="translate(-173.915 -86.905)" fill="#83bd45"/>
      <path id="Path_2154" data-name="Path 2154" d="M72.884,356.778l-2.677,2.67-1.6-1.6a.757.757,0,1,0-1.067,1.074l1.6,1.6a1.525,1.525,0,0,0,2.141,0l2.67-2.678a.757.757,0,0,0-1.067-1.067Zm0,0" transform="translate(-60.948 -322.844)" fill="#83bd45"/>
      <path id="Path_2155" data-name="Path 2155" d="M32,318.471a6.43,6.43,0,0,0,12.859,0,.756.756,0,0,0-1.513,0,4.917,4.917,0,1,1-1.967-3.933.757.757,0,0,0,.908-1.21A6.43,6.43,0,0,0,32,318.471Zm0,0" transform="translate(-28.974 -282.501)" fill="#83bd45"/>
      <path id="Path_2156" data-name="Path 2156" d="M92.424,49.552a.756.756,0,0,0,0-1.513H72.756A.756.756,0,0,0,72,48.8v3.026a.756.756,0,0,0,.756.756H92.424a.756.756,0,0,0,0-1.513H73.513V49.552Zm0,0" transform="translate(-65.192 -43.462)" fill="#83bd45"/>
      <path id="Path_2157" data-name="Path 2157" d="M96.756,112.039a.756.756,0,0,0,0,1.513h15.129a.756.756,0,1,0,0-1.513Zm0,0" transform="translate(-86.923 -101.41)" fill="#83bd45"/>
      <path id="Path_2158" data-name="Path 2158" d="M145.4,168.039H128.756a.756.756,0,0,0,0,1.513H145.4a.756.756,0,0,0,0-1.513Zm0,0" transform="translate(-115.897 -152.115)" fill="#83bd45"/>
      <path id="Path_2159" data-name="Path 2159" d="M72.641,216.8a.756.756,0,0,0-.756-.756H56.756a.756.756,0,0,0,0,1.513H71.885A.756.756,0,0,0,72.641,216.8Zm0,0" transform="translate(-50.705 -195.576)" fill="#83bd45"/>
      <path id="Path_2160" data-name="Path 2160" d="M254.051,216.039h-5.3a.756.756,0,0,0,0,1.513h5.3a.756.756,0,0,0,0-1.513Zm0,0" transform="translate(-224.551 -195.576)" fill="#83bd45"/>
      <path id="Path_2161" data-name="Path 2161" d="M64.321,257.552a.756.756,0,0,0,0-1.513H56.756a.756.756,0,1,0,0,1.513Zm0,0" transform="translate(-50.705 -231.794)" fill="#83bd45"/>
      <path id="Path_2162" data-name="Path 2162" d="M168.756,257.552h5.3a.756.756,0,1,0,0-1.513h-5.3a.756.756,0,1,0,0,1.513Zm0,0" transform="translate(-152.115 -231.794)" fill="#83bd45"/>
      <path id="Path_2163" data-name="Path 2163" d="M34.039,34.835a.756.756,0,0,0-.756.756v7.564a.756.756,0,0,1-.756.756H2.269a.756.756,0,0,1-.756-.756V2.308a.756.756,0,0,1,.756-.756H32.526a.756.756,0,0,1,.756.756V16.514a.756.756,0,0,0,1.513,0V2.308A2.269,2.269,0,0,0,32.526.039H2.269A2.269,2.269,0,0,0,0,2.308V43.156a2.269,2.269,0,0,0,2.269,2.269H32.526A2.269,2.269,0,0,0,34.8,43.156V35.591A.756.756,0,0,0,34.039,34.835Zm0,0" fill="#83bd45"/>
    </g>
  </g>
</svg>
