<?xml version="1.0" encoding="utf-8"?>
<!-- Generator: Adobe Illustrator 24.0.1, SVG Export Plug-In . SVG Version: 6.00 Build 0)  -->
<svg version="1.1" id="Layer_1" xmlns="http://www.w3.org/2000/svg" xmlns:xlink="http://www.w3.org/1999/xlink" x="0px" y="0px"
	 viewBox="0 0 48 48" style="enable-background:new 0 0 48 48;" xml:space="preserve">
<style type="text/css">
	.st0{fill:#FFFFFF;}
</style>
<title>Asset 10ldpi</title>
<g id="Layer_2_1_">
	<g id="layer_1-2">
		<path class="st0" d="M37,48c-6.1,0-11-4.9-11-11s4.9-11,11-11s11,4.9,11,11S43.1,48,37,48z M37,28c-5,0-9,4-9,9s4,9,9,9s9-4,9-9
			S42,28,37,28z"/>
		<path class="st0" d="M10,27.3l-2-0.1c0.3-4.8,2.7-9.3,6.6-12.1l1.2,1.6C12.4,19.1,10.2,23,10,27.3z"/>
		<path class="st0" d="M24,44c-1.6,0-3.3-0.2-4.8-0.7l0.6-1.9c2.7,0.9,5.7,0.9,8.4,0l0.6,1.9C27.3,43.8,25.6,44,24,44z"/>
		<path class="st0" d="M38,27.3c-0.2-4.2-2.4-8.1-5.8-10.6l1.1-1.6c4,2.8,6.4,7.3,6.7,12.1L38,27.3z"/>
		<path class="st0" d="M37,40c-2.2,0-4-2.2-4-5c-0.2-2,1.4-3.8,3.4-4c0.2,0,0.4,0,0.6,0c2-0.2,3.8,1.4,4,3.4c0,0.2,0,0.4,0,0.6
			C41,37.8,39.2,40,37,40z M37,33c-1.8,0-2,1.1-2,2c0,1.6,0.9,3,2,3s2-1.4,2-3C39,34.1,38.8,33,37,33z"/>
		<path class="st0" d="M44,45h-2v-3.3c0-0.5-0.4-0.9-0.8-1L37,40l-4.2,0.7c-0.5,0.1-0.8,0.5-0.8,1V45h-2v-3.3c0-1.5,1.1-2.7,2.5-3
			l4.3-0.7h0.3l4.3,0.7c1.4,0.2,2.5,1.5,2.5,3V45z"/>
		<path class="st0" d="M24,22c-6.1,0-11-4.9-11-11c0-6.1,4.9-11,11-11c3,0,5.8,1.2,7.9,3.3l-1.4,1.4C27,1.1,21.3,1.1,17.7,4.6
			s-3.6,9.2-0.1,12.7s9.2,3.6,12.7,0.1c1.7-1.7,2.7-4,2.7-6.4h2C35,17.1,30.1,22,24,22z"/>
		<path class="st0" d="M11,48C4.9,48,0,43.1,0,37s4.9-11,11-11s11,4.9,11,11S17.1,48,11,48z M11,28c-5,0-9,4-9,9s4,9,9,9s9-4,9-9
			S16,28,11,28z"/>
		<path class="st0" d="M11,40c-2.2,0-4-2.2-4-5c-0.2-2,1.4-3.8,3.4-4c0.2,0,0.4,0,0.6,0c2-0.2,3.8,1.4,4,3.4c0,0.2,0,0.4,0,0.6
			C15,37.8,13.2,40,11,40z M11,33c-1.8,0-2,1.1-2,2c0,1.6,0.9,3,2,3s2-1.4,2-3C13,34.1,12.8,33,11,33z"/>
		<path class="st0" d="M18,45h-2v-3.3c0-0.5-0.4-0.9-0.8-1L11,40l-4.2,0.7c-0.5,0.1-0.8,0.5-0.8,1V45H4v-3.3c0-1.5,1.1-2.7,2.5-3
			l4.3-0.7h0.3l4.3,0.7c1.4,0.2,2.5,1.5,2.5,3V45z"/>
		<path class="st0" d="M24,17c-0.3,0-0.5-0.1-0.7-0.3l-5-5l1.4-1.4l4.3,4.3L35.3,3.3l1.4,1.4l-12,12C24.5,16.9,24.3,17,24,17z"/>
	</g>
</g>
</svg>
