<?xml version="1.0" encoding="utf-8"?>
<!-- Generator: Adobe Illustrator 24.0.1, SVG Export Plug-In . SVG Version: 6.00 Build 0)  -->
<svg version="1.1" id="Layer_1" xmlns="http://www.w3.org/2000/svg" xmlns:xlink="http://www.w3.org/1999/xlink" x="0px" y="0px"
	 viewBox="0 0 48 48" style="enable-background:new 0 0 48 48;" xml:space="preserve">
<style type="text/css">
	.st0{fill:#FFFFFF;}
</style>
<title>Asset 19ldpi</title>
<g id="Layer_2_1_">
	<g id="layer_1-2">
		<path class="st0" d="M45,36H3c-0.6,0-1-0.4-1-1V1c0-0.6,0.4-1,1-1h42c0.6,0,1,0.4,1,1v34C46,35.6,45.6,36,45,36z M4,34h40V2H4V34z
			"/>
		<rect class="st0" width="48" height="2"/>
		<path class="st0" d="M24,48c-2.2,0-4-1.8-4-4s1.8-4,4-4s4,1.8,4,4S26.2,48,24,48z M24,42c-1.1,0-2,0.9-2,2s0.9,2,2,2s2-0.9,2-2
			S25.1,42,24,42z"/>
		<rect x="23" y="35" class="st0" width="2" height="6"/>
		<path class="st0" d="M13,27c-2.8,0-5-2.2-5-5h2c0,1.7,1.3,3,3,3s3-1.3,3-3s-1.3-3-3-3c-2.8,0-5-2.2-5-5s2.2-5,5-5s5,2.2,5,5h-2
			c0-1.7-1.3-3-3-3s-3,1.3-3,3s1.3,3,3,3c2.8,0,5,2.2,5,5S15.8,27,13,27z"/>
		<rect x="12" y="26" class="st0" width="2" height="3"/>
		<rect x="12" y="7" class="st0" width="2" height="3"/>
		<rect x="31" y="7" class="st0" width="9" height="2"/>
		<rect x="22" y="7" class="st0" width="7" height="2"/>
		<rect x="34" y="12" class="st0" width="6" height="2"/>
		<rect x="22" y="12" class="st0" width="10" height="2"/>
		<rect x="22" y="17" class="st0" width="15" height="2"/>
		<rect x="30" y="22" class="st0" width="10" height="2"/>
		<rect x="22" y="22" class="st0" width="6" height="2"/>
		<rect x="22" y="27" class="st0" width="10" height="2"/>
	</g>
</g>
</svg>
