<?xml version="1.0" encoding="utf-8"?>
<!-- Generator: Adobe Illustrator 24.0.1, SVG Export Plug-In . SVG Version: 6.00 Build 0)  -->
<svg version="1.1" id="Layer_1" xmlns="http://www.w3.org/2000/svg" xmlns:xlink="http://www.w3.org/1999/xlink" x="0px" y="0px"
	 viewBox="0 0 48 48" style="enable-background:new 0 0 48 48;" xml:space="preserve">
<style type="text/css">
	.st0{fill:#FFFFFF;}
</style>
<title>Asset 20ldpi</title>
<g id="Layer_2_1_">
	<g id="layer_1-2">
		<path class="st0" d="M41,48c-0.2,0-0.4-0.1-0.5-0.2L31.7,42H19c-1.7,0-3-1.3-3-3v-5h2v5c0,0.6,0.4,1,1,1h13c0.2,0,0.4,0.1,0.5,0.2
			l7.5,5V41c0-0.6,0.4-1,1-1h4c0.6,0,1-0.4,1-1V13c0-0.6-0.4-1-1-1H34v-2h11c1.7,0,3,1.3,3,3v26c0,1.7-1.3,3-3,3h-3v5
			c0,0.4-0.2,0.7-0.5,0.9C41.3,48,41.2,48,41,48z"/>
		<path class="st0" d="M7,38c-0.2,0-0.3,0-0.5-0.1C6.2,37.7,6,37.4,6,37v-5H3c-1.7,0-3-1.3-3-3l0,0V3c0-1.7,1.3-3,3-3h26
			c1.7,0,3,1.3,3,3v26c0,1.7-1.3,3-3,3l0,0H16.3l-8.7,5.8C7.4,37.9,7.2,38,7,38z M3,2C2.4,2,2,2.4,2,3v26c0,0.6,0.4,1,1,1h4
			c0.6,0,1,0.4,1,1v4.1l7.4-5C15.6,30,15.8,30,16,30h13c0.6,0,1-0.4,1-1V3c0-0.6-0.4-1-1-1H3z"/>
		<rect x="34" y="20" class="st0" width="10" height="2"/>
		<rect x="34" y="15" class="st0" width="10" height="2"/>
		<rect x="34" y="25" class="st0" width="6" height="2"/>
		<rect x="34" y="30" class="st0" width="10" height="2"/>
		<rect x="20" y="35" class="st0" width="20" height="2"/>
		<path class="st0" d="M16,25c-2.8,0-5-2.2-5-5h2c0,1.7,1.3,3,3,3s3-1.3,3-3s-1.3-3-3-3c-2.8,0-5-2.2-5-5s2.2-5,5-5s5,2.2,5,5h-2
			c0-1.7-1.3-3-3-3s-3,1.3-3,3s1.3,3,3,3c2.8,0,5,2.2,5,5S18.8,25,16,25z"/>
		<rect x="15" y="24" class="st0" width="2" height="4"/>
		<rect x="15" y="4" class="st0" width="2" height="4"/>
		<rect x="24" y="15" class="st0" width="2" height="2"/>
		<rect x="6" y="15" class="st0" width="2" height="2"/>
	</g>
</g>
</svg>
