<?xml version="1.0" encoding="utf-8"?>
<!-- Generator: Adobe Illustrator 24.0.1, SVG Export Plug-In . SVG Version: 6.00 Build 0)  -->
<svg version="1.1" id="Layer_1" xmlns="http://www.w3.org/2000/svg" xmlns:xlink="http://www.w3.org/1999/xlink" x="0px" y="0px"
	 viewBox="0 0 48 48" style="enable-background:new 0 0 48 48;" xml:space="preserve">
<style type="text/css">
	.st0{fill:#FFFFFF;}
</style>
<title>Asset 21ldpi</title>
<g id="Layer_2_1_">
	<g id="layer_1-2">
		<path class="st0" d="M35,38H13c-1.7,0-3-1.3-3-3V13c0-1.7,1.3-3,3-3h22c1.7,0,3,1.3,3,3v22C38,36.7,36.7,38,35,38z M13,12
			c-0.6,0-1,0.4-1,1v22c0,0.6,0.4,1,1,1h22c0.6,0,1-0.4,1-1V13c0-0.6-0.4-1-1-1H13z"/>
		<rect x="32" class="st0" width="2" height="8"/>
		<rect x="32" y="40" class="st0" width="2" height="8"/>
		<rect x="20" class="st0" width="2" height="8"/>
		<rect x="26" class="st0" width="2" height="8"/>
		<rect x="26" y="40" class="st0" width="2" height="8"/>
		<rect x="20" y="40" class="st0" width="2" height="8"/>
		<rect x="14" y="40" class="st0" width="2" height="8"/>
		<rect x="14" class="st0" width="2" height="8"/>
		<rect y="14" class="st0" width="8" height="2"/>
		<rect y="13" class="st0" width="2" height="4"/>
		<rect y="19" class="st0" width="2" height="4"/>
		<rect y="25" class="st0" width="2" height="4"/>
		<rect y="31" class="st0" width="2" height="4"/>
		<rect x="46" y="13" class="st0" width="2" height="4"/>
		<rect x="46" y="19" class="st0" width="2" height="4"/>
		<rect x="46" y="25" class="st0" width="2" height="4"/>
		<rect x="46" y="31" class="st0" width="2" height="4"/>
		<rect x="13" y="46" class="st0" width="4" height="2"/>
		<rect x="19" y="46" class="st0" width="4" height="2"/>
		<rect x="25" y="46" class="st0" width="4" height="2"/>
		<rect x="31" y="46" class="st0" width="4" height="2"/>
		<rect x="13" class="st0" width="4" height="2"/>
		<rect x="19" class="st0" width="4" height="2"/>
		<rect x="25" class="st0" width="4" height="2"/>
		<rect x="31" class="st0" width="4" height="2"/>
		<rect x="40" y="14" class="st0" width="8" height="2"/>
		<rect y="26" class="st0" width="8" height="2"/>
		<rect y="20" class="st0" width="8" height="2"/>
		<rect x="40" y="20" class="st0" width="8" height="2"/>
		<rect x="40" y="26" class="st0" width="8" height="2"/>
		<rect x="32" y="23" class="st0" width="2" height="2"/>
		<rect x="14" y="23" class="st0" width="2" height="2"/>
		<rect x="40" y="32" class="st0" width="8" height="2"/>
		<rect y="32" class="st0" width="8" height="2"/>
		<path class="st0" d="M26,31h-5c-0.6,0-1-0.4-1-1v-6c0-0.6,0.4-1,1-1h5c2.2,0,4,1.8,4,4S28.2,31,26,31z M22,29h4c1.1,0,2-0.9,2-2
			s-0.9-2-2-2h-4V29z"/>
		<path class="st0" d="M25,25h-4c-0.6,0-1-0.4-1-1v-6c0-0.6,0.4-1,1-1h4c2.2,0,4,1.8,4,4S27.2,25,25,25z M22,23h3c1.1,0,2-0.9,2-2
			s-0.9-2-2-2h-3V23z"/>
		<rect x="23" y="30" class="st0" width="2" height="3"/>
		<rect x="23" y="15" class="st0" width="2" height="3"/>
		<rect x="19" y="17" class="st0" width="2" height="2"/>
		<rect x="19" y="29" class="st0" width="2" height="2"/>
	</g>
</g>
</svg>
