<?xml version="1.0" encoding="utf-8"?>
<!-- Generator: Adobe Illustrator 24.0.1, SVG Export Plug-In . SVG Version: 6.00 Build 0)  -->
<svg version="1.1" id="Layer_1" xmlns="http://www.w3.org/2000/svg" xmlns:xlink="http://www.w3.org/1999/xlink" x="0px" y="0px"
	 viewBox="0 0 48 48" style="enable-background:new 0 0 48 48;" xml:space="preserve">
<style type="text/css">
	.st0{fill:#FFFFFF;}
</style>
<title>Asset 22ldpi</title>
<g id="Layer_2_1_">
	<g id="layer_1-2">
		<path class="st0" d="M41,39c-0.3,0-0.5-0.1-0.7-0.3l-14-14c-0.4-0.4-0.4-1,0-1.4c0,0,0,0,0,0l6-6c0.4-0.4,1-0.4,1.4,0c0,0,0,0,0,0
			l14,14c0.4,0.4,0.4,1,0,1.4c0,0,0,0,0,0l-6,6C41.5,38.9,41.3,39,41,39z M28.4,24L41,36.6l4.6-4.6L33,19.4L28.4,24z"/>
		<path class="st0" d="M28,24c-0.3,0-0.5-0.1-0.7-0.3l-4-4c-0.4-0.4-0.4-1,0-1.4c0,0,0,0,0,0l4-4c0.4-0.4,1-0.4,1.4,0c0,0,0,0,0,0
			l4,4c0.4,0.4,0.4,1,0,1.4c0,0,0,0,0,0l-4,4C28.5,23.9,28.3,24,28,24z M25.4,19l2.6,2.6l2.6-2.6L28,16.4L25.4,19z"/>
		<path class="st0" d="M17,27c-0.3,0-0.5-0.1-0.7-0.3l-7-7c-0.4-0.4-0.4-1,0-1.4c0,0,0,0,0,0l18-18c0.4-0.4,1-0.4,1.4,0c0,0,0,0,0,0
			l7,7c0.4,0.4,0.4,1,0,1.4c0,0,0,0,0,0l-18,18C17.5,26.9,17.3,27,17,27z M11.4,19l5.6,5.6L33.6,8L28,2.4L11.4,19z"/>
		<path class="st0" d="M22,22c-0.3,0-0.5-0.1-0.7-0.3l-7-7c-0.4-0.4-0.4-1,0-1.4c0,0,0,0,0,0l8-8c0.4-0.4,1-0.4,1.4,0c0,0,0,0,0,0
			l7,7c0.4,0.4,0.4,1,0,1.4c0,0,0,0,0,0l-8,8C22.5,21.9,22.3,22,22,22z M16.4,14l5.6,5.6l6.6-6.6L23,7.4L16.4,14z"/>
		<rect y="26" class="st0" width="7" height="2"/>
		<rect x="2.2" y="31" transform="matrix(0.7071 -0.7071 0.7071 0.7071 -21.1634 12.9108)" class="st0" width="5.7" height="2"/>
		<rect x="4" y="19.2" transform="matrix(0.7071 -0.7071 0.7071 0.7071 -14.0919 9.9808)" class="st0" width="2" height="5.7"/>
		<rect x="35.8" y="30" transform="matrix(0.7071 -0.7071 0.7071 0.7071 -10.1969 37.3675)" class="st0" width="8.5" height="2"/>
		<path class="st0" d="M27,48H3c-0.6,0-1-0.4-1-1v-3c0-1.7,1.3-3,3-3h20c1.7,0,3,1.3,3,3v3C28,47.6,27.6,48,27,48z M4,46h22v-2
			c0-0.6-0.4-1-1-1H5c-0.6,0-1,0.4-1,1V46z"/>
		<path class="st0" d="M23,43H7c-0.6,0-1-0.4-1-1v-3c0-1.7,1.3-3,3-3h12c1.7,0,3,1.3,3,3v3C24,42.6,23.6,43,23,43z M8,41h14v-2
			c0-0.6-0.4-1-1-1H9c-0.6,0-1,0.4-1,1V41z"/>
		<rect y="46" class="st0" width="48" height="2"/>
	</g>
</g>
</svg>
