<?xml version="1.0" encoding="utf-8"?>
<!-- Generator: Adobe Illustrator 24.0.1, SVG Export Plug-In . SVG Version: 6.00 Build 0)  -->
<svg version="1.1" id="Layer_1" xmlns="http://www.w3.org/2000/svg" xmlns:xlink="http://www.w3.org/1999/xlink" x="0px" y="0px"
	 viewBox="0 0 48 48" style="enable-background:new 0 0 48 48;" xml:space="preserve">
<style type="text/css">
	.st0{fill:#FFFFFF;}
</style>
<title>Asset 23ldpi</title>
<g id="Layer_2_1_">
	<g id="layer_1-2">
		<path class="st0" d="M35,8H17c-0.6,0-1-0.4-1-1V3c0-1.7,1.3-3,3-3h14c1.7,0,3,1.3,3,3v4C36,7.6,35.6,8,35,8z M18,6h16V3
			c0-0.6-0.4-1-1-1H19c-0.6,0-1,0.4-1,1V6z"/>
		<path class="st0" d="M31,30h-6c-1.7,0-3-1.3-3-3v-4c0-1.7,1.3-3,3-3h6c1.7,0,3,1.3,3,3v4C34,28.7,32.7,30,31,30z M25,22
			c-0.6,0-1,0.4-1,1v4c0,0.6,0.4,1,1,1h6c0.6,0,1-0.4,1-1v-4c0-0.6-0.4-1-1-1H25z"/>
		<path class="st0" d="M47,26H33v-2h13V11c0-1.7-1.3-3-3-3H9c0.6,0.9,1,1.9,1,3v13h13v2H9c-0.6,0-1-0.4-1-1V11c0-1.7-1.3-3-3-3
			C4.4,8,4,7.6,4,7s0.4-1,1-1h38c2.8,0,5,2.2,5,5v14C48,25.6,47.6,26,47,26z"/>
		<path class="st0" d="M11,48H1c-0.6,0-1-0.4-1-1V11c0-2.8,2.2-5,5-5s5,2.2,5,5v14H8V11c0-1.7-1.3-3-3-3s-3,1.3-3,3v35h8V25h2v22
			C12,47.6,11.6,48,11,48z"/>
		<path class="st0" d="M45,48H11c-0.6,0-1-0.4-1-1V25c0-0.6,0.4-1,1-1h12v2H12v20h32V26H33v-2h12c0.6,0,1,0.4,1,1v22
			C46,47.6,45.6,48,45,48z"/>
	</g>
</g>
</svg>
