<?xml version="1.0" encoding="utf-8"?>
<!-- Generator: Adobe Illustrator 24.0.1, SVG Export Plug-In . SVG Version: 6.00 Build 0)  -->
<svg version="1.1" id="Layer_1" xmlns="http://www.w3.org/2000/svg" xmlns:xlink="http://www.w3.org/1999/xlink" x="0px" y="0px"
	 viewBox="0 0 48 48" style="enable-background:new 0 0 48 48;" xml:space="preserve">
<style type="text/css">
	.st0{fill:#FFFFFF;}
</style>
<title>Asset 24ldpi</title>
<g id="Layer_2_1_">
	<g id="layer_1-2">
		<path class="st0" d="M5,42H1c-0.6,0-1-0.4-1-1V1c0-0.6,0.4-1,1-1h28c0.6,0,1,0.4,1,1v4h-2V2H2v38h3V42z"/>
		<path class="st0" d="M15,16H7c-0.4,0-0.8-0.2-0.9-0.6C5.9,15,6,14.6,6.3,14.3l8-8C14.6,6,15,5.9,15.4,6.1C15.8,6.2,16,6.6,16,7v8
			C16,15.6,15.6,16,15,16z M9.4,14H14V9.4L9.4,14z"/>
		<path class="st0" d="M20,41c-0.6,0-1-0.4-1-1c0-0.1,0-0.3,0.1-0.4l4-10c0.2-0.5,0.8-0.8,1.3-0.6c0.1,0.1,0.2,0.1,0.3,0.2l6,6
			c0.4,0.4,0.4,1,0,1.4c-0.1,0.1-0.2,0.2-0.3,0.2l-10,4C20.3,41,20.1,41,20,41z M24.4,31.8l-2.6,6.4l6.4-2.6L24.4,31.8z"/>
		<path class="st0" d="M30,37c-0.3,0-0.5-0.1-0.7-0.3l-6-6c-0.4-0.4-0.4-1,0-1.4c0,0,0,0,0,0l17-17c0.4-0.4,1-0.4,1.4,0c0,0,0,0,0,0
			l6,6c0.4,0.4,0.4,1,0,1.4c0,0,0,0,0,0l-17,17C30.5,36.9,30.3,37,30,37z M25.4,30l4.6,4.6L45.6,19L41,14.4L25.4,30z"/>
		<rect x="30" y="24.8" transform="matrix(0.7071 -0.7071 0.7071 0.7071 -11.4259 30.414)" class="st0" width="2" height="8.5"/>
		<rect x="39" y="15.8" transform="matrix(0.7071 -0.7071 0.7071 0.7071 -2.4274 34.1425)" class="st0" width="2" height="8.5"/>
		<path class="st0" d="M37,48H7c-0.6,0-1-0.4-1-1V15c0-0.3,0.1-0.5,0.3-0.7l8-8C14.5,6.1,14.7,6,15,6h22c0.6,0,1,0.4,1,1v6h-2V8
			H15.4L8,15.4V46h28V33h2v14C38,47.6,37.6,48,37,48z"/>
		<rect x="11" y="39" class="st0" width="9" height="2"/>
		<rect x="11" y="34" class="st0" width="8" height="2"/>
		<rect x="11" y="29" class="st0" width="10" height="2"/>
		<rect x="11" y="24" class="st0" width="6" height="2"/>
		<rect x="19" y="24" class="st0" width="6" height="2"/>
		<rect x="11" y="19" class="st0" width="10" height="2"/>
		<rect x="23" y="19" class="st0" width="7" height="2"/>
		<rect x="19" y="14" class="st0" width="14" height="2"/>
	</g>
</g>
</svg>
