<?xml version="1.0" encoding="utf-8"?>
<!-- Generator: Adobe Illustrator 24.0.1, SVG Export Plug-In . SVG Version: 6.00 Build 0)  -->
<svg version="1.1" id="Layer_1" xmlns="http://www.w3.org/2000/svg" xmlns:xlink="http://www.w3.org/1999/xlink" x="0px" y="0px"
	 viewBox="0 0 48 48" style="enable-background:new 0 0 48 48;" xml:space="preserve">
<style type="text/css">
	.st0{fill:#FFFFFF;}
</style>
<title>Asset 25ldpi</title>
<g id="Layer_2_1_">
	<g id="layer_1-2">
		<path class="st0" d="M41,42H30v-2h10V7h2v34C42,41.6,41.6,42,41,42z"/>
		<path class="st0" d="M12,42H1c-0.6,0-1-0.4-1-1V7c0-3.9,3.1-7,7-7v2C4.2,2,2,4.2,2,7v33h10V42z"/>
		<path class="st0" d="M47,8H13c-0.6,0-1-0.4-1-1c0-2.8-2.2-5-5-5C6.4,2,6,1.6,6,1s0.4-1,1-1h34c3.9,0,7,3.1,7,7l0,0
			C48,7.6,47.6,8,47,8z M13.9,6h32c-0.5-2.3-2.5-4-4.9-4H11.9C13,3.1,13.7,4.5,13.9,6z"/>
		<path class="st0" d="M21,38c-7.2,0-13-5.8-13-13s5.8-13,13-13s13,5.8,13,13S28.2,38,21,38z M21,14c-6.1,0-11,4.9-11,11
			s4.9,11,11,11s11-4.9,11-11S27.1,14,21,14L21,14z"/>
		<path class="st0" d="M27,48c-0.2,0-0.3,0-0.5-0.1L21,45.1l-5.6,2.8c-0.5,0.2-1.1,0.1-1.3-0.4C14,47.3,14,47.2,14,47V36h2v9.4
			l4.5-2.3c0.3-0.1,0.6-0.1,0.9,0l4.6,2.3V36h2v11c0,0.3-0.2,0.7-0.5,0.8C27.4,47.9,27.2,48,27,48z"/>
		<path class="st0" d="M21,32c-2.2,0-4-1.8-4-4h2c0,1.1,0.9,2,2,2s2-0.9,2-2s-0.9-2-2-2c-2.2,0-4-1.8-4-4s1.8-4,4-4s4,1.8,4,4h-2
			c0-1.1-0.9-2-2-2s-2,0.9-2,2s0.9,2,2,2c2.2,0,4,1.8,4,4S23.2,32,21,32z"/>
		<rect x="20" y="31" class="st0" width="2" height="3"/>
		<rect x="20" y="16" class="st0" width="2" height="3"/>
		<rect x="27" y="24" class="st0" width="2" height="2"/>
		<rect x="13" y="24" class="st0" width="2" height="2"/>
	</g>
</g>
</svg>
