<?xml version="1.0" encoding="utf-8"?>
<!-- Generator: Adobe Illustrator 24.0.1, SVG Export Plug-In . SVG Version: 6.00 Build 0)  -->
<svg version="1.1" id="Layer_1" xmlns="http://www.w3.org/2000/svg" xmlns:xlink="http://www.w3.org/1999/xlink" x="0px" y="0px"
	 viewBox="0 0 40 48" style="enable-background:new 0 0 40 48;" xml:space="preserve">
<style type="text/css">
	.st0{fill:#FFFFFF;}
</style>
<title>Asset 26ldpi</title>
<g id="Layer_2_1_">
	<g id="layer_1-2">
		<path class="st0" d="M20,48L20,48c-0.3,0-0.6-0.1-0.8-0.4l-19-23c-0.3-0.4-0.3-0.9,0-1.3l19-23c0.4-0.4,1-0.5,1.4-0.1
			c0,0,0.1,0.1,0.1,0.1l19,23c0.3,0.4,0.3,0.9,0,1.3l-4.1,5l-1.5-1.3l3.6-4.4L20,2.6L2.3,24L20,45.4l7.5-9.1l1.5,1.3l-8.3,10
			C20.6,47.9,20.3,48,20,48z"/>
		<path class="st0" d="M20,48c-0.4,0-0.8-0.3-0.9-0.7l-8-23c-0.1-0.2-0.1-0.4,0-0.7l1.4-4l1.9,0.7L13.1,24L20,44l6.9-20L20,4
			l-2.2,6.3l-1.9-0.7l3.1-9C19.2,0.2,19.6,0,20,0l0,0c0.4,0,0.8,0.3,0.9,0.7l8,23c0.1,0.2,0.1,0.4,0,0.7l-8,23
			C20.8,47.7,20.4,48,20,48z"/>
		<rect x="1" y="23" class="st0" width="38" height="2"/>
		<rect x="17" y="14" class="st0" width="3" height="2"/>
		<rect x="12" y="14" class="st0" width="3" height="2"/>
		<rect x="15" y="11" class="st0" width="2" height="3"/>
		<rect x="15" y="16" class="st0" width="2" height="3"/>
		<rect x="33" y="32" class="st0" width="3" height="2"/>
		<rect x="28" y="32" class="st0" width="3" height="2"/>
		<rect x="31" y="29" class="st0" width="2" height="3"/>
		<rect x="31" y="34" class="st0" width="2" height="3"/>
		<rect x="35" y="5" class="st0" width="3" height="2"/>
		<rect x="30" y="5" class="st0" width="3" height="2"/>
		<rect x="33" y="2" class="st0" width="2" height="3"/>
		<rect x="33" y="7" class="st0" width="2" height="3"/>
		<rect x="7" y="41" class="st0" width="3" height="2"/>
		<rect x="2" y="41" class="st0" width="3" height="2"/>
		<rect x="5" y="38" class="st0" width="2" height="3"/>
		<rect x="5" y="43" class="st0" width="2" height="3"/>
	</g>
</g>
</svg>
