<?xml version="1.0" encoding="utf-8"?>
<!-- Generator: Adobe Illustrator 24.0.1, SVG Export Plug-In . SVG Version: 6.00 Build 0)  -->
<svg version="1.1" id="Layer_1" xmlns="http://www.w3.org/2000/svg" xmlns:xlink="http://www.w3.org/1999/xlink" x="0px" y="0px"
	 viewBox="0 0 48 48" style="enable-background:new 0 0 48 48;" xml:space="preserve">
<style type="text/css">
	.st0{fill:#FFFFFF;}
</style>
<title>Asset 27ldpi</title>
<g id="Layer_2_1_">
	<g id="layer_1-2">
		<path class="st0" d="M15,24c-8.6,0-15-3-15-7s6.4-7,15-7s15,3,15,7S23.5,24,15,24z M15,12c-7.7,0-13,2.6-13,5s5.3,5,13,5
			s13-2.6,13-5S22.7,12,15,12z"/>
		<path class="st0" d="M15,30c-8.6,0-15-3-15-7v-6c0-0.6,0.4-1,1-1s1,0.4,1,1c0,2.4,5.3,5,13,5s13-2.6,13-5c0-0.6,0.4-1,1-1
			s1,0.4,1,1v6C30,27,23.5,30,15,30z M2,20.6V23c0,2.4,5.3,5,13,5s13-2.6,13-5v-2.4c-2.5,2.1-7.3,3.4-13,3.4S4.6,22.7,2,20.6z"/>
		<path class="st0" d="M15,36c-8.6,0-15-3-15-7v-6c0-0.6,0.4-1,1-1s1,0.4,1,1c0,2.4,5.3,5,13,5s13-2.6,13-5c0-0.6,0.4-1,1-1
			s1,0.4,1,1v6C30,33,23.5,36,15,36z M2,26.6V29c0,2.4,5.3,5,13,5s13-2.6,13-5v-2.4c-2.5,2.1-7.3,3.4-13,3.4S4.6,28.7,2,26.6z"/>
		<path class="st0" d="M15,42c-8.6,0-15-3-15-7v-6c0-0.6,0.4-1,1-1s1,0.4,1,1c0,2.4,5.3,5,13,5s13-2.6,13-5c0-0.6,0.4-1,1-1
			s1,0.4,1,1v6C30,39,23.5,42,15,42z M2,32.6V35c0,2.4,5.3,5,13,5s13-2.6,13-5v-2.4c-2.5,2.1-7.3,3.4-13,3.4S4.6,34.7,2,32.6z"/>
		<path class="st0" d="M15,48c-8.6,0-15-3-15-7v-6c0-0.6,0.4-1,1-1s1,0.4,1,1c0,2.4,5.3,5,13,5s13-2.6,13-5c0-0.6,0.4-1,1-1
			s1,0.4,1,1v6C30,45,23.5,48,15,48z M2,38.6V41c0,2.4,5.3,5,13,5s13-2.6,13-5v-2.4c-2.5,2.1-7.3,3.4-13,3.4S4.6,40.7,2,38.6z"/>
		<rect x="20" y="16" class="st0" width="2" height="2"/>
		<rect x="8" y="16" class="st0" width="2" height="2"/>
		<path class="st0" d="M16,20h-2v-4h-1v-2h2c0.6,0,1,0.4,1,1V20z"/>
		<rect x="38" y="6" class="st0" width="2" height="2"/>
		<rect x="26" y="6" class="st0" width="2" height="2"/>
		<path class="st0" d="M34,10h-2V6h-1V4h2c0.6,0,1,0.4,1,1V10z"/>
		<path class="st0" d="M33,14c-1.4,0-2.8-0.1-4.1-0.3l0.3-2c1.3,0.2,2.6,0.3,3.9,0.3c7.7,0,13-2.6,13-5s-5.3-5-13-5S20,4.6,20,7
			c0,0.5,0.2,1,0.6,1.4L19,9.6C18.4,8.9,18,8,18,7c0-4,6.5-7,15-7s15,3,15,7S41.5,14,33,14z"/>
		<path class="st0" d="M33,26c-0.7,0-1.4,0-2.1-0.1l0.1-2c0.6,0,1.3,0.1,1.9,0.1c7.7,0,13-2.6,13-5v-2.4c-2.5,2.1-7.3,3.4-13,3.4
			c-0.7,0-1.4,0-2.1-0.1l0.1-2c0.6,0,1.3,0.1,1.9,0.1c7.7,0,13-2.6,13-5c0-0.6,0.4-1,1-1s1,0.4,1,1v6C48,23,41.5,26,33,26z"/>
		<path class="st0" d="M33,38c-0.7,0-1.4,0-2.1-0.1l0.1-2c0.6,0,1.3,0.1,1.9,0.1c7.7,0,13-2.6,13-5v-2.4c-2.5,2.1-7.3,3.4-13,3.4
			c-0.7,0-1.4,0-2.1-0.1l0.1-2c0.6,0,1.3,0.1,1.9,0.1c7.7,0,13-2.6,13-5c0-0.6,0.4-1,1-1s1,0.4,1,1v6C48,35,41.5,38,33,38z"/>
		<rect x="46" y="19" class="st0" width="2" height="6"/>
		<rect x="46" y="7" class="st0" width="2" height="6"/>
	</g>
</g>
</svg>
