<?xml version="1.0" encoding="utf-8"?>
<!-- Generator: Adobe Illustrator 24.0.1, SVG Export Plug-In . SVG Version: 6.00 Build 0)  -->
<svg version="1.1" id="Layer_1" xmlns="http://www.w3.org/2000/svg" xmlns:xlink="http://www.w3.org/1999/xlink" x="0px" y="0px"
	 viewBox="0 0 48 48" style="enable-background:new 0 0 48 48;" xml:space="preserve">
<style type="text/css">
	.st0{fill:#FFFFFF;}
</style>
<title>Asset 11ldpi</title>
<g id="Layer_2_1_">
	<g id="layer_1-2">
		<path class="st0" d="M10,35c-2.8,0-5-2.7-5-6c-0.2-2.6,1.8-4.8,4.3-5c0.2,0,0.4,0,0.7,0c2.6-0.2,4.8,1.8,5,4.3c0,0.2,0,0.4,0,0.7
			C15,32.3,12.8,35,10,35z M10,26c-1.5-0.2-2.8,0.9-3,2.4c0,0.2,0,0.4,0,0.6c0,2.2,1.4,4,3,4s3-1.8,3-4c0.2-1.5-0.9-2.8-2.4-3
			C10.4,26,10.2,26,10,26z"/>
		<path class="st0" d="M2,48H0v-9.4c0-2.6,1.9-4.7,4.4-5L9.9,33l0.2,2l-5.4,0.6c-1.5,0.2-2.7,1.5-2.7,3L2,48z"/>
		<rect x="4" y="39" class="st0" width="2" height="9"/>
		<path class="st0" d="M20,48h-2v-9.4c0-1.5-1.1-2.8-2.7-3L9.9,35l0.2-2l5.4,0.6c2.5,0.3,4.5,2.4,4.4,5V48z"/>
		<rect x="14" y="39" class="st0" width="2" height="9"/>
		<rect x="9" y="38" class="st0" width="2" height="2"/>
		<rect x="9" y="42" class="st0" width="2" height="2"/>
		<rect x="9" y="46" class="st0" width="2" height="2"/>
		<path class="st0" d="M38,35c-2.8,0-5-2.7-5-6c-0.2-2.6,1.8-4.8,4.3-5c0.2,0,0.4,0,0.7,0c2.6-0.2,4.8,1.8,5,4.3c0,0.2,0,0.4,0,0.7
			C43,32.3,40.8,35,38,35z M38,26c-1.5-0.2-2.8,0.9-3,2.4c0,0.2,0,0.4,0,0.6c0,2.2,1.3,4,3,4s3-1.8,3-4c0.2-1.5-0.9-2.8-2.4-3
			C38.4,26,38.2,26,38,26z"/>
		<path class="st0" d="M30,48h-2v-9.4c0-2.6,1.9-4.7,4.5-5l5.4-0.6l0.2,2l-5.4,0.6c-1.5,0.2-2.7,1.5-2.7,3L30,48z"/>
		<rect x="32" y="39" class="st0" width="2" height="9"/>
		<path class="st0" d="M48,48h-2v-9.4c0-1.5-1.1-2.8-2.7-3L37.9,35l0.2-2l5.4,0.6c2.5,0.3,4.5,2.4,4.5,5V48z"/>
		<rect x="42" y="39" class="st0" width="2" height="9"/>
		<path class="st0" d="M24,33c-0.4,0-0.7-0.2-0.9-0.5l-3.6-7.3c-6.7-2.5-10.2-10-7.7-16.7s10-10.2,16.7-7.7s10.2,10,7.7,16.7
			c-1.3,3.5-4.1,6.3-7.7,7.7l-3.6,7.3C24.7,32.8,24.4,33,24,33z M24,2c-6.1,0-11,4.9-11,11c0,4.7,3,8.9,7.5,10.4
			c0.2,0.1,0.5,0.3,0.6,0.5l2.9,5.8l2.9-5.8c0.1-0.2,0.3-0.4,0.6-0.5c5.8-1.9,8.8-8.2,6.9-13.9C32.9,5,28.7,2,24,2z"/>
		<path class="st0" d="M24,20c-2.2,0-4-1.8-4-4h2c0,1.1,0.9,2,2,2s2-0.9,2-2s-0.9-2-2-2c-2.2,0-4-1.8-4-4s1.8-4,4-4s4,1.8,4,4h-2
			c0-1.1-0.9-2-2-2s-2,0.9-2,2s0.9,2,2,2c2.2,0,4,1.8,4,4S26.2,20,24,20z"/>
		<rect x="23" y="19" class="st0" width="2" height="3"/>
		<rect x="23" y="4" class="st0" width="2" height="3"/>
		<rect x="30" y="12" class="st0" width="2" height="2"/>
		<rect x="16" y="12" class="st0" width="2" height="2"/>
	</g>
</g>
</svg>
