<?xml version="1.0" encoding="utf-8"?>
<!-- Generator: Adobe Illustrator 24.0.1, SVG Export Plug-In . SVG Version: 6.00 Build 0)  -->
<svg version="1.1" id="Layer_1" xmlns="http://www.w3.org/2000/svg" xmlns:xlink="http://www.w3.org/1999/xlink" x="0px" y="0px"
	 viewBox="0 0 48 48" style="enable-background:new 0 0 48 48;" xml:space="preserve">
<style type="text/css">
	.st0{fill:#FFFFFF;}
</style>
<title>Asset 28ldpi</title>
<g id="Layer_2_1_">
	<g id="layer_1-2">
		<rect y="46" class="st0" width="48" height="2"/>
		<path class="st0" d="M16,44H1c-0.3,0-0.6-0.2-0.8-0.4C0,43.3,0,43,0.1,42.7l4-11C4.2,31.3,4.6,31,5,31h7c0.4,0,0.8,0.3,0.9,0.7
			l4,11c0.1,0.3,0.1,0.6-0.1,0.9C16.6,43.8,16.3,44,16,44z M2.4,42h12.1l-3.3-9H5.7L2.4,42z"/>
		<path class="st0" d="M24,33H14v-2h8.6l-3.3-9h-5.6L9.9,32.3l-1.9-0.7l4-11c0.1-0.4,0.5-0.7,0.9-0.7h7c0.4,0,0.8,0.3,0.9,0.7l4,11
			c0.1,0.3,0.1,0.6-0.1,0.9C24.6,32.8,24.3,33,24,33z"/>
		<path class="st0" d="M39,33h-9v-2h7.6l-3.3-9H22v-2h13c0.4,0,0.8,0.3,0.9,0.7l4,11c0.1,0.3,0.1,0.6-0.1,0.9
			C39.6,32.8,39.3,33,39,33z"/>
		<path class="st0" d="M30.1,21.3L26.3,11h-4.6l-3.8,10.3l-1.9-0.7l4-11C20.2,9.3,20.6,9,21,9h6c0.4,0,0.8,0.3,0.9,0.7l4,11
			L30.1,21.3z"/>
		<path class="st0" d="M32,44H16c-0.3,0-0.6-0.2-0.8-0.4C15,43.3,15,43,15.1,42.7l3.3-9l1.9,0.7L17.4,42h13.1l-3.3-9H24
			c-0.3,0-0.6-0.2-0.8-0.4C23,32.3,23,32,23.1,31.7l3.3-9l1.9,0.7L25.4,31H28c0.4,0,0.8,0.3,0.9,0.7l4,11c0.1,0.3,0.1,0.6-0.1,0.9
			C32.6,43.8,32.3,44,32,44z"/>
		<path class="st0" d="M47,44H32c-0.3,0-0.6-0.2-0.8-0.4C31,43.3,31,43,31.1,42.7l3.3-9l1.9,0.7L33.4,42h12.1l-3.3-9H41v-2h2
			c0.4,0,0.8,0.3,0.9,0.7l4,11c0.1,0.3,0.1,0.6-0.1,0.9C47.6,43.8,47.3,44,47,44z"/>
		<rect x="34" y="4" class="st0" width="3" height="2"/>
		<rect x="27" y="4" class="st0" width="3" height="2"/>
		<rect x="31" class="st0" width="2" height="3"/>
		<rect x="31" y="7" class="st0" width="2" height="3"/>
		<rect x="45" y="17" class="st0" width="3" height="2"/>
		<rect x="38" y="17" class="st0" width="3" height="2"/>
		<rect x="42" y="13" class="st0" width="2" height="3"/>
		<rect x="42" y="20" class="st0" width="2" height="3"/>
		<rect x="10" y="12" class="st0" width="3" height="2"/>
		<rect x="3" y="12" class="st0" width="3" height="2"/>
		<rect x="7" y="8" class="st0" width="2" height="3"/>
		<rect x="7" y="15" class="st0" width="2" height="3"/>
	</g>
</g>
</svg>
