<?xml version="1.0" encoding="utf-8"?>
<!-- Generator: Adobe Illustrator 24.0.1, SVG Export Plug-In . SVG Version: 6.00 Build 0)  -->
<svg version="1.1" id="Layer_1" xmlns="http://www.w3.org/2000/svg" xmlns:xlink="http://www.w3.org/1999/xlink" x="0px" y="0px"
	 viewBox="0 0 36 48" style="enable-background:new 0 0 36 48;" xml:space="preserve">
<style type="text/css">
	.st0{fill:#FFFFFF;}
</style>
<title>Asset 29ldpi</title>
<g id="Layer_2_1_">
	<g id="layer_1-2">
		<path class="st0" d="M32,48H4c-2.2,0-4-1.8-4-4V4c0-2.2,1.8-4,4-4h28c2.2,0,4,1.8,4,4v40C36,46.2,34.2,48,32,48z M4,2
			C2.9,2,2,2.9,2,4v40c0,1.1,0.9,2,2,2h28c1.1,0,2-0.9,2-2V4c0-1.1-0.9-2-2-2H4z"/>
		<path class="st0" d="M30,14H6c-1.1,0-2-0.9-2-2V6c0-1.1,0.9-2,2-2h24c1.1,0,2,0.9,2,2v6C32,13.1,31.1,14,30,14z M6,6v6h24V6H6z"/>
		<rect x="26" y="8" class="st0" width="2" height="2"/>
		<rect x="22" y="8" class="st0" width="2" height="2"/>
		<rect x="18" y="8" class="st0" width="2" height="2"/>
		<path class="st0" d="M18,44c-2.2,0-4-1.8-4-4s1.8-4,4-4s4,1.8,4,4S20.2,44,18,44z M18,38c-1.1,0-2,0.9-2,2s0.9,2,2,2s2-0.9,2-2
			S19.1,38,18,38z"/>
		<path class="st0" d="M8,44c-2.2,0-4-1.8-4-4s1.8-4,4-4s4,1.8,4,4S10.2,44,8,44z M8,38c-1.1,0-2,0.9-2,2s0.9,2,2,2s2-0.9,2-2
			S9.1,38,8,38z"/>
		<path class="st0" d="M18,34c-2.2,0-4-1.8-4-4s1.8-4,4-4s4,1.8,4,4S20.2,34,18,34z M18,28c-1.1,0-2,0.9-2,2s0.9,2,2,2s2-0.9,2-2
			S19.1,28,18,28z"/>
		<path class="st0" d="M8,34c-2.2,0-4-1.8-4-4s1.8-4,4-4s4,1.8,4,4S10.2,34,8,34z M8,28c-1.1,0-2,0.9-2,2s0.9,2,2,2s2-0.9,2-2
			S9.1,28,8,28z"/>
		<path class="st0" d="M18,24c-2.2,0-4-1.8-4-4s1.8-4,4-4s4,1.8,4,4S20.2,24,18,24z M18,18c-1.1,0-2,0.9-2,2s0.9,2,2,2s2-0.9,2-2
			S19.1,18,18,18z"/>
		<path class="st0" d="M8,24c-2.2,0-4-1.8-4-4s1.8-4,4-4s4,1.8,4,4S10.2,24,8,24z M8,18c-1.1,0-2,0.9-2,2s0.9,2,2,2s2-0.9,2-2
			S9.1,18,8,18z"/>
		<path class="st0" d="M28,24c-2.2,0-4-1.8-4-4s1.8-4,4-4s4,1.8,4,4S30.2,24,28,24z M28,18c-1.1,0-2,0.9-2,2s0.9,2,2,2s2-0.9,2-2
			S29.1,18,28,18z"/>
		<path class="st0" d="M28,44c-2.2,0-4-1.8-4-4V30c0-2.2,1.8-4,4-4s4,1.8,4,4v10C32,42.2,30.2,44,28,44z M28,28c-1.1,0-2,0.9-2,2v10
			c0,1.1,0.9,2,2,2s2-0.9,2-2V30C30,28.9,29.1,28,28,28z"/>
	</g>
</g>
</svg>
