<?xml version="1.0" encoding="utf-8"?>
<!-- Generator: Adobe Illustrator 24.0.1, SVG Export Plug-In . SVG Version: 6.00 Build 0)  -->
<svg version="1.1" id="Layer_1" xmlns="http://www.w3.org/2000/svg" xmlns:xlink="http://www.w3.org/1999/xlink" x="0px" y="0px"
	 viewBox="0 0 48 48" style="enable-background:new 0 0 48 48;" xml:space="preserve">
<style type="text/css">
	.st0{fill:#FFFFFF;}
</style>
<title>Asset 2ldpi</title>
<g id="Layer_2_1_">
	<g id="layer_1-2">
		<path class="st0" d="M17,40c-0.6,0-1-0.4-1-1c0-0.1,0-0.3,0.1-0.4l4-10c0.2-0.5,0.8-0.8,1.3-0.6c0.1,0.1,0.2,0.1,0.3,0.2l6,6
			c0.4,0.4,0.4,1,0,1.4c-0.1,0.1-0.2,0.2-0.3,0.2l-10,4C17.3,40,17.1,40,17,40z M21.4,30.8l-2.6,6.4l6.4-2.6L21.4,30.8z"/>
		<path class="st0" d="M27,36c-0.3,0-0.5-0.1-0.7-0.3l-6-6c-0.4-0.4-0.4-1,0-1.4c0,0,0,0,0,0l20-20c0.4-0.4,1-0.4,1.4,0c0,0,0,0,0,0
			l6,6c0.4,0.4,0.4,1,0,1.4c0,0,0,0,0,0l-20,20C27.5,35.9,27.3,36,27,36z M22.4,29l4.6,4.6L45.6,15L41,10.4L22.4,29z"/>
		<rect x="27" y="23.8" transform="matrix(0.7071 -0.7071 0.7071 0.7071 -11.6 28.0021)" class="st0" width="2" height="8.5"/>
		<rect x="39" y="11.8" transform="matrix(0.7071 -0.7071 0.7071 0.7071 0.4004 32.9725)" class="st0" width="2" height="8.5"/>
		<rect x="6" y="33" class="st0" width="10" height="2"/>
		<rect x="6" y="38" class="st0" width="11" height="2"/>
		<rect x="6" y="28" class="st0" width="12" height="2"/>
		<rect x="16" y="23" class="st0" width="6" height="2"/>
		<rect x="16" y="18" class="st0" width="10" height="2"/>
		<rect x="16" y="8" class="st0" width="10" height="2"/>
		<rect x="16" y="13" class="st0" width="5" height="2"/>
		<rect x="23" y="13" class="st0" width="8" height="2"/>
		<path class="st0" d="M29,48H1c-0.6,0-1-0.4-1-1V1c0-0.6,0.4-1,1-1h36c0.6,0,1,0.4,1,1v8h-2V2H2v44h26.6l7.4-7.4V29h2v10
			c0,0.3-0.1,0.5-0.3,0.7l-8,8C29.5,47.9,29.3,48,29,48z"/>
		<path class="st0" d="M29,48c-0.1,0-0.3,0-0.4-0.1C28.2,47.8,28,47.4,28,47v-8c0-0.6,0.4-1,1-1h8c0.4,0,0.8,0.2,0.9,0.6
			c0.2,0.4,0.1,0.8-0.2,1.1l-8,8C29.5,47.9,29.3,48,29,48z M30,40v4.6l4.6-4.6H30z"/>
		<path class="st0" d="M10,24c-2.2,0-4-1.8-4-4h2c0,1.1,0.9,2,2,2s2-0.9,2-2s-0.9-2-2-2c-2.2,0-4-1.8-4-4s1.8-4,4-4s4,1.8,4,4h-2
			c0-1.1-0.9-2-2-2s-2,0.9-2,2s0.9,2,2,2c2.2,0,4,1.8,4,4S12.2,24,10,24z"/>
		<rect x="9" y="23" class="st0" width="2" height="3"/>
		<rect x="9" y="8" class="st0" width="2" height="3"/>
	</g>
</g>
</svg>
