<?xml version="1.0" encoding="utf-8"?>
<!-- Generator: Adobe Illustrator 24.0.1, SVG Export Plug-In . SVG Version: 6.00 Build 0)  -->
<svg version="1.1" id="Layer_1" xmlns="http://www.w3.org/2000/svg" xmlns:xlink="http://www.w3.org/1999/xlink" x="0px" y="0px"
	 viewBox="0 0 48 48" style="enable-background:new 0 0 48 48;" xml:space="preserve">
<style type="text/css">
	.st0{fill:#FFFFFF;}
</style>
<title>Asset 30ldpi</title>
<g id="Layer_2_1_">
	<g id="layer_1-2">
		<rect x="32" y="7" class="st0" width="2" height="4"/>
		<path class="st0" d="M33,48c-0.2,0-0.4-0.1-0.6-0.2L29,45.3l-3.4,2.5c-0.4,0.3-0.8,0.3-1.2,0L21,45.3l-3.4,2.5
			c-0.4,0.3-0.8,0.3-1.2,0L13,45.3l-3.4,2.5c-0.4,0.3-0.8,0.3-1.2,0L5,45.3l-3.4,2.5c-0.3,0.2-0.7,0.2-1,0.1C0.2,47.7,0,47.4,0,47V7
			c0-3.9,3.1-7,7-7v2C4.2,2,2,4.2,2,7v38l2.4-1.8c0.4-0.3,0.8-0.3,1.2,0L9,45.8l3.4-2.5c0.4-0.3,0.8-0.3,1.2,0l3.4,2.5l3.4-2.5
			c0.4-0.3,0.8-0.3,1.2,0l3.4,2.5l3.4-2.5c0.4-0.3,0.8-0.3,1.2,0L32,45v-8h2v10c0,0.4-0.2,0.7-0.5,0.9C33.3,48,33.2,48,33,48z"/>
		<path class="st0" d="M39,8H13c-0.6,0-1-0.4-1-1c0-2.8-2.2-5-5-5C6.4,2,6,1.6,6,1s0.4-1,1-1h26c3.9,0,7,3.1,7,7l0,0
			C40,7.6,39.6,8,39,8z M13.9,6h24c-0.5-2.3-2.5-4-4.9-4H11.9C13,3.1,13.7,4.5,13.9,6z"/>
		<path class="st0" d="M36,31c-2.2,0-4-1.8-4-4h2c0,1.1,0.9,2,2,2s2-0.9,2-2s-0.9-2-2-2c-2.2,0-4-1.8-4-4s1.8-4,4-4s4,1.8,4,4h-2
			c0-1.1-0.9-2-2-2s-2,0.9-2,2s0.9,2,2,2c2.2,0,4,1.8,4,4S38.2,31,36,31z"/>
		<rect x="35" y="30" class="st0" width="2" height="3"/>
		<rect x="35" y="15" class="st0" width="2" height="3"/>
		<rect x="42" y="23" class="st0" width="2" height="2"/>
		<rect x="28" y="23" class="st0" width="2" height="2"/>
		<path class="st0" d="M25,41c-0.1,0-0.2,0-0.4-0.1C24.3,40.8,24,40.4,24,40V24c0-6.6,5.4-12,12-12c6.6,0,12,5.4,12,12
			c0,6.6-5.4,12-12,12c-1.7,0-3.4-0.4-5-1.1l-5.3,5.8C25.5,40.9,25.3,41,25,41z M36,14c-5.5,0-10,4.5-10,10v13.4l4-4.4
			c0.3-0.3,0.8-0.4,1.2-0.2c4.9,2.6,10.9,0.8,13.5-4.1s0.8-10.9-4.1-13.5C39.3,14.4,37.7,14,36,14z"/>
		<rect x="5" y="17" class="st0" width="4" height="2"/>
		<rect x="5" y="12" class="st0" width="11" height="2"/>
		<rect x="12" y="17" class="st0" width="11" height="2"/>
		<rect x="5" y="22" class="st0" width="4" height="2"/>
		<rect x="12" y="22" class="st0" width="8" height="2"/>
		<rect x="5" y="27" class="st0" width="4" height="2"/>
		<rect x="12" y="27" class="st0" width="10" height="2"/>
		<rect x="5" y="32" class="st0" width="4" height="2"/>
		<rect x="12" y="32" class="st0" width="6" height="2"/>
		<rect x="5" y="37" class="st0" width="4" height="2"/>
		<rect x="12" y="37" class="st0" width="10" height="2"/>
	</g>
</g>
</svg>
