<?xml version="1.0" encoding="utf-8"?>
<!-- Generator: Adobe Illustrator 24.0.1, SVG Export Plug-In . SVG Version: 6.00 Build 0)  -->
<svg version="1.1" id="Layer_1" xmlns="http://www.w3.org/2000/svg" xmlns:xlink="http://www.w3.org/1999/xlink" x="0px" y="0px"
	 viewBox="0 0 48 48" style="enable-background:new 0 0 48 48;" xml:space="preserve">
<style type="text/css">
	.st0{fill:#FFFFFF;}
</style>
<title>Asset 31ldpi</title>
<g id="Layer_2_1_">
	<g id="layer_1-2">
		<rect x="5" y="12" class="st0" width="4" height="2"/>
		<rect x="5" y="6" class="st0" width="4" height="2"/>
		<rect x="5" y="18" class="st0" width="4" height="2"/>
		<rect x="5" y="24" class="st0" width="4" height="2"/>
		<rect x="5" y="30" class="st0" width="4" height="2"/>
		<rect x="5" y="36" class="st0" width="4" height="2"/>
		<rect x="4" class="st0" width="2" height="48"/>
		<rect y="42" class="st0" width="48" height="2"/>
		<rect x="43" y="32" class="st0" width="2" height="11"/>
		<rect x="43" class="st0" width="2" height="30"/>
		<rect x="37" y="11" class="st0" width="2" height="32"/>
		<rect x="31" y="27" class="st0" width="2" height="16"/>
		<rect x="31" y="6" class="st0" width="2" height="19"/>
		<rect x="25" y="21" class="st0" width="2" height="22"/>
		<rect x="19" y="34" class="st0" width="2" height="9"/>
		<rect x="19" y="14" class="st0" width="2" height="18"/>
		<rect x="13" y="26" class="st0" width="2" height="17"/>
	</g>
</g>
</svg>
