<?xml version="1.0" encoding="utf-8"?>
<!-- Generator: Adobe Illustrator 24.0.1, SVG Export Plug-In . SVG Version: 6.00 Build 0)  -->
<svg version="1.1" id="Layer_1" xmlns="http://www.w3.org/2000/svg" xmlns:xlink="http://www.w3.org/1999/xlink" x="0px" y="0px"
	 viewBox="0 0 48 48" style="enable-background:new 0 0 48 48;" xml:space="preserve">
<style type="text/css">
	.st0{fill:#FFFFFF;}
</style>
<title>Asset 32ldpi</title>
<g id="Layer_2_1_">
	<g id="layer_1-2">
		<path class="st0" d="M47,48H1c-0.6,0-1-0.4-1-1V21h2v25h44V21h2v26C48,47.6,47.6,48,47,48z"/>
		<path class="st0" d="M47,48H1c-0.4,0-0.8-0.3-0.9-0.7c-0.1-0.4,0-0.9,0.3-1.1l23-18c0.4-0.3,0.9-0.3,1.2,0l23,18
			c0.4,0.3,0.5,0.7,0.4,1.1C47.9,47.8,47.4,48,47,48z M3.9,46h40.2L24,30.3L3.9,46z"/>
		<path class="st0" d="M31,34.8l-1.2-1.6L45.4,21l-8-6.3l1.2-1.6l9,7c0.4,0.3,0.5,1,0.2,1.4c-0.1,0.1-0.1,0.1-0.2,0.2L31,34.8z"/>
		<path class="st0" d="M17,34.8l-16.6-13c-0.4-0.3-0.5-1-0.2-1.4c0.1-0.1,0.1-0.1,0.2-0.2l9-7l1.2,1.6l-8,6.2l15.6,12.2L17,34.8z"/>
		<path class="st0" d="M39,28h-2V2H11v26H9V1c0-0.6,0.4-1,1-1h28c0.6,0,1,0.4,1,1V28z"/>
		<path class="st0" d="M34,32h-2V10.9C30,10.5,28.5,9,28.1,7h-8.2c-0.4,2-1.9,3.5-3.9,3.9V32h-2V10c0-0.6,0.4-1,1-1c1.7,0,3-1.3,3-3
			c0-0.6,0.4-1,1-1h10c0.6,0,1,0.4,1,1c0,1.7,1.3,3,3,3c0.6,0,1,0.4,1,1V32z"/>
		<path class="st0" d="M24,25c-2.2,0-4-1.8-4-4h2c0,1.1,0.9,2,2,2s2-0.9,2-2s-0.9-2-2-2c-2.2,0-4-1.8-4-4s1.8-4,4-4s4,1.8,4,4h-2
			c0-1.1-0.9-2-2-2s-2,0.9-2,2s0.9,2,2,2c2.2,0,4,1.8,4,4S26.2,25,24,25z"/>
		<rect x="23" y="9" class="st0" width="2" height="3"/>
		<rect x="23" y="24" class="st0" width="2" height="3"/>
	</g>
</g>
</svg>
