<?xml version="1.0" encoding="utf-8"?>
<!-- Generator: Adobe Illustrator 24.0.1, SVG Export Plug-In . SVG Version: 6.00 Build 0)  -->
<svg version="1.1" id="Layer_1" xmlns="http://www.w3.org/2000/svg" xmlns:xlink="http://www.w3.org/1999/xlink" x="0px" y="0px"
	 viewBox="0 0 48 48" style="enable-background:new 0 0 48 48;" xml:space="preserve">
<style type="text/css">
	.st0{fill:#FFFFFF;}
</style>
<title>Asset 33ldpi</title>
<g id="Layer_2_1_">
	<g id="layer_1-2">
		<path class="st0" d="M1,36c-0.1,0-0.2,0-0.2,0C0.3,35.9,0,35.5,0,35C0,20.1,12.1,8,27,8h3V1c0-0.6,0.4-1,1-1
			c0.2,0,0.4,0.1,0.6,0.2l16,12c0.4,0.3,0.5,1,0.2,1.4c-0.1,0.1-0.1,0.1-0.2,0.2l-16,12c-0.4,0.3-1.1,0.2-1.4-0.2
			C30.1,25.4,30,25.2,30,25v-7h-2.7C17.1,18,7.7,23.8,3.2,32.9l-1.3,2.5C1.7,35.8,1.4,36,1,36z M27,10C15.1,10,4.9,18.4,2.5,30
			c5.2-8.7,14.6-14,24.8-14H31c0.6,0,1,0.4,1,1v6l13.3-10L32,3v6c0,0.6-0.4,1-1,1H27z"/>
		<path class="st0" d="M41,48H1c-0.6,0-1-0.4-1-1v-9h2v8h38V24h-2v-2h3c0.6,0,1,0.4,1,1v24C42,47.6,41.6,48,41,48z"/>
		<rect x="15" y="22" class="st0" width="14" height="2"/>
		<path class="st0" d="M32,39c-2.2,0-4-1.8-4-4s1.8-4,4-4s4,1.8,4,4S34.2,39,32,39z M32,33c-1.1,0-2,0.9-2,2s0.9,2,2,2
			c1.1,0,2-0.9,2-2S33.1,33,32,33z"/>
		<path class="st0" d="M10,39c-2.2,0-4-1.8-4-4s1.8-4,4-4s4,1.8,4,4S12.2,39,10,39z M10,33c-1.1,0-2,0.9-2,2s0.9,2,2,2s2-0.9,2-2
			S11.1,33,10,33z"/>
		<path class="st0" d="M21,42c-2.2,0-4-1.8-4-4h2c0,1.1,0.9,2,2,2s2-0.9,2-2s-0.9-2-2-2c-2.2,0-4-1.8-4-4s1.8-4,4-4s4,1.8,4,4h-2
			c0-1.1-0.9-2-2-2s-2,0.9-2,2c0,1.1,0.9,2,2,2c2.2,0,4,1.8,4,4S23.2,42,21,42z"/>
		<rect x="20" y="41" class="st0" width="2" height="3"/>
		<rect x="20" y="26" class="st0" width="2" height="3"/>
		<rect x="4" y="42" class="st0" width="2" height="2"/>
		<rect x="36" y="26" class="st0" width="2" height="2"/>
		<rect x="36" y="42" class="st0" width="2" height="2"/>
	</g>
</g>
</svg>
