<?xml version="1.0" encoding="utf-8"?>
<!-- Generator: Adobe Illustrator 24.0.1, SVG Export Plug-In . SVG Version: 6.00 Build 0)  -->
<svg version="1.1" id="Layer_1" xmlns="http://www.w3.org/2000/svg" xmlns:xlink="http://www.w3.org/1999/xlink" x="0px" y="0px"
	 viewBox="0 0 48 48" style="enable-background:new 0 0 48 48;" xml:space="preserve">
<style type="text/css">
	.st0{fill:#FFFFFF;}
</style>
<title>Asset 34ldpi</title>
<g id="Layer_2_1_">
	<g id="layer_1-2">
		<path class="st0" d="M46,48H2c-1.1,0-2-0.9-2-2V20c0-1.1,0.9-2,2-2h44c1.1,0,2,0.9,2,2v26C48,47.1,47.1,48,46,48z M2,20v26h44V20
			H2z"/>
		<path class="st0" d="M12,20H6c-0.6,0-1-0.4-1-1v-8C5,4.9,9.9,0,16,0h16c6.1,0,11,4.9,11,11v3c0,0.6-0.4,1-1,1h-6c-0.6,0-1-0.4-1-1
			v-2c0-2.2-1.8-4-4-4H17c-2.2,0-4,1.8-4,4v7C13,19.6,12.6,20,12,20z M7,18h4v-6c0-3.3,2.7-6,6-6h14c3.3,0,6,2.7,6,6v1h4v-2
			c0-5-4-9-9-9H16c-5,0-9,4-9,9V18z"/>
		<path class="st0" d="M16,43H8c-0.3,0-0.6-0.1-0.8-0.4C7,42.4,6.9,42.1,7,41.8l1.5-6.1c-2-1.9-2.1-5.1-0.2-7.1s5.1-2.1,7.1-0.2
			s2.1,5.1,0.2,7.1c-0.1,0.1-0.1,0.1-0.2,0.2l1.6,6.1c0.1,0.3,0,0.6-0.2,0.9C16.6,42.9,16.3,43,16,43z M9.3,41h5.4l-1.4-5.5
			c-0.1-0.4,0.1-0.8,0.4-1.1c1.4-1,1.7-2.8,0.7-4.2s-2.8-1.7-4.2-0.7c-1.4,1-1.7,2.8-0.7,4.2c0.2,0.3,0.4,0.5,0.7,0.7
			c0.3,0.2,0.5,0.7,0.4,1.1L9.3,41z"/>
		<path class="st0" d="M47,33H19v-2h27v-5H2v5h3v2H1c-0.6,0-1-0.4-1-1v-7c0-0.6,0.4-1,1-1h46c0.6,0,1,0.4,1,1v7
			C48,32.6,47.6,33,47,33z"/>
		<path class="st0" d="M42,43H32c-0.6,0-1-0.4-1-1v-5c0-0.6,0.4-1,1-1h10c0.6,0,1,0.4,1,1v5C43,42.6,42.6,43,42,43z M33,41h8v-3h-8
			V41z"/>
		<rect x="19" y="36" class="st0" width="2" height="2"/>
		<rect x="23" y="36" class="st0" width="2" height="2"/>
		<rect x="27" y="36" class="st0" width="2" height="2"/>
		<rect x="19" y="41" class="st0" width="8" height="2"/>
	</g>
</g>
</svg>
