<?xml version="1.0" encoding="utf-8"?>
<!-- Generator: Adobe Illustrator 24.0.1, SVG Export Plug-In . SVG Version: 6.00 Build 0)  -->
<svg version="1.1" id="Layer_1" xmlns="http://www.w3.org/2000/svg" xmlns:xlink="http://www.w3.org/1999/xlink" x="0px" y="0px"
	 viewBox="0 0 48 34" style="enable-background:new 0 0 48 34;" xml:space="preserve">
<style type="text/css">
	.st0{fill:#FFFFFF;}
</style>
<title>Asset 35ldpi</title>
<g id="Layer_2_1_">
	<g id="layer_1-2">
		<path class="st0" d="M45,34H3c-1.7,0-3-1.3-3-3V3c0-1.7,1.3-3,3-3h42c1.7,0,3,1.3,3,3v28C48,32.7,46.7,34,45,34z M3,2
			C2.4,2,2,2.4,2,3v28c0,0.6,0.4,1,1,1h42c0.6,0,1-0.4,1-1V3c0-0.6-0.4-1-1-1H3z"/>
		<path class="st0" d="M18,16H8c-1.1,0-2-0.9-2-2V8c0-1.1,0.9-2,2-2h10c1.1,0,2,0.9,2,2v6C20,15.1,19.1,16,18,16z M8,8v6h10V8H8z"/>
		<rect x="22" y="26" class="st0" width="8" height="2"/>
		<rect x="6" y="26" class="st0" width="13" height="2"/>
		<rect x="6" y="20" class="st0" width="2" height="2"/>
		<rect x="10" y="20" class="st0" width="2" height="2"/>
		<rect x="14" y="20" class="st0" width="2" height="2"/>
		<rect x="19" y="20" class="st0" width="2" height="2"/>
		<rect x="23" y="20" class="st0" width="2" height="2"/>
		<rect x="27" y="20" class="st0" width="2" height="2"/>
		<rect x="32" y="20" class="st0" width="2" height="2"/>
		<rect x="36" y="20" class="st0" width="2" height="2"/>
		<rect x="40" y="20" class="st0" width="2" height="2"/>
		<rect x="12" y="7" class="st0" width="2" height="8"/>
		<rect x="7" y="10" class="st0" width="3" height="2"/>
		<rect x="16" y="10" class="st0" width="3" height="2"/>
	</g>
</g>
</svg>
