<?xml version="1.0" encoding="utf-8"?>
<!-- Generator: Adobe Illustrator 24.0.1, SVG Export Plug-In . SVG Version: 6.00 Build 0)  -->
<svg version="1.1" id="Layer_1" xmlns="http://www.w3.org/2000/svg" xmlns:xlink="http://www.w3.org/1999/xlink" x="0px" y="0px"
	 viewBox="0 0 48 34" style="enable-background:new 0 0 48 34;" xml:space="preserve">
<style type="text/css">
	.st0{fill:#FFFFFF;}
</style>
<title>Asset 36ldpi</title>
<g id="Layer_2_1_">
	<g id="layer_1-2">
		<path class="st0" d="M45,34H3c-1.7,0-3-1.3-3-3V3c0-1.7,1.3-3,3-3h42c1.7,0,3,1.3,3,3v28C48,32.7,46.7,34,45,34z M3,2
			C2.4,2,2,2.4,2,3v28c0,0.6,0.4,1,1,1h42c0.6,0,1-0.4,1-1V3c0-0.6-0.4-1-1-1H3z"/>
		<rect x="16" y="6" class="st0" width="31" height="2"/>
		<rect x="1" y="6" class="st0" width="13" height="2"/>
		<rect x="1" y="13" class="st0" width="43" height="2"/>
		<rect x="6" y="19" class="st0" width="10" height="2"/>
		<rect x="18" y="19" class="st0" width="2" height="2"/>
		<rect x="22" y="19" class="st0" width="2" height="2"/>
		<rect x="26" y="19" class="st0" width="2" height="2"/>
		<rect x="6" y="23" class="st0" width="8" height="2"/>
		<rect x="6" y="27" class="st0" width="15" height="2"/>
		<rect x="16" y="23" class="st0" width="8" height="2"/>
	</g>
</g>
</svg>
