<?xml version="1.0" encoding="utf-8"?>
<!-- Generator: Adobe Illustrator 24.0.1, SVG Export Plug-In . SVG Version: 6.00 Build 0)  -->
<svg version="1.1" id="Layer_1" xmlns="http://www.w3.org/2000/svg" xmlns:xlink="http://www.w3.org/1999/xlink" x="0px" y="0px"
	 viewBox="0 0 48 48" style="enable-background:new 0 0 48 48;" xml:space="preserve">
<style type="text/css">
	.st0{fill:#FFFFFF;}
</style>
<title>Asset 12ldpi</title>
<g id="Layer_2_1_">
	<g id="layer_1-2">
		<path class="st0" d="M36,19c-2.2,0-4-1.8-4-4h2c0,1.1,0.9,2,2,2s2-0.9,2-2s-0.9-2-2-2c-2.2,0-4-1.8-4-4s1.8-4,4-4s4,1.8,4,4h-2
			c0-1.1-0.9-2-2-2s-2,0.9-2,2s0.9,2,2,2c2.2,0,4,1.8,4,4S38.2,19,36,19z"/>
		<rect x="35" y="18" class="st0" width="2" height="3"/>
		<rect x="35" y="3" class="st0" width="2" height="3"/>
		<rect x="42" y="11" class="st0" width="2" height="2"/>
		<rect x="28" y="11" class="st0" width="2" height="2"/>
		<path class="st0" d="M25,28c-0.1,0-0.3,0-0.4-0.1C24.2,27.8,24,27.4,24,27V12c0-6.6,5.4-12,12-12s12,5.4,12,12c0,6.6-5.4,12-12,12
			c-1.7,0-3.4-0.4-5-1.1l-5.3,4.9C25.5,27.9,25.3,28,25,28z M36,2c-5.5,0-10,4.5-10,10v12.7l4.1-3.7c0.3-0.3,0.8-0.3,1.1-0.1
			c4.9,2.6,10.9,0.7,13.5-4.2c2.6-4.9,0.7-10.9-4.2-13.5C39.1,2.4,37.6,2,36,2z"/>
		<path class="st0" d="M18,38c-4.4,0-8-3.6-8-8c0-4.4,3.6-8,8-8c1.6,0,3.2,0.5,4.6,1.4l-1.1,1.6c-1-0.7-2.2-1.1-3.4-1.1
			c-3.3,0-6,2.7-6,6s2.7,6,6,6s6-2.7,6-6h2C26,34.4,22.4,38,18,38z"/>
		<path class="st0" d="M20,48h-4c-0.5,0-0.9-0.4-1-0.9l-0.6-4.6c-1-0.3-1.9-0.7-2.8-1.2L8,44.2c-0.4,0.3-1,0.3-1.3-0.1l-2.8-2.8
			C3.5,41,3.5,40.4,3.8,40l2.9-3.7c-0.5-0.9-0.9-1.8-1.2-2.8L0.9,33C0.4,32.9,0,32.5,0,32v-4c0-0.5,0.4-0.9,0.9-1l4.6-0.5
			c0.3-1,0.7-1.9,1.2-2.8L3.8,20c-0.3-0.4-0.3-1,0.1-1.3l2.8-2.8C7,15.5,7.6,15.5,8,15.8l3.6,2.9c0.9-0.5,1.8-0.9,2.8-1.2l0.6-4.6
			c0.1-0.5,0.5-0.9,1-0.9h4c0.5,0,0.9,0.4,1,0.9l0.6,5.3l-2,0.2L19.1,14h-2.2l-0.5,4.4c0,0.4-0.4,0.8-0.8,0.9
			c-1.2,0.3-2.4,0.8-3.5,1.5c-0.4,0.2-0.8,0.2-1.1-0.1l-3.5-2.8l-1.6,1.6L8.7,23c0.3,0.3,0.3,0.8,0.1,1.2c-0.7,1.1-1.2,2.2-1.4,3.5
			c-0.1,0.4-0.4,0.7-0.9,0.8L2,28.9v2.2l4.4,0.5c0.4,0,0.8,0.4,0.9,0.8c0.3,1.2,0.8,2.4,1.5,3.5c0.2,0.4,0.2,0.8-0.1,1.1l-2.8,3.5
			l1.6,1.6l3.5-2.8c0.3-0.3,0.8-0.3,1.2-0.1c1.1,0.7,2.2,1.2,3.5,1.5c0.4,0.1,0.7,0.4,0.8,0.9l0.5,4.4h2.2l0.5-4.4
			c0-0.4,0.4-0.8,0.8-0.9c1.2-0.3,2.4-0.8,3.5-1.5c0.4-0.2,0.8-0.2,1.2,0.1l3.5,2.8l1.6-1.6L27.3,37c-0.3-0.3-0.3-0.8-0.1-1.2
			c0.7-1.1,1.2-2.2,1.5-3.5c0.1-0.4,0.4-0.7,0.9-0.8l4.4-0.5v-2.2l-4.4-0.5l0.2-2l5.3,0.6c0.5,0.1,0.9,0.5,0.9,1v4
			c0,0.5-0.4,0.9-0.9,1l-4.6,0.5c-0.3,1-0.7,1.9-1.2,2.8l2.9,3.7c0.3,0.4,0.3,1-0.1,1.3l-2.8,2.8c-0.4,0.4-0.9,0.4-1.3,0.1l-3.6-2.9
			c-0.9,0.5-1.8,0.9-2.8,1.2L21,47.1C20.9,47.6,20.5,48,20,48z"/>
	</g>
</g>
</svg>
