<?xml version="1.0" encoding="utf-8"?>
<!-- Generator: Adobe Illustrator 24.0.1, SVG Export Plug-In . SVG Version: 6.00 Build 0)  -->
<svg version="1.1" id="Layer_1" xmlns="http://www.w3.org/2000/svg" xmlns:xlink="http://www.w3.org/1999/xlink" x="0px" y="0px"
	 viewBox="0 0 48 48" style="enable-background:new 0 0 48 48;" xml:space="preserve">
<style type="text/css">
	.st0{fill:#FFFFFF;}
</style>
<title>Asset 37ldpi</title>
<g id="Layer_2_1_">
	<g id="layer_1-2">
		<path class="st0" d="M46,8h-6c-0.6,0-1-0.4-1-1V3c0-1.7,1.3-3,3-3h2c1.7,0,3,1.3,3,3v4C47,7.6,46.6,8,46,8z M41,6h4V3
			c0-0.6-0.4-1-1-1h-2c-0.6,0-1,0.4-1,1V6z"/>
		<path class="st0" d="M43,48c-0.4,0-0.7-0.2-0.9-0.6l-4-9c-0.2-0.5,0-1.1,0.5-1.3C38.7,37,38.9,37,39,37h8c0.6,0,1,0.4,1,1
			c0,0.1,0,0.3-0.1,0.4l-4,9C43.7,47.8,43.4,48,43,48z M40.5,39l2.5,5.5l2.5-5.5H40.5z"/>
		<path class="st0" d="M47,39h-8c-0.6,0-1-0.4-1-1V7c0-0.6,0.4-1,1-1h8c0.6,0,1,0.4,1,1v31C48,38.6,47.6,39,47,39z M40,37h6V8h-6V37
			z"/>
		<rect x="39" y="27" class="st0" width="8" height="2"/>
		<path class="st0" d="M35,24h-2V10c0-0.4,0.2-0.7,0.5-0.9l5-3l1,1.7L35,10.6V24z"/>
		<path class="st0" d="M26,48H4c-2.2,0-4-1.8-4-4V4c0-2.2,1.8-4,4-4h22c2.2,0,4,1.8,4,4v40C30,46.2,28.2,48,26,48z M4,2
			C2.9,2,2,2.9,2,4v40c0,1.1,0.9,2,2,2h22c1.1,0,2-0.9,2-2V4c0-1.1-0.9-2-2-2H4z"/>
		<path class="st0" d="M23,15H7c-1.1,0-2-0.9-2-2V7c0-1.1,0.9-2,2-2h16c1.1,0,2,0.9,2,2v6C25,14.1,24.1,15,23,15z M7,7v6h16V7H7z"/>
		<rect x="1" y="25" class="st0" width="28" height="2"/>
		<rect x="1" y="18" class="st0" width="28" height="2"/>
		<rect x="1" y="32" class="st0" width="28" height="2"/>
		<rect x="1" y="39" class="st0" width="21" height="2"/>
		<rect x="14" y="19" class="st0" width="2" height="28"/>
		<rect x="21" y="19" class="st0" width="2" height="28"/>
		<rect x="7" y="19" class="st0" width="2" height="28"/>
		<rect x="19" y="9" class="st0" width="2" height="2"/>
	</g>
</g>
</svg>
