<?xml version="1.0" encoding="utf-8"?>
<!-- Generator: Adobe Illustrator 24.0.1, SVG Export Plug-In . SVG Version: 6.00 Build 0)  -->
<svg version="1.1" id="Layer_1" xmlns="http://www.w3.org/2000/svg" xmlns:xlink="http://www.w3.org/1999/xlink" x="0px" y="0px"
	 viewBox="0 0 48 48" style="enable-background:new 0 0 48 48;" xml:space="preserve">
<style type="text/css">
	.st0{fill:#FFFFFF;}
</style>
<title>Asset 38ldpi</title>
<g id="Layer_2_1_">
	<g id="layer_1-2">
		<path class="st0" d="M44,42h-6v-2h6c1.1,0,2-0.9,2-2V4c0-1.1-0.9-2-2-2H4C2.9,2,2,2.9,2,4v34c0,1.1,0.9,2,2,2h6v2H4
			c-2.2,0-4-1.8-4-4V4c0-2.2,1.8-4,4-4h40c2.2,0,4,1.8,4,4v34C48,40.2,46.2,42,44,42z"/>
		<path class="st0" d="M42,25H6c-0.6,0-1-0.4-1-1V6c0-0.6,0.4-1,1-1h36c0.6,0,1,0.4,1,1v18C43,24.6,42.6,25,42,25z M7,23h34V7H7V23z
			"/>
		<rect x="9" y="19" class="st0" width="4" height="2"/>
		<rect x="9" y="14" class="st0" width="4" height="2"/>
		<rect x="9" y="9" class="st0" width="4" height="2"/>
		<rect x="35" y="19" class="st0" width="4" height="2"/>
		<rect x="35" y="14" class="st0" width="4" height="2"/>
		<rect x="35" y="9" class="st0" width="4" height="2"/>
		<path class="st0" d="M34,48H14c-1.7,0-3-1.3-3-3V29c0-0.6,0.4-1,1-1h24c0.6,0,1,0.4,1,1v16C37,46.7,35.7,48,34,48z M13,30v15
			c0,0.6,0.4,1,1,1h20c0.6,0,1-0.4,1-1V30H13z"/>
		<rect x="15" y="31" class="st0" width="2" height="7"/>
		<rect x="19" y="31" class="st0" width="2" height="5"/>
		<rect x="19" y="38" class="st0" width="2" height="6"/>
		<path class="st0" d="M29,44c-2.2,0-4-1.8-4-4s1.8-4,4-4s4,1.8,4,4S31.2,44,29,44z M29,38c-1.1,0-2,0.9-2,2s0.9,2,2,2s2-0.9,2-2
			S30.1,38,29,38z"/>
		<path class="st0" d="M26,37.7c-1.5-1.7-1.3-4.2,0.4-5.6c1.7-1.5,4.2-1.3,5.6,0.4c1.3,1.5,1.3,3.8,0,5.3l-1.5-1.3
			C30.8,36,31,35.5,31,35c0-1.1-0.9-2-2-2s-2,0.9-2,2c0,0.5,0.2,1,0.5,1.3L26,37.7z"/>
		<rect x="8" y="28" class="st0" width="32" height="2"/>
	</g>
</g>
</svg>
