<?xml version="1.0" encoding="utf-8"?>
<!-- Generator: Adobe Illustrator 24.0.1, SVG Export Plug-In . SVG Version: 6.00 Build 0)  -->
<svg version="1.1" id="Layer_1" xmlns="http://www.w3.org/2000/svg" xmlns:xlink="http://www.w3.org/1999/xlink" x="0px" y="0px"
	 viewBox="0 0 48 48" style="enable-background:new 0 0 48 48;" xml:space="preserve">
<style type="text/css">
	.st0{fill:#FFFFFF;}
</style>
<title>Asset 39ldpi</title>
<g id="Layer_2_1_">
	<g id="layer_1-2">
		<path class="st0" d="M40,48H8c-0.6,0-1-0.4-1-1V7c0-0.6,0.4-1,1-1h32c0.6,0,1,0.4,1,1v40C41,47.6,40.6,48,40,48z M9,46h30V8H9V46z
			"/>
		<path class="st0" d="M31,43H17c-0.6,0-1-0.4-1-1c0-1.7-1.3-3-3-3c-0.6,0-1-0.4-1-1V7c0-0.6,0.4-1,1-1h22c0.6,0,1,0.4,1,1v31
			c0,0.6-0.4,1-1,1c-1.7,0-3,1.3-3,3C32,42.6,31.6,43,31,43z M17.9,41h12.2c0.4-2,1.9-3.5,3.9-3.9V8H14v29.1
			C16,37.5,17.5,39,17.9,41z"/>
		<path class="st0" d="M47,14h-7v-2h6V2H2v10h6v2H1c-0.6,0-1-0.4-1-1V1c0-0.6,0.4-1,1-1h46c0.6,0,1,0.4,1,1v12
			C48,13.6,47.6,14,47,14z"/>
		<path class="st0" d="M24,37c-2.2,0-4-1.8-4-4s1.8-4,4-4s4,1.8,4,4S26.2,37,24,37z M24,31c-1.1,0-2,0.9-2,2c0,1.1,0.9,2,2,2
			s2-0.9,2-2C26,31.9,25.1,31,24,31z"/>
		<path class="st0" d="M24,13c-2.2,0-4-1.8-4-4h2c0,1.1,0.9,2,2,2s2-0.9,2-2h2C28,11.2,26.2,13,24,13z"/>
		<path class="st0" d="M27,25v-2c1.1,0,2-0.9,2-2s-0.9-2-2-2s-2,0.9-2,2c0,2.2-1.8,4-4,4s-4-1.8-4-4s1.8-4,4-4v2c-1.1,0-2,0.9-2,2
			s0.9,2,2,2s2-0.9,2-2c0-2.2,1.8-4,4-4s4,1.8,4,4S29.2,25,27,25z"/>
		<rect x="30" y="20" class="st0" width="3" height="2"/>
		<rect x="15" y="20" class="st0" width="3" height="2"/>
		<rect x="5" y="6" class="st0" width="38" height="2"/>
	</g>
</g>
</svg>
