<?xml version="1.0" encoding="utf-8"?>
<!-- Generator: Adobe Illustrator 24.0.1, SVG Export Plug-In . SVG Version: 6.00 Build 0)  -->
<svg version="1.1" id="Layer_1" xmlns="http://www.w3.org/2000/svg" xmlns:xlink="http://www.w3.org/1999/xlink" x="0px" y="0px"
	 viewBox="0 0 48 48" style="enable-background:new 0 0 48 48;" xml:space="preserve">
<style type="text/css">
	.st0{fill:#FFFFFF;}
</style>
<title>Asset 3ldpi</title>
<g id="Layer_2_1_">
	<g id="layer_1-2">
		<path class="st0" d="M45,42H3c-1.7,0-3-1.3-3-3V9c0-1.7,1.3-3,3-3h14v2H3C2.4,8,2,8.4,2,9v30c0,0.6,0.4,1,1,1h42c0.6,0,1-0.4,1-1
			V9c0-0.6-0.4-1-1-1H31V6h14c1.7,0,3,1.3,3,3v30C48,40.7,46.7,42,45,42z"/>
		<path class="st0" d="M37,48H11c-0.6,0-1-0.4-1-1v-6c0-0.6,0.4-1,1-1h26c0.6,0,1,0.4,1,1v6C38,47.6,37.6,48,37,48z M12,46h24v-4H12
			V46z"/>
		<rect x="3" y="46" class="st0" width="42" height="2"/>
		<path class="st0" d="M24,42c-7.9,0-16-1.4-16-12c0-6.6,5-14.9,9.2-20.6l1.6,1.2C15.5,15.1,10,23.6,10,30c0,8.3,5.4,10,14,10
			s14-1.7,14-10c0-6.4-5.5-14.9-8.8-19.4l1.6-1.2C35,15.1,40,23.4,40,30C40,40.6,31.9,42,24,42z"/>
		<path class="st0" d="M24,12c-2.2,0.1-4.4-0.3-6.4-1.1c-0.2-0.1-0.4-0.3-0.5-0.6l-3-9c-0.2-0.5,0.1-1.1,0.6-1.3
			C15,0,15.3,0,15.5,0.1c4.1,2.5,12.8,2.5,17,0c0.4-0.2,0.8-0.2,1.2,0.1C34,0.5,34.1,0.9,34,1.3l-3,9c-0.1,0.3-0.3,0.5-0.5,0.6
			C28.4,11.7,26.2,12.1,24,12z M18.8,9.3c3.4,1,7,1,10.4,0l2.1-6.4c-4.8,1.5-9.9,1.5-14.6,0L18.8,9.3z"/>
		<path class="st0" d="M24,33c-2.2,0-4-1.8-4-4h2c0,1.1,0.9,2,2,2s2-0.9,2-2s-0.9-2-2-2c-2.2,0-4-1.8-4-4s1.8-4,4-4s4,1.8,4,4h-2
			c0-1.1-0.9-2-2-2s-2,0.9-2,2s0.9,2,2,2c2.2,0,4,1.8,4,4S26.2,33,24,33z"/>
		<rect x="23" y="32" class="st0" width="2" height="3"/>
		<rect x="23" y="17" class="st0" width="2" height="3"/>
		<rect x="16" y="25" class="st0" width="2" height="2"/>
		<rect x="30" y="25" class="st0" width="2" height="2"/>
	</g>
</g>
</svg>
