<?xml version="1.0" encoding="utf-8"?>
<!-- Generator: Adobe Illustrator 24.0.1, SVG Export Plug-In . SVG Version: 6.00 Build 0)  -->
<svg version="1.1" id="Layer_1" xmlns="http://www.w3.org/2000/svg" xmlns:xlink="http://www.w3.org/1999/xlink" x="0px" y="0px"
	 viewBox="0 0 48 48" style="enable-background:new 0 0 48 48;" xml:space="preserve">
<style type="text/css">
	.st0{fill:#FFFFFF;}
</style>
<title>Asset 40ldpi</title>
<g id="Layer_2_1_">
	<g id="layer_1-2">
		<path class="st0" d="M20,48c-9.6,0-20-4.7-20-15c0-6.9,8-18.5,12.2-23.6l1.5,1.3C9,16.4,2,27.2,2,33c0,8.9,9.3,13,18,13
			c7.9,0,16.9-3.6,17.9-11.5l2,0.3C38.8,43.8,28.8,48,20,48z"/>
		<path class="st0" d="M29.6,15.1c-1.1-1.6-2.3-3.1-3.4-4.5l1.5-1.3c1.1,1.4,2.3,2.9,3.5,4.6L29.6,15.1z"/>
		<path class="st0" d="M20,43c-9,0-14-3.5-14-10c0-4.7,4.5-14.1,8.2-18.6l1.5,1.3C12.4,19.8,8,28.8,8,33c0,6.6,6.5,8,12,8V43z"/>
		<path class="st0" d="M20,12c-3,0-5.9-0.4-7.4-1.1c-0.2-0.1-0.4-0.3-0.5-0.6l-3-9C8.9,0.8,9.2,0.2,9.7,0C10,0,10.3,0,10.5,0.1
			c4.1,2.5,14.9,2.5,19,0c0.4-0.2,0.8-0.2,1.1,0.1C31,0.5,31.1,0.9,31,1.3l-3,9c-0.1,0.3-0.3,0.5-0.5,0.6C25.9,11.6,23,12,20,12z
			 M13.8,9.3c2.7,1,9.7,1,12.4,0l2.1-6.4c-5.5,1.5-11.2,1.5-16.7,0L13.8,9.3z"/>
		<path class="st0" d="M36,31c-2.2,0-4-1.8-4-4h2c0,1.1,0.9,2,2,2s2-0.9,2-2s-0.9-2-2-2c-2.2,0-4-1.8-4-4s1.8-4,4-4s4,1.8,4,4h-2
			c0-1.1-0.9-2-2-2s-2,0.9-2,2s0.9,2,2,2c2.2,0,4,1.8,4,4S38.2,31,36,31z"/>
		<rect x="35" y="30" class="st0" width="2" height="3"/>
		<rect x="35" y="15" class="st0" width="2" height="3"/>
		<rect x="42" y="23" class="st0" width="2" height="2"/>
		<rect x="28" y="23" class="st0" width="2" height="2"/>
		<path class="st0" d="M25,41c-0.1,0-0.2,0-0.4-0.1C24.3,40.8,24,40.4,24,40V24c0-6.6,5.4-12,12-12c6.6,0,12,5.4,12,12
			c0,6.6-5.4,12-12,12c-1.7,0-3.4-0.4-5-1.1l-5.3,5.8C25.5,40.9,25.3,41,25,41z M36,14c-5.5,0-10,4.5-10,10v13.4l4-4.4
			c0.3-0.3,0.8-0.4,1.2-0.2c4.9,2.6,10.9,0.8,13.5-4.1s0.8-10.9-4.1-13.5C39.3,14.4,37.7,14,36,14z"/>
	</g>
</g>
</svg>
