<?xml version="1.0" encoding="utf-8"?>
<!-- Generator: Adobe Illustrator 24.0.1, SVG Export Plug-In . SVG Version: 6.00 Build 0)  -->
<svg version="1.1" id="Layer_1" xmlns="http://www.w3.org/2000/svg" xmlns:xlink="http://www.w3.org/1999/xlink" x="0px" y="0px"
	 viewBox="0 0 48 48" style="enable-background:new 0 0 48 48;" xml:space="preserve">
<style type="text/css">
	.st0{fill:#FFFFFF;}
</style>
<title>Asset 41ldpi</title>
<g id="Layer_2_1_">
	<g id="layer_1-2">
		<path class="st0" d="M40,16H4c-2.2,0-4-1.8-4-4v-0.6c0-1.9,1.3-3.5,3.2-3.9L39.8,0c0.3-0.1,0.6,0,0.8,0.2C40.9,0.4,41,0.7,41,1v14
			C41,15.6,40.6,16,40,16z M39,2.2L3.6,9.5c-0.9,0.2-1.6,1-1.6,2V12c0,1.1,0.9,2,2,2c0,0,0,0,0,0h35V2.2z"/>
		<path class="st0" d="M42,48H4c-2.2,0-4-1.8-4-4V12c0-0.6,0.4-1,1-1s1,0.4,1,1c0,1.1,0.9,2,2,2h38c2.2,0,4,1.8,4,4v6h-2v-6
			c0-1.1-0.9-2-2-2H4c-0.7,0-1.4-0.2-2-0.5V44c0,1.1,0.9,2,2,2h38c1.1,0,2-0.9,2-2v-6h2v6C46,46.2,44.2,48,42,48z"/>
		<path class="st0" d="M47,39H37c-2.8,0-5-2.2-5-5v-6c0-2.8,2.2-5,5-5h10c0.6,0,1,0.4,1,1v14C48,38.6,47.6,39,47,39z M37,25
			c-1.7,0-3,1.3-3,3v6c0,1.7,1.3,3,3,3h9V25H37z"/>
		<path class="st0" d="M40,35c-2.2,0-4-1.8-4-4s1.8-4,4-4s4,1.8,4,4S42.2,35,40,35z M40,29c-1.1,0-2,0.9-2,2c0,1.1,0.9,2,2,2
			s2-0.9,2-2C42,29.9,41.1,29,40,29z"/>
		<rect x="4" y="18" class="st0" width="5" height="2"/>
		<rect x="4" y="42" class="st0" width="5" height="2"/>
		<rect x="12" y="18" class="st0" width="5" height="2"/>
		<rect x="12" y="42" class="st0" width="5" height="2"/>
		<rect x="20" y="18" class="st0" width="5" height="2"/>
		<rect x="20" y="42" class="st0" width="5" height="2"/>
		<rect x="28" y="18" class="st0" width="5" height="2"/>
		<rect x="28" y="42" class="st0" width="5" height="2"/>
		<rect x="36" y="18" class="st0" width="5" height="2"/>
		<rect x="36" y="42" class="st0" width="5" height="2"/>
		<path class="st0" d="M34,16H10c-0.6,0-1-0.4-1-1v-4c0-0.5,0.4-0.9,0.9-1l24-3c0.3,0,0.6,0.1,0.8,0.2C34.9,7.4,35,7.7,35,8v7
			C35,15.6,34.6,16,34,16z M11,14h22V9.1l-22,2.8V14z"/>
	</g>
</g>
</svg>
