<?xml version="1.0" encoding="utf-8"?>
<!-- Generator: Adobe Illustrator 24.0.1, SVG Export Plug-In . SVG Version: 6.00 Build 0)  -->
<svg version="1.1" id="Layer_1" xmlns="http://www.w3.org/2000/svg" xmlns:xlink="http://www.w3.org/1999/xlink" x="0px" y="0px"
	 viewBox="0 0 48 48" style="enable-background:new 0 0 48 48;" xml:space="preserve">
<style type="text/css">
	.st0{fill:#FFFFFF;}
</style>
<title>Asset 42ldpi</title>
<g id="Layer_2_1_">
	<g id="layer_1-2">
		<path class="st0" d="M45,44H3c-1.7,0-3-1.3-3-3V3c0-1.7,1.3-3,3-3h42c1.7,0,3,1.3,3,3v38C48,42.7,46.7,44,45,44z M3,2
			C2.4,2,2,2.4,2,3v38c0,0.6,0.4,1,1,1h42c0.6,0,1-0.4,1-1V3c0-0.6-0.4-1-1-1H3z"/>
		<path class="st0" d="M39,37H9c-1.1,0-2-0.9-2-2V9c0-1.1,0.9-2,2-2h30c1.1,0,2,0.9,2,2v26C41,36.1,40.1,37,39,37z M9,9v26h30V9H9z"
			/>
		<path class="st0" d="M40,27h-3c-1.7,0-3-1.3-3-3v-4c0-1.7,1.3-3,3-3h3c0.6,0,1,0.4,1,1v8C41,26.6,40.6,27,40,27z M37,19
			c-0.6,0-1,0.4-1,1v4c0,0.6,0.4,1,1,1h2v-6H37z"/>
		<rect x="3" y="46" class="st0" width="42" height="2"/>
		<path class="st0" d="M28,30h-8c-0.3,0-0.6-0.1-0.8-0.4C19,29.4,19,29.1,19,28.8l1.5-6.1c-2-1.9-2.1-5.1-0.2-7.1
			c1.9-2,5.1-2.1,7.1-0.2s2.1,5.1,0.2,7.1c-0.1,0.1-0.1,0.1-0.2,0.2l1.6,6.1c0.1,0.3,0,0.6-0.2,0.9C28.6,29.9,28.3,30,28,30z
			 M21.3,28h5.4l-1.4-5.5c-0.1-0.4,0.1-0.8,0.4-1.1c1.4-1,1.7-2.8,0.7-4.2s-2.8-1.7-4.2-0.7s-1.7,2.8-0.7,4.2
			c0.2,0.3,0.4,0.5,0.7,0.7c0.3,0.2,0.5,0.7,0.4,1.1L21.3,28z"/>
		<rect x="5" y="14" class="st0" width="6" height="2"/>
		<rect x="5" y="28" class="st0" width="6" height="2"/>
		<rect x="5" y="21" class="st0" width="6" height="2"/>
	</g>
</g>
</svg>
