<?xml version="1.0" encoding="utf-8"?>
<!-- Generator: Adobe Illustrator 24.0.1, SVG Export Plug-In . SVG Version: 6.00 Build 0)  -->
<svg version="1.1" id="Layer_1" xmlns="http://www.w3.org/2000/svg" xmlns:xlink="http://www.w3.org/1999/xlink" x="0px" y="0px"
	 viewBox="0 0 48 48" style="enable-background:new 0 0 48 48;" xml:space="preserve">
<style type="text/css">
	.st0{fill:#FFFFFF;}
</style>
<title>Asset 43ldpi</title>
<g id="Layer_2_1_">
	<g id="layer_1-2">
		<rect y="46" class="st0" width="48" height="2"/>
		<rect x="3" y="42" class="st0" width="42" height="2"/>
		<rect x="3" y="20" class="st0" width="42" height="2"/>
		<path class="st0" d="M47,18H1c-0.6,0-1-0.5-1-1c0-0.3,0.2-0.6,0.4-0.8l23-16c0.3-0.2,0.8-0.2,1.1,0l23,16c0.5,0.3,0.6,0.9,0.2,1.4
			C47.6,17.8,47.3,18,47,18z M4.2,16h39.6L24,2.2L4.2,16z"/>
		<path class="st0" d="M24,14c-2.2,0-4-1.8-4-4s1.8-4,4-4s4,1.8,4,4S26.2,14,24,14z M24,8c-1.1,0-2,0.9-2,2s0.9,2,2,2s2-0.9,2-2
			S25.1,8,24,8z"/>
		<path class="st0" d="M24,39c-2.2,0-4-1.8-4-4h2c0,1.1,0.9,2,2,2s2-0.9,2-2s-0.9-2-2-2c-2.2,0-4-1.8-4-4s1.8-4,4-4s4,1.8,4,4h-2
			c0-1.1-0.9-2-2-2s-2,0.9-2,2s0.9,2,2,2c2.2,0,4,1.8,4,4S26.2,39,24,39z"/>
		<rect x="23" y="38" class="st0" width="2" height="3"/>
		<rect x="23" y="23" class="st0" width="2" height="3"/>
		<rect x="30" y="31" class="st0" width="2" height="2"/>
		<rect x="16" y="31" class="st0" width="2" height="2"/>
		<rect x="11" y="23" class="st0" width="2" height="18"/>
		<rect x="6" y="23" class="st0" width="2" height="18"/>
		<rect x="35" y="23" class="st0" width="2" height="18"/>
		<rect x="40" y="23" class="st0" width="2" height="18"/>
	</g>
</g>
</svg>
