<?xml version="1.0" encoding="utf-8"?>
<!-- Generator: Adobe Illustrator 24.0.1, SVG Export Plug-In . SVG Version: 6.00 Build 0)  -->
<svg version="1.1" id="Layer_1" xmlns="http://www.w3.org/2000/svg" xmlns:xlink="http://www.w3.org/1999/xlink" x="0px" y="0px"
	 viewBox="0 0 48 48" style="enable-background:new 0 0 48 48;" xml:space="preserve">
<style type="text/css">
	.st0{fill:#FFFFFF;}
</style>
<title>Asset 44ldpi</title>
<g id="Layer_2_1_">
	<g id="layer_1-2">
		<rect y="46" class="st0" width="48" height="2"/>
		<rect x="7" y="26" class="st0" width="8" height="2"/>
		<rect x="17" y="26" class="st0" width="8" height="2"/>
		<rect x="7" y="31" class="st0" width="8" height="2"/>
		<rect x="17" y="31" class="st0" width="8" height="2"/>
		<rect x="7" y="36" class="st0" width="8" height="2"/>
		<rect x="17" y="36" class="st0" width="8" height="2"/>
		<rect x="7" y="41" class="st0" width="8" height="2"/>
		<rect x="31" y="21" class="st0" width="10" height="2"/>
		<rect x="31" y="26" class="st0" width="10" height="2"/>
		<rect x="31" y="16" class="st0" width="10" height="2"/>
		<rect x="31" y="31" class="st0" width="10" height="2"/>
		<rect x="31" y="36" class="st0" width="10" height="2"/>
		<rect x="31" y="41" class="st0" width="10" height="2"/>
		<rect x="17" y="41" class="st0" width="8" height="2"/>
		<rect x="2" class="st0" width="7" height="2"/>
		<rect x="28" y="11" class="st0" width="18" height="2"/>
		<rect x="23" class="st0" width="7" height="2"/>
		<path class="st0" d="M28,48H4c-0.6,0-1-0.4-1-1V1c0-0.6,0.4-1,1-1h24c0.6,0,1,0.4,1,1v46C29,47.6,28.6,48,28,48z M5,46h22V2H5V46z
			"/>
		<rect x="43" y="12" class="st0" width="2" height="35"/>
		<path class="st0" d="M16,21c-2.2,0-4-1.8-4-4h2c0,1.1,0.9,2,2,2s2-0.9,2-2s-0.9-2-2-2c-2.2,0-4-1.8-4-4s1.8-4,4-4s4,1.8,4,4h-2
			c0-1.1-0.9-2-2-2s-2,0.9-2,2s0.9,2,2,2c2.2,0,4,1.8,4,4S18.2,21,16,21z"/>
		<rect x="15" y="20" class="st0" width="2" height="3"/>
		<rect x="15" y="5" class="st0" width="2" height="3"/>
		<rect x="22" y="13" class="st0" width="2" height="2"/>
		<rect x="8" y="13" class="st0" width="2" height="2"/>
	</g>
</g>
</svg>
