<?xml version="1.0" encoding="utf-8"?>
<!-- Generator: Adobe Illustrator 24.0.1, SVG Export Plug-In . SVG Version: 6.00 Build 0)  -->
<svg version="1.1" id="Layer_1" xmlns="http://www.w3.org/2000/svg" xmlns:xlink="http://www.w3.org/1999/xlink" x="0px" y="0px"
	 viewBox="0 0 48 48" style="enable-background:new 0 0 48 48;" xml:space="preserve">
<style type="text/css">
	.st0{fill:#FFFFFF;}
</style>
<title>Asset 45ldpi</title>
<g id="Layer_2_1_">
	<g id="layer_1-2">
		<path class="st0" d="M7,42H1c-0.6,0-1-0.4-1-1V1c0-0.6,0.4-1,1-1h30c0.6,0,1,0.4,1,1v4h-2V2H2v38h5V42z"/>
		<path class="st0" d="M39,48H9c-0.6,0-1-0.4-1-1V17c0-0.3,0.1-0.5,0.3-0.7l10-10C18.5,6.1,18.7,6,19,6h20c0.6,0,1,0.4,1,1v5h-2V8
			H19.4L10,17.4V46h28v-6h2v7C40,47.6,39.6,48,39,48z"/>
		<path class="st0" d="M19,18H9c-0.4,0-0.8-0.2-0.9-0.6C7.9,17,8,16.6,8.3,16.3l10-10C18.6,6,19,5.9,19.4,6.1C19.8,6.2,20,6.6,20,7
			v10C20,17.6,19.6,18,19,18z M11.4,16H18V9.4L11.4,16z"/>
		<path class="st0" d="M34,33c-2.2,0-4-1.8-4-4h2c0,1.1,0.9,2,2,2s2-0.9,2-2s-0.9-2-2-2c-2.2,0-4-1.8-4-4s1.8-4,4-4s4,1.8,4,4h-2
			c0-1.1-0.9-2-2-2s-2,0.9-2,2s0.9,2,2,2c2.2,0,4,1.8,4,4S36.2,33,34,33z"/>
		<rect x="33" y="32" class="st0" width="2" height="3"/>
		<rect x="33" y="17" class="st0" width="2" height="3"/>
		<rect x="40" y="25" class="st0" width="2" height="2"/>
		<rect x="26" y="25" class="st0" width="2" height="2"/>
		<path class="st0" d="M21,44c-0.1,0-0.2,0-0.3-0.1C20.3,43.8,20,43.4,20,43V26c0-7.7,6.3-14,14-14c7.7,0,14,6.3,14,14
			s-6.3,14-14,14c-2.6,0-5.2-0.7-7.4-2.1l-4.8,5.8C21.6,43.9,21.3,44,21,44z M34,14c-6.6,0-12,5.4-12,12v14.2l3.6-4.3
			c0.3-0.4,0.9-0.5,1.4-0.2c5.4,3.9,12.9,2.7,16.8-2.7s2.7-12.9-2.7-16.8C39,14.8,36.5,14,34,14z"/>
	</g>
</g>
</svg>
