<?xml version="1.0" encoding="utf-8"?>
<!-- Generator: Adobe Illustrator 24.0.1, SVG Export Plug-In . SVG Version: 6.00 Build 0)  -->
<svg version="1.1" id="Layer_1" xmlns="http://www.w3.org/2000/svg" xmlns:xlink="http://www.w3.org/1999/xlink" x="0px" y="0px"
	 viewBox="0 0 48 48" style="enable-background:new 0 0 48 48;" xml:space="preserve">
<style type="text/css">
	.st0{fill:#FFFFFF;}
</style>
<title>Asset 13ldpi</title>
<g id="Layer_2_1_">
	<g id="layer_1-2">
		<path class="st0" d="M24,48c-6.4,0-12.5-2.5-17-7l1.4-1.4c8.6,8.6,22.5,8.6,31.1,0c0,0,0,0,0,0L41,41C36.5,45.5,30.4,48,24,48z"/>
		<path class="st0" d="M39.6,8.4C31-0.2,17-0.2,8.4,8.4c0,0,0,0,0,0L7,7c9.4-9.4,24.6-9.4,33.9-0.1C41,7,41,7,41,7L39.6,8.4z"/>
		<path class="st0" d="M24,42C10.9,42,0.6,25.2,0.1,24.5c-0.2-0.3-0.2-0.7,0-1C0.6,22.8,10.9,6,24,6s23.4,16.8,23.9,17.5
			c0.2,0.3,0.2,0.7,0,1C47.4,25.2,37.1,42,24,42z M2.2,24C4,26.8,13.2,40,24,40s20-13.2,21.8-16C44,21.2,34.8,8,24,8S4,21.2,2.2,24z
			"/>
		<path class="st0" d="M24,36c-6.6,0-12-5.4-12-12s5.4-12,12-12s12,5.4,12,12S30.6,36,24,36z M24,14c-5.5,0-10,4.5-10,10
			s4.5,10,10,10s10-4.5,10-10S29.5,14,24,14z"/>
		<path class="st0" d="M24,31c-2.2,0-4-1.8-4-4h2c0,1.1,0.9,2,2,2s2-0.9,2-2s-0.9-2-2-2c-2.2,0-4-1.8-4-4s1.8-4,4-4s4,1.8,4,4h-2
			c0-1.1-0.9-2-2-2s-2,0.9-2,2s0.9,2,2,2c2.2,0,4,1.8,4,4S26.2,31,24,31z"/>
		<rect x="23" y="30" class="st0" width="2" height="3"/>
		<rect x="23" y="15" class="st0" width="2" height="3"/>
		<rect x="30" y="23" class="st0" width="2" height="2"/>
		<rect x="16" y="23" class="st0" width="2" height="2"/>
	</g>
</g>
</svg>
