<?xml version="1.0" encoding="utf-8"?>
<!-- Generator: Adobe Illustrator 24.0.1, SVG Export Plug-In . SVG Version: 6.00 Build 0)  -->
<svg version="1.1" id="Layer_1" xmlns="http://www.w3.org/2000/svg" xmlns:xlink="http://www.w3.org/1999/xlink" x="0px" y="0px"
	 viewBox="0 0 44 48" style="enable-background:new 0 0 44 48;" xml:space="preserve">
<style type="text/css">
	.st0{fill:#FFFFFF;}
</style>
<title>Asset 46ldpi</title>
<g id="Layer_2_1_">
	<g id="layer_1-2">
		<path class="st0" d="M39,48h-2v-6.7c-0.1-4.8,1-9.6,3.2-14c1.3-2.6,1.9-5.4,1.8-8.3c0-4.2-1.4-8.2-4.2-11.3
			c-2.4-2.7-5.7-4.6-9.3-5.3C19.3,0.4,10.3,6.3,8.4,15.5c-0.1,0.6-0.2,1.1-0.3,1.7c-0.1,1.5-0.6,3-1.3,4.3l-4.4,8l3.3,1.3
			C6.5,31.1,7,31.8,7,32.7V39h7c1.1,0,2,0.9,2,2v7h-2v-7H7c-1.1,0-2-0.9-2-2v-6.3l-4.4-1.8c-0.3-0.1-0.5-0.3-0.6-0.6
			C0,30.1,0,29.8,0.1,29.5l4.9-9C5.6,19.4,6,18.2,6.1,17C7.2,6.6,16.6-1,27,0.1c0.6,0.1,1.3,0.2,1.9,0.3c4,0.8,7.7,2.9,10.4,5.9
			c3.1,3.5,4.7,8,4.7,12.6c0,3.2-0.7,6.3-2.1,9.2c-2,4.1-3,8.6-2.9,13.1V48z"/>
		<path class="st0" d="M25,26c-2.2,0-4-1.8-4-4h2c0,1.1,0.9,2,2,2s2-0.9,2-2s-0.9-2-2-2c-2.2,0-4-1.8-4-4s1.8-4,4-4s4,1.8,4,4h-2
			c0-1.1-0.9-2-2-2s-2,0.9-2,2s0.9,2,2,2c2.2,0,4,1.8,4,4S27.2,26,25,26z"/>
		<rect x="24" y="25" class="st0" width="2" height="3"/>
		<rect x="24" y="10" class="st0" width="2" height="3"/>
		<rect x="31" y="18" class="st0" width="2" height="2"/>
		<rect x="17" y="18" class="st0" width="2" height="2"/>
		<path class="st0" d="M25,26c-2.2,0-4-1.8-4-4h2c0,1.1,0.9,2,2,2s2-0.9,2-2s-0.9-2-2-2c-2.2,0-4-1.8-4-4s1.8-4,4-4s4,1.8,4,4h-2
			c0-1.1-0.9-2-2-2s-2,0.9-2,2s0.9,2,2,2c2.2,0,4,1.8,4,4S27.2,26,25,26z"/>
		<rect x="24" y="25" class="st0" width="2" height="3"/>
		<rect x="24" y="10" class="st0" width="2" height="3"/>
		<rect x="31" y="18" class="st0" width="2" height="2"/>
		<rect x="17" y="18" class="st0" width="2" height="2"/>
		<path class="st0" d="M12,36c-0.1,0-0.3,0-0.4-0.1C11.2,35.8,11,35.4,11,35V19c0-7.7,6.3-14,14-14c7.7,0,14,6.3,14,14
			c0,7.7-6.3,14-14,14c-2.6,0-5.2-0.8-7.5-2.2l-4.8,4.9C12.5,35.9,12.3,36,12,36z M25,7c-6.6,0-12,5.4-12,12v13.6l3.7-3.7
			c0.3-0.4,0.9-0.4,1.3-0.1c5.4,3.9,12.9,2.7,16.8-2.7s2.7-12.9-2.7-16.8C30,7.8,27.5,7,25,7z"/>
	</g>
</g>
</svg>
