<?xml version="1.0" encoding="utf-8"?>
<!-- Generator: Adobe Illustrator 24.0.1, SVG Export Plug-In . SVG Version: 6.00 Build 0)  -->
<svg version="1.1" id="Layer_1" xmlns="http://www.w3.org/2000/svg" xmlns:xlink="http://www.w3.org/1999/xlink" x="0px" y="0px"
	 viewBox="0 0 48 48" style="enable-background:new 0 0 48 48;" xml:space="preserve">
<style type="text/css">
	.st0{fill:#FFFFFF;}
</style>
<title>Asset 47ldpi</title>
<g id="Layer_2_1_">
	<g id="layer_1-2">
		<path class="st0" d="M9,45H1c-0.6,0-1-0.4-1-1V30c0-0.6,0.4-1,1-1h8c0.6,0,1,0.4,1,1v14C10,44.6,9.6,45,9,45z M2,43h6V31H2V43z"/>
		<path class="st0" d="M27,48h-0.2l-18-4l0.4-2l17.7,4L46,36.4v-1.1L33.2,38l-0.4-2l14-3c0.5-0.1,1.1,0.2,1.2,0.8c0,0.1,0,0.2,0,0.2
			v3c0,0.4-0.2,0.7-0.5,0.9l-20,10C27.3,48,27.2,48,27,48z"/>
		<path class="st0" d="M24,41c-0.1,0-0.2,0-0.3,0l-7-2l0.5-2l6.8,2l7.9-0.9V36h-7c-0.2,0-0.3,0-0.5-0.1L16.8,32H9v-2h8
			c0.2,0,0.3,0,0.5,0.1l7.8,3.9H33c0.6,0,1,0.4,1,1v4c0,0.5-0.4,0.9-0.9,1l-9,1H24z"/>
		<rect x="4" y="39" class="st0" width="2" height="2"/>
		<path class="st0" d="M29,26c-2.2,0-4-1.8-4-4h2c0,1.1,0.9,2,2,2s2-0.9,2-2s-0.9-2-2-2c-2.2,0-4-1.8-4-4s1.8-4,4-4s4,1.8,4,4h-2
			c0-1.1-0.9-2-2-2s-2,0.9-2,2s0.9,2,2,2c2.2,0,4,1.8,4,4S31.2,26,29,26z"/>
		<rect x="28" y="25" class="st0" width="2" height="3"/>
		<rect x="28" y="10" class="st0" width="2" height="3"/>
		<path class="st0" d="M29,31c-6.6,0-12-5.4-12-12S22.4,7,29,7s12,5.4,12,12S35.6,31,29,31z M29,9c-5.5,0-10,4.5-10,10s4.5,10,10,10
			s10-4.5,10-10S34.5,9,29,9z"/>
		<rect x="40" y="18" class="st0" width="7" height="2"/>
		<rect x="11" y="18" class="st0" width="7" height="2"/>
		<rect x="28" y="30" class="st0" width="2" height="4"/>
		<rect x="28" y="1" class="st0" width="2" height="7"/>
		<rect x="35.8" y="7.8" transform="matrix(0.7071 -0.7071 0.7071 0.7071 5.3069 30.3185)" class="st0" width="7" height="2"/>
		<rect x="16.1" y="27.9" transform="matrix(0.7071 -0.7071 0.7071 0.7071 -14.8241 21.9754)" class="st0" width="6" height="2"/>
		<path class="st0" d="M41.7,32.7c-0.3,0-0.5-0.1-0.7-0.3l-5-5l1.4-1.4l4.2,4.2c6.2-7,5.6-17.8-1.4-24s-17.8-5.6-24,1.4
			c-5.1,5.8-5.7,14.3-1.4,20.7l-1.6,1.1C7.4,20.8,9.7,9,18.4,3.2S39-0.3,44.8,8.5c5,7.5,4,17.6-2.4,24C42.2,32.6,42,32.7,41.7,32.7z
			"/>
		<rect x="17.8" y="5.2" transform="matrix(0.7071 -0.7071 0.7071 0.7071 -0.6931 15.8246)" class="st0" width="2" height="7"/>
	</g>
</g>
</svg>
