<?xml version="1.0" encoding="utf-8"?>
<!-- Generator: Adobe Illustrator 24.0.1, SVG Export Plug-In . SVG Version: 6.00 Build 0)  -->
<svg version="1.1" id="Layer_1" xmlns="http://www.w3.org/2000/svg" xmlns:xlink="http://www.w3.org/1999/xlink" x="0px" y="0px"
	 viewBox="0 0 48 48" style="enable-background:new 0 0 48 48;" xml:space="preserve">
<style type="text/css">
	.st0{fill:#FFFFFF;}
</style>
<title>Asset 48ldpi</title>
<g id="Layer_2_1_">
	<g id="layer_1-2">
		<rect x="15" y="3" class="st0" width="2" height="2"/>
		<rect x="15" y="43" class="st0" width="2" height="2"/>
		<rect x="22" y="43" class="st0" width="2" height="2"/>
		<rect x="8" y="43" class="st0" width="2" height="2"/>
		<path class="st0" d="M29,48H3c-1.7,0-3-1.3-3-3V3c0-1.7,1.3-3,3-3h26c1.7,0,3,1.3,3,3v7h-2V3c0-0.6-0.4-1-1-1H3C2.4,2,2,2.4,2,3
			v42c0,0.6,0.4,1,1,1h26c0.6,0,1-0.4,1-1v-9h2v9C32,46.7,30.7,48,29,48z"/>
		<path class="st0" d="M18,42H3c-1.7,0-3-1.3-3-3V9c0-1.7,1.3-3,3-3h26c1.7,0,3,1.3,3,3h-2c0-0.6-0.4-1-1-1H3C2.4,8,2,8.4,2,9v30
			c0,0.6,0.4,1,1,1h15V42z"/>
		<path class="st0" d="M29,42h-4v-2h4c0.6,0,1-0.4,1-1h2C32,40.7,30.7,42,29,42z"/>
		<path class="st0" d="M34,30c-2.2,0-4-1.8-4-4h2c0,1.1,0.9,2,2,2s2-0.9,2-2s-0.9-2-2-2c-2.2,0-4-1.8-4-4s1.8-4,4-4s4,1.8,4,4h-2
			c0-1.1-0.9-2-2-2s-2,0.9-2,2s0.9,2,2,2c2.2,0,4,1.8,4,4S36.2,30,34,30z"/>
		<rect x="33" y="29" class="st0" width="2" height="3"/>
		<rect x="33" y="14" class="st0" width="2" height="3"/>
		<rect x="40" y="22" class="st0" width="2" height="2"/>
		<rect x="26" y="22" class="st0" width="2" height="2"/>
		<path class="st0" d="M21,42c-0.1,0-0.2,0-0.3,0c-0.4-0.1-0.7-0.5-0.7-1V23c0-7.7,6.3-14,14-14s14,6.3,14,14s-6.3,14-14,14
			c-2.6,0-5.2-0.7-7.4-2.1l-4.8,6.7C21.6,41.8,21.3,42,21,42z M34,11c-6.6,0-12,5.4-12,12v14.9l3.6-5c0.2-0.2,0.4-0.4,0.6-0.4
			c0.3,0,0.5,0,0.7,0.2c5.4,3.9,12.9,2.7,16.8-2.6s2.7-12.9-2.6-16.8C39.1,11.8,36.6,11,34,11z"/>
		<path class="st0" d="M13,22H9c-1.7,0-3-1.3-3-3v-4c0-1.7,1.3-3,3-3h4c1.7,0,3,1.3,3,3v4C16,20.7,14.7,22,13,22z M9,14
			c-0.6,0-1,0.4-1,1v4c0,0.6,0.4,1,1,1h4c0.6,0,1-0.4,1-1v-4c0-0.6-0.4-1-1-1H9z"/>
		<path class="st0" d="M13,36H9c-1.7,0-3-1.3-3-3v-4c0-1.7,1.3-3,3-3h4c1.7,0,3,1.3,3,3v4C16,34.7,14.7,36,13,36z M9,28
			c-0.6,0-1,0.4-1,1v4c0,0.6,0.4,1,1,1h4c0.6,0,1-0.4,1-1v-4c0-0.6-0.4-1-1-1H9z"/>
	</g>
</g>
</svg>
