<?xml version="1.0" encoding="utf-8"?>
<!-- Generator: Adobe Illustrator 24.0.1, SVG Export Plug-In . SVG Version: 6.00 Build 0)  -->
<svg version="1.1" id="Layer_1" xmlns="http://www.w3.org/2000/svg" xmlns:xlink="http://www.w3.org/1999/xlink" x="0px" y="0px"
	 viewBox="0 0 48 48" style="enable-background:new 0 0 48 48;" xml:space="preserve">
<style type="text/css">
	.st0{fill:#FFFFFF;}
</style>
<title>Asset 49ldpi</title>
<g id="Layer_2_1_">
	<g id="layer_1-2">
		<path class="st0" d="M32.5,35.9C29.9,34.6,28.1,32,28,29h2c0.1,2.2,1.5,4.2,3.5,5.1L32.5,35.9z"/>
		<path class="st0" d="M15.5,35.9l-0.9-1.8c2-1,3.3-2.9,3.5-5.1h2C19.9,32,18.1,34.6,15.5,35.9z"/>
		<path class="st0" d="M24,32c-6.4,0-12-6.5-12-13.9C11.8,11.6,17,6.2,23.5,6c0.2,0,0.4,0,0.5,0c6.5-0.1,11.9,5.1,12,11.6
			c0,0.2,0,0.4,0,0.5C36,25.5,30.4,32,24,32z M24,8c-5.4-0.1-9.9,4.1-10,9.5c0,0.2,0,0.4,0,0.7C14,24.5,18.7,30,24,30
			s10-5.5,10-11.9c0.2-5.4-4-9.9-9.3-10.1C24.4,8,24.2,8,24,8z"/>
		<path class="st0" d="M24,41c-0.2,0-0.3,0-0.5-0.1L14.8,36l-9.6,2l-0.4-2l10-2c0.2,0,0.5,0,0.7,0.1l8.5,4.8l8.5-4.7
			C32.7,34,33,34,33.2,34l10,2l-0.4,2l-9.6-1.9l-8.7,4.8C24.3,41,24.2,41,24,41z"/>
		<path class="st0" d="M24,48C10.7,48,0,37.3,0,24S10.7,0,24,0s24,10.7,24,24S37.3,48,24,48z M24,2C11.8,2,2,11.8,2,24s9.8,22,22,22
			s22-9.8,22-22S36.2,2,24,2z"/>
		<path class="st0" d="M24,26c-2.2,0-4-1.8-4-4h2c0,1.1,0.9,2,2,2s2-0.9,2-2s-0.9-2-2-2c-2.2,0-4-1.8-4-4s1.8-4,4-4s4,1.8,4,4h-2
			c0-1.1-0.9-2-2-2s-2,0.9-2,2s0.9,2,2,2c2.2,0,4,1.8,4,4S26.2,26,24,26z"/>
		<rect x="23" y="25" class="st0" width="2" height="3"/>
		<rect x="23" y="10" class="st0" width="2" height="3"/>
		<rect x="30" y="18" class="st0" width="2" height="2"/>
		<rect x="16" y="18" class="st0" width="2" height="2"/>
	</g>
</g>
</svg>
