<?xml version="1.0" encoding="utf-8"?>
<!-- Generator: Adobe Illustrator 24.0.1, SVG Export Plug-In . SVG Version: 6.00 Build 0)  -->
<svg version="1.1" id="Layer_1" xmlns="http://www.w3.org/2000/svg" xmlns:xlink="http://www.w3.org/1999/xlink" x="0px" y="0px"
	 viewBox="0 0 48 48" style="enable-background:new 0 0 48 48;" xml:space="preserve">
<style type="text/css">
	.st0{fill:#FFFFFF;}
</style>
<title>Asset 4ldpi</title>
<g id="Layer_2_1_">
	<g id="layer_1-2">
		<path class="st0" d="M44,48H4c-2.2,0-4-1.8-4-4V4c0-2.2,1.8-4,4-4h40c2.2,0,4,1.8,4,4v40C48,46.2,46.2,48,44,48z M4,2
			C2.9,2,2,2.9,2,4v40c0,1.1,0.9,2,2,2h40c1.1,0,2-0.9,2-2V4c0-1.1-0.9-2-2-2H4z"/>
		<path class="st0" d="M40,42H8c-1.1,0-2-0.9-2-2V8c0-1.1,0.9-2,2-2h32c1.1,0,2,0.9,2,2v32C42,41.1,41.1,42,40,42z M8,8v32h32V8H8z"
			/>
		<path class="st0" d="M30,35H18c-1.7,0-3-1.3-3-3V16c0-1.7,1.3-3,3-3h12c1.7,0,3,1.3,3,3v16C33,33.7,31.7,35,30,35z M18,15
			c-0.6,0-1,0.4-1,1v16c0,0.6,0.4,1,1,1h12c0.6,0,1-0.4,1-1V16c0-0.6-0.4-1-1-1H18z"/>
		<rect x="19" y="17" class="st0" width="10" height="2"/>
		<rect x="4" y="11" class="st0" width="6" height="2"/>
		<rect x="4" y="16" class="st0" width="6" height="2"/>
		<rect x="4" y="30" class="st0" width="6" height="2"/>
		<rect x="4" y="35" class="st0" width="6" height="2"/>
		<rect x="23" y="21" class="st0" width="2" height="2"/>
		<rect x="27" y="21" class="st0" width="2" height="2"/>
		<rect x="19" y="21" class="st0" width="2" height="2"/>
		<rect x="23" y="25" class="st0" width="2" height="2"/>
		<rect x="27" y="25" class="st0" width="2" height="2"/>
		<rect x="19" y="25" class="st0" width="2" height="2"/>
		<rect x="23" y="29" class="st0" width="2" height="2"/>
		<rect x="27" y="29" class="st0" width="2" height="2"/>
		<rect x="19" y="29" class="st0" width="2" height="2"/>
	</g>
</g>
</svg>
