<?xml version="1.0" encoding="utf-8"?>
<!-- Generator: Adobe Illustrator 24.0.1, SVG Export Plug-In . SVG Version: 6.00 Build 0)  -->
<svg version="1.1" id="Layer_1" xmlns="http://www.w3.org/2000/svg" xmlns:xlink="http://www.w3.org/1999/xlink" x="0px" y="0px"
	 viewBox="0 0 48 48" style="enable-background:new 0 0 48 48;" xml:space="preserve">
<style type="text/css">
	.st0{fill:#FFFFFF;}
</style>
<title>Asset 50ldpi</title>
<g id="Layer_2_1_">
	<g id="layer_1-2">
		<path class="st0" d="M19,38C8.5,38,0,29.5,0,19S8.5,0,19,0s19,8.5,19,19c0,1.5-0.2,2.9-0.5,4.3l-1.9-0.5c0.3-1.3,0.4-2.6,0.4-3.9
			c0-9.4-7.6-17-17-17S2,9.6,2,19s7.6,17,17,17c1.3,0,2.6-0.1,3.9-0.4l0.5,1.9C21.9,37.8,20.5,38,19,38z"/>
		<path class="st0" d="M28,20h-9c-0.6,0-1-0.4-1-1V8h2v10h8V20z"/>
		<rect x="4" y="18" class="st0" width="2" height="2"/>
		<rect x="18" y="32" class="st0" width="2" height="2"/>
		<rect x="32" y="18" class="st0" width="2" height="2"/>
		<rect x="30" y="11" class="st0" width="2" height="2"/>
		<rect x="25" y="6" class="st0" width="2" height="2"/>
		<rect x="18" y="4" class="st0" width="2" height="2"/>
		<rect x="11" y="6" class="st0" width="2" height="2"/>
		<rect x="6" y="11" class="st0" width="2" height="2"/>
		<rect x="6" y="25" class="st0" width="2" height="2"/>
		<rect x="11" y="30" class="st0" width="2" height="2"/>
		<path class="st0" d="M36,43c-2.2,0-4-1.8-4-4h2c0,1.1,0.9,2,2,2s2-0.9,2-2s-0.9-2-2-2c-2.2,0-4-1.8-4-4s1.8-4,4-4s4,1.8,4,4h-2
			c0-1.1-0.9-2-2-2s-2,0.9-2,2c0,1.1,0.9,2,2,2c2.2,0,4,1.8,4,4S38.2,43,36,43z"/>
		<rect x="35" y="42" class="st0" width="2" height="3"/>
		<rect x="35" y="27" class="st0" width="2" height="3"/>
		<rect x="42" y="35" class="st0" width="2" height="2"/>
		<rect x="28" y="35" class="st0" width="2" height="2"/>
		<path class="st0" d="M36,48c-6.6,0-12-5.4-12-12s5.4-12,12-12s12,5.4,12,12S42.6,48,36,48z M36,26c-5.5,0-10,4.5-10,10
			s4.5,10,10,10s10-4.5,10-10S41.5,26,36,26z"/>
	</g>
</g>
</svg>
