<?xml version="1.0" encoding="utf-8"?>
<!-- Generator: Adobe Illustrator 24.0.1, SVG Export Plug-In . SVG Version: 6.00 Build 0)  -->
<svg version="1.1" id="Layer_1" xmlns="http://www.w3.org/2000/svg" xmlns:xlink="http://www.w3.org/1999/xlink" x="0px" y="0px"
	 viewBox="0 0 48 48" style="enable-background:new 0 0 48 48;" xml:space="preserve">
<style type="text/css">
	.st0{fill:#FFFFFF;}
</style>
<title>Asset 51ldpi</title>
<g id="Layer_2_1_">
	<g id="layer_1-2">
		<path class="st0" d="M32,20c-2.2,0-4-1.8-4-4h2c0,1.1,0.9,2,2,2c1.1,0,2-0.9,2-2s-0.9-2-2-2c-2.2,0-4-1.8-4-4s1.8-4,4-4s4,1.8,4,4
			h-2c0-1.1-0.9-2-2-2c-1.1,0-2,0.9-2,2s0.9,2,2,2c2.2,0,4,1.8,4,4S34.2,20,32,20z"/>
		<rect x="31" y="19" class="st0" width="2" height="3"/>
		<rect x="31" y="4" class="st0" width="2" height="3"/>
		<rect x="38" y="12" class="st0" width="2" height="2"/>
		<rect x="24" y="12" class="st0" width="2" height="2"/>
		<rect x="12" y="29" class="st0" width="2" height="2"/>
		<path class="st0" d="M35.3,33.7C29,26.8,19.7,29.8,19.3,30l-0.6-1.9c0.4-0.1,10.9-3.5,18.1,4.3L35.3,33.7z"/>
		<path class="st0" d="M41,36v-2c2.8,0,5-2.2,5-5h2C48,32.9,44.9,36,41,36z"/>
		<path class="st0" d="M37,48h-7c-0.6,0-1-0.4-1-1v-1.3c-3.3,0.4-6.7,0.4-10,0V47c0,0.6-0.4,1-1,1h-7c-0.3,0-0.6-0.1-0.8-0.4
			C10,47.4,10,47.1,10,46.8l0.8-3.2c-1.9-0.8-3.6-2-5-3.6H2c-0.5,0-0.9-0.4-1-0.9l-1-8c0-0.3,0.1-0.6,0.2-0.8C0.4,30.1,0.7,30,1,30
			h4.6c1.1-1.5,2.4-2.8,4-3.9L8,19.2c-0.1-0.3,0-0.7,0.3-0.9C8.5,18,8.9,17.9,9.2,18c3.3,0.7,6.4,2.3,8.8,4.6
			c0.9-0.2,1.9-0.4,2.9-0.5l0.2,2c-1,0.1-2.1,0.3-3.1,0.5c-0.3,0.1-0.7,0-0.9-0.3l-0.1-0.1c-1.8-1.8-4.1-3.2-6.6-4l1.3,6
			c0.1,0.4-0.1,0.8-0.4,1.1c-1.7,1-3.2,2.4-4.3,4.1C6.8,31.8,6.5,32,6.1,32h-4l0.8,6h3.4c0.3,0,0.6,0.2,0.8,0.4
			c1.4,1.7,3.2,3,5.2,3.7c0.5,0.2,0.7,0.7,0.6,1.2L12.3,46H17v-1.4c0-0.6,0.4-1,1-1c0.1,0,0.1,0,0.2,0c3.9,0.6,7.8,0.6,11.7,0
			c0.5-0.1,1.1,0.3,1.1,0.8c0,0.1,0,0.1,0,0.2V46h4.7L35,43c-0.1-0.5,0.1-0.9,0.6-1.1c2.5-1.1,5.4-3.2,5.4-6.9
			c0-2.8-1.6-5.4-4.6-7.5l1.1-1.6c3.5,2.4,5.4,5.7,5.4,9.1s-2,6.4-5.8,8.4l0.8,3.4c0.1,0.3,0,0.6-0.2,0.8C37.6,47.9,37.3,48,37,48z"
			/>
		<path class="st0" d="M32,26c-7.2,0-13-5.8-13-13S24.8,0,32,0s13,5.8,13,13S39.2,26,32,26z M32,2c-6.1,0-11,4.9-11,11s4.9,11,11,11
			s11-4.9,11-11S38.1,2,32,2z"/>
	</g>
</g>
</svg>
