<?xml version="1.0" encoding="utf-8"?>
<!-- Generator: Adobe Illustrator 24.0.1, SVG Export Plug-In . SVG Version: 6.00 Build 0)  -->
<svg version="1.1" id="Layer_1" xmlns="http://www.w3.org/2000/svg" xmlns:xlink="http://www.w3.org/1999/xlink" x="0px" y="0px"
	 viewBox="0 0 48 48" style="enable-background:new 0 0 48 48;" xml:space="preserve">
<style type="text/css">
	.st0{fill:#FFFFFF;}
</style>
<title>Asset 52ldpi</title>
<g id="Layer_2_1_">
	<g id="layer_1-2">
		<path class="st0" d="M48,48h-2V27c0-0.6-0.4-1-1-1h-1c-0.6,0-1,0.4-1,1v1c0,0.6-0.4,1-1,1s-1-0.4-1-1v-1c0-0.6-0.4-1-1-1h-1
			c-0.6,0-1,0.4-1,1v1c0,0.6-0.4,1-1,1s-1-0.4-1-1v-1c0-0.6-0.4-1-1-1h-1c-0.6,0-1,0.4-1,1v1c0,0.6-0.4,1-1,1s-1-0.4-1-1V15
			c0-0.6-0.4-1-1-1h-1c-0.6,0-1,0.4-1,1v21c0,0.3-0.2,0.7-0.5,0.8c-0.3,0.2-0.6,0.2-1,0.1l-8.2-3.7c-0.3-0.1-0.7-0.1-1,0.1
			c-0.3,0.2-0.5,0.5-0.5,0.8v0.3c0,0.6,0.3,1.2,0.8,1.6l11.7,8.4c0.9,0.6,1.4,1.7,1.4,2.8V48h-2v-0.8c0-0.5-0.2-0.9-0.6-1.2
			l-11.7-8.4c-1-0.8-1.7-2-1.7-3.3v-0.3c0-1.7,1.3-3,3-3c0.4,0,0.8,0.1,1.2,0.3l6.8,3.1V15c0-1.7,1.3-3,3-3h1c1.7,0,3,1.3,3,3v9.2
			c0.3-0.1,0.7-0.2,1-0.2h1c0.7,0,1.5,0.3,2,0.8c0.5-0.5,1.3-0.8,2-0.8h1c0.7,0,1.5,0.3,2,0.8c0.5-0.5,1.3-0.8,2-0.8h1
			c1.7,0,3,1.3,3,3V48z"/>
		<path class="st0" d="M12.7,36.9C2.8,33.4-2.4,22.6,1.1,12.7S15.4-2.4,25.3,1.1C32.9,3.8,38,10.9,38,19c0,1.1-0.1,2.1-0.3,3.2
			l-2-0.3c0.2-0.9,0.3-1.9,0.3-2.8c0-9.4-7.6-17-17-17C9.6,2,2,9.6,2,18.9C2,26.2,6.5,32.6,13.3,35L12.7,36.9z"/>
		<path class="st0" d="M13.6,31.9c-7.1-3-10.5-11.2-7.5-18.3S17.3,3.1,24.4,6.1c1.8,0.7,3.4,1.8,4.7,3.2l-1.4,1.4
			c-4.6-4.8-12.2-4.9-17-0.3s-4.9,12.2-0.3,17c1.1,1.2,2.5,2.1,4,2.7L13.6,31.9z"/>
		<path class="st0" d="M19,28c-2.8,0-5-2.2-5-5h2c0,1.7,1.3,3,3,3s3-1.3,3-3s-1.3-3-3-3c-2.8,0-5-2.2-5-5s2.2-5,5-5s5,2.2,5,5h-2
			c0-1.7-1.3-3-3-3s-3,1.3-3,3s1.3,3,3,3c2.8,0,5,2.2,5,5S21.8,28,19,28z"/>
		<rect x="18" y="27" class="st0" width="2" height="3"/>
		<rect x="18" y="8" class="st0" width="2" height="3"/>
		<rect x="10" y="18" class="st0" width="2" height="2"/>
	</g>
</g>
</svg>
