<?xml version="1.0" encoding="utf-8"?>
<!-- Generator: Adobe Illustrator 24.0.1, SVG Export Plug-In . SVG Version: 6.00 Build 0)  -->
<svg version="1.1" id="Layer_1" xmlns="http://www.w3.org/2000/svg" xmlns:xlink="http://www.w3.org/1999/xlink" x="0px" y="0px"
	 viewBox="0 0 48 48" style="enable-background:new 0 0 48 48;" xml:space="preserve">
<style type="text/css">
	.st0{fill:#FFFFFF;}
</style>
<title>Asset 53ldpi</title>
<g id="Layer_2_1_">
	<g id="layer_1-2">
		<path class="st0" d="M24,26c-7.2,0-13-5.8-13-13S16.8,0,24,0s13,5.8,13,13S31.2,26,24,26z M24,2c-6.1,0-11,4.9-11,11s4.9,11,11,11
			s11-4.9,11-11S30.1,2,24,2z"/>
		<path class="st0" d="M24,48c-7.2,0-13-5.8-13-13c0-3.7,1.6-7.3,4.4-9.8l1.3,1.5c-4.6,4-5,11-1,15.5s11,5,15.5,1s5-11,1-15.5
			c-0.3-0.3-0.6-0.7-1-1l1.3-1.5c5.4,4.7,5.9,13,1.2,18.3C31.3,46.4,27.7,48,24,48z"/>
		<path class="st0" d="M10,36H5c-2.8,0-5-2.2-5-5V17c0-2.8,2.2-5,5-5h4v2H5c-1.7,0-3,1.3-3,3v14c0,1.7,1.3,3,3,3h5V36z"/>
		<path class="st0" d="M5.7,17.7l-1.4-1.4L7.6,13L4.3,9.7l1.4-1.4l4,4c0.4,0.4,0.4,1,0,1.4c0,0,0,0,0,0L5.7,17.7z"/>
		<path class="st0" d="M43,36h-4v-2h4c1.7,0,3-1.3,3-3V17c0-1.7-1.3-3-3-3h-5v-2h5c2.8,0,5,2.2,5,5v14C48,33.8,45.8,36,43,36z"/>
		<path class="st0" d="M42.3,39.7l-4-4c-0.4-0.4-0.4-1,0-1.4c0,0,0,0,0,0l4-4l1.4,1.4L40.4,35l3.3,3.3L42.3,39.7z"/>
		<path class="st0" d="M24,20c-2.2,0-4-1.8-4-4h2c0,1.1,0.9,2,2,2s2-0.9,2-2s-0.9-2-2-2c-2.2,0-4-1.8-4-4s1.8-4,4-4s4,1.8,4,4h-2
			c0-1.1-0.9-2-2-2s-2,0.9-2,2s0.9,2,2,2c2.2,0,4,1.8,4,4S26.2,20,24,20z"/>
		<rect x="23" y="19" class="st0" width="2" height="3"/>
		<rect x="23" y="4" class="st0" width="2" height="3"/>
		<rect x="30" y="12" class="st0" width="2" height="2"/>
		<rect x="16" y="12" class="st0" width="2" height="2"/>
		<path class="st0" d="M27,42h-3c-2.8,0-5-2.2-5-5v-4c0-2.8,2.2-5,5-5h3v2h-3c-1.7,0-3,1.3-3,3v4c0,1.7,1.3,3,3,3h3V42z"/>
		<rect x="17" y="32" class="st0" width="8" height="2"/>
		<rect x="17" y="36" class="st0" width="8" height="2"/>
		<rect x="29" y="32" class="st0" width="2" height="2"/>
		<rect x="29" y="36" class="st0" width="2" height="2"/>
	</g>
</g>
</svg>
