<?xml version="1.0" encoding="utf-8"?>
<!-- Generator: Adobe Illustrator 24.0.1, SVG Export Plug-In . SVG Version: 6.00 Build 0)  -->
<svg version="1.1" id="Layer_1" xmlns="http://www.w3.org/2000/svg" xmlns:xlink="http://www.w3.org/1999/xlink" x="0px" y="0px"
	 viewBox="0 0 48 48" style="enable-background:new 0 0 48 48;" xml:space="preserve">
<style type="text/css">
	.st0{fill:#FFFFFF;}
</style>
<title>Asset 54ldpi</title>
<g id="Layer_2_1_">
	<g id="layer_1-2">
		<path class="st0" d="M47,42H1c-0.6,0-1-0.4-1-1V7c0-0.6,0.4-1,1-1h46c0.6,0,1,0.4,1,1v34C48,41.6,47.6,42,47,42z M2,40h44V8H2V40z
			"/>
		<path class="st0" d="M37,37H11c-0.6,0-1-0.4-1-1c0-2.2-1.8-4-4-4c-0.6,0-1-0.4-1-1V17c0-0.6,0.4-1,1-1c2.2,0,4-1.8,4-4
			c0-0.6,0.4-1,1-1h26c0.6,0,1,0.4,1,1c0,2.2,1.8,4,4,4c0.6,0,1,0.4,1,1v14c0,0.6-0.4,1-1,1c-2.2,0-4,1.8-4,4C38,36.6,37.6,37,37,37
			z M11.9,35h24.2c0.4-2.5,2.4-4.5,4.9-4.9V17.9c-2.5-0.4-4.5-2.4-4.9-4.9H11.9c-0.4,2.5-2.4,4.5-4.9,4.9v12.2
			C9.5,30.5,11.5,32.5,11.9,35z"/>
		<path class="st0" d="M35,28c-2.2,0-4-1.8-4-4s1.8-4,4-4s4,1.8,4,4S37.2,28,35,28z M35,22c-1.1,0-2,0.9-2,2s0.9,2,2,2s2-0.9,2-2
			S36.1,22,35,22z"/>
		<path class="st0" d="M13,28c-2.2,0-4-1.8-4-4s1.8-4,4-4s4,1.8,4,4S15.2,28,13,28z M13,22c-1.1,0-2,0.9-2,2s0.9,2,2,2s2-0.9,2-2
			S14.1,22,13,22z"/>
		<path class="st0" d="M24,31c-2.2,0-4-1.8-4-4h2c0,1.1,0.9,2,2,2s2-0.9,2-2s-0.9-2-2-2c-2.2,0-4-1.8-4-4s1.8-4,4-4s4,1.8,4,4h-2
			c0-1.1-0.9-2-2-2s-2,0.9-2,2s0.9,2,2,2c2.2,0,4,1.8,4,4S26.2,31,24,31z"/>
		<rect x="23" y="30" class="st0" width="2" height="3"/>
		<rect x="23" y="15" class="st0" width="2" height="3"/>
		<rect x="6" y="46" class="st0" width="6" height="2"/>
		<rect x="14" y="46" class="st0" width="15" height="2"/>
		<rect x="21" class="st0" width="8" height="2"/>
		<rect x="31" class="st0" width="10" height="2"/>
	</g>
</g>
</svg>
