<?xml version="1.0" encoding="utf-8"?>
<!-- Generator: Adobe Illustrator 24.0.1, SVG Export Plug-In . SVG Version: 6.00 Build 0)  -->
<svg version="1.1" id="Layer_1" xmlns="http://www.w3.org/2000/svg" xmlns:xlink="http://www.w3.org/1999/xlink" x="0px" y="0px"
	 viewBox="0 0 48 48" style="enable-background:new 0 0 48 48;" xml:space="preserve">
<style type="text/css">
	.st0{fill:#FFFFFF;}
</style>
<title>Asset 14ldpi</title>
<g id="Layer_2_1_">
	<g id="layer_1-2">
		<path class="st0" d="M29,48H7c-0.6,0-1-0.4-1-1v-7h2v6h21V48z"/>
		<path class="st0" d="M47,48H35v-2h11V10H8v6H6V9c0-0.6,0.4-1,1-1h40c0.6,0,1,0.4,1,1v38C48,47.6,47.6,48,47,48z"/>
		<path class="st0" d="M48,9h-2V2H8v7H6V1c0-0.6,0.4-1,1-1h40c0.6,0,1,0.4,1,1V9z"/>
		<rect x="10" y="4" class="st0" width="2" height="2"/>
		<rect x="14" y="4" class="st0" width="2" height="2"/>
		<rect x="18" y="4" class="st0" width="2" height="2"/>
		<path class="st0" d="M32,48L32,48c-0.4,0-0.8-0.3-0.9-0.7l-6-17c-0.2-0.5,0.1-1.1,0.6-1.3c0.2-0.1,0.4-0.1,0.6,0l17,6
			c0.4,0.1,0.7,0.5,0.7,0.9c0,0.4-0.3,0.8-0.7,1l-7.6,2.8l-2.8,7.6C32.8,47.7,32.4,48,32,48z M27.6,31.6L32,44.1l2-5.4
			c0.1-0.3,0.3-0.5,0.6-0.6l5.4-2L27.6,31.6z"/>
		<path class="st0" d="M15,43C6.7,43,0,36.3,0,28s6.7-15,15-15s15,6.7,15,15c0,1.1-0.1,2.1-0.3,3.2l-2-0.4c0.2-0.9,0.3-1.8,0.3-2.7
			c0-7.2-5.8-13-13-13S2,20.8,2,28s5.8,13,13,13c4.9,0,9.4-2.8,11.6-7.2l1.8,0.9C25.9,39.8,20.7,43,15,43z"/>
		<path class="st0" d="M15,35c-2.2,0-4-1.8-4-4h2c0,1.1,0.9,2,2,2s2-0.9,2-2c0-1.1-0.9-2-2-2c-2.2,0-4-1.8-4-4s1.8-4,4-4s4,1.8,4,4
			h-2c0-1.1-0.9-2-2-2s-2,0.9-2,2s0.9,2,2,2c2.2,0,4,1.8,4,4S17.2,35,15,35z"/>
		<rect x="14" y="34" class="st0" width="2" height="3"/>
		<rect x="14" y="19" class="st0" width="2" height="3"/>
		<rect x="22" y="27" class="st0" width="2" height="2"/>
		<rect x="6" y="27" class="st0" width="2" height="2"/>
	</g>
</g>
</svg>
