<?xml version="1.0" encoding="utf-8"?>
<!-- Generator: Adobe Illustrator 24.0.1, SVG Export Plug-In . SVG Version: 6.00 Build 0)  -->
<svg version="1.1" id="Layer_1" xmlns="http://www.w3.org/2000/svg" xmlns:xlink="http://www.w3.org/1999/xlink" x="0px" y="0px"
	 viewBox="0 0 48 48" style="enable-background:new 0 0 48 48;" xml:space="preserve">
<style type="text/css">
	.st0{fill:#FFFFFF;}
</style>
<title>Asset 58ldpi</title>
<g id="Layer_2_1_">
	<g id="layer_1-2">
		<path class="st0" d="M24,24c-0.3,0-0.6-0.1-0.8-0.3l-7-8l1.5-1.3l6.3,7.1l6.3-7.1l1.5,1.3l-7,8C24.6,23.9,24.3,24,24,24z"/>
		<path class="st0" d="M24,48C10.7,48,0,37.3,0,24S10.7,0,24,0s24,10.7,24,24S37.3,48,24,48z M24,2C11.8,2,2,11.8,2,24s9.8,22,22,22
			s22-9.8,22-22S36.2,2,24,2z"/>
		<path class="st0" d="M24,40c-8.8,0-16-7.2-16-16S15.2,8,24,8s16,7.2,16,16S32.8,40,24,40z M24,10c-7.7,0-14,6.3-14,14
			s6.3,14,14,14s14-6.3,14-14S31.7,10,24,10z"/>
		<rect x="4" y="23" class="st0" width="2" height="2"/>
		<rect x="42" y="23" class="st0" width="2" height="2"/>
		<rect x="33" y="7" class="st0" width="2" height="2"/>
		<rect x="23" y="4" class="st0" width="2" height="2"/>
		<rect x="23" y="42" class="st0" width="2" height="2"/>
		<rect x="13" y="7" class="st0" width="2" height="2"/>
		<rect x="33" y="39" class="st0" width="2" height="2"/>
		<rect x="13" y="39" class="st0" width="2" height="2"/>
		<rect x="6" y="14" class="st0" width="2" height="2"/>
		<rect x="6" y="32" class="st0" width="2" height="2"/>
		<rect x="40" y="14" class="st0" width="2" height="2"/>
		<rect x="40" y="32" class="st0" width="2" height="2"/>
		<rect x="23" y="23" class="st0" width="2" height="12"/>
		<rect x="19" y="25" class="st0" width="10" height="2"/>
		<rect x="19" y="29" class="st0" width="10" height="2"/>
	</g>
</g>
</svg>
