<?xml version="1.0" encoding="utf-8"?>
<!-- Generator: Adobe Illustrator 24.0.1, SVG Export Plug-In . SVG Version: 6.00 Build 0)  -->
<svg version="1.1" id="Layer_1" xmlns="http://www.w3.org/2000/svg" xmlns:xlink="http://www.w3.org/1999/xlink" x="0px" y="0px"
	 viewBox="0 0 48 48" style="enable-background:new 0 0 48 48;" xml:space="preserve">
<style type="text/css">
	.st0{fill:#FFFFFF;}
</style>
<title>Asset 5ldpi</title>
<g id="Layer_2_1_">
	<g id="layer_1-2">
		<path class="st0" d="M3.7,18.3C3.2,17.2,3,16.1,3,15c0-4,2.9-7.3,6.9-7.9C10.2,7,10.6,7,11,7c2.1,0,4.1,0.8,5.6,2.3l-1.4,1.4
			C14.1,9.6,12.6,9,11,9c-0.3,0-0.6,0-0.9,0.1c-3.3,0.5-5.6,3.5-5.1,6.8c0.1,0.6,0.2,1.1,0.5,1.6L3.7,18.3z"/>
		<path class="st0" d="M4.1,31C0.3,28.9-1.1,24,1,20.1c0.7-1.3,1.8-2.4,3.1-3.1c1.2-0.7,2.5-1,3.9-1v2c-3.3,0-6,2.7-6,6
			c0,2.2,1.2,4.2,3.1,5.2L4.1,31z"/>
		<path class="st0" d="M9.9,40.9C5.9,40.3,3,37,3,33c0-1.1,0.2-2.2,0.7-3.3c0.8-1.7,2.1-3.1,3.9-4l0.9,1.8c-1.3,0.6-2.3,1.7-2.9,3
			c-1.4,3,0,6.6,3,7.9c0.5,0.2,1,0.4,1.6,0.5L9.9,40.9z"/>
		<path class="st0" d="M17,48c-4.4,0-8-3.6-8-8v-0.1c0-2.1,0.8-4,2.3-5.5l1.4,1.4c-1.1,1.1-1.7,2.6-1.7,4.1V40c0,3.3,2.7,6,6,6
			s6-2.7,6-6h2C25,44.4,21.4,48,17,48z"/>
		<path class="st0" d="M9,8.1V8c0-4.4,3.6-8,8-8s8,3.6,8,8h-2c0-3.3-2.7-6-6-6s-6,2.7-6,6L9,8.1l1,0L9,8.1z"/>
		<path class="st0" d="M37,41c-2.1,0-4.1-0.8-5.6-2.3l1.4-1.4c1.1,1.1,2.6,1.7,4.2,1.7c0.3,0,0.6,0,0.8-0.1c3.3-0.5,5.6-3.5,5.1-6.8
			c-0.1-0.6-0.2-1.1-0.5-1.6l1.8-0.8c0.5,1,0.7,2.1,0.7,3.3c0,4-2.9,7.3-6.9,7.9C37.8,41,37.4,41,37,41z"/>
		<path class="st0" d="M40,32v-2c3.3,0,6-2.7,6-6c0-2.2-1.2-4.2-3.1-5.2l1-1.8c3.9,2.1,5.3,7,3.1,10.9c-0.7,1.3-1.8,2.4-3.1,3.1
			C42.7,31.7,41.4,32,40,32z"/>
		<path class="st0" d="M40.4,22.2l-0.9-1.8c1.3-0.6,2.3-1.7,2.9-3c1.4-3,0-6.6-3-7.9c-0.5-0.2-1-0.4-1.6-0.5l0.3-2
			c4,0.6,6.9,4,6.9,8c0,1.1-0.2,2.2-0.7,3.3C43.5,20,42.1,21.4,40.4,22.2z"/>
		<path class="st0" d="M36.7,13.6l-1.4-1.4c1.1-1.1,1.7-2.6,1.7-4.1V8c0-3.3-2.7-6-6-6s-6,2.7-6,6v3h-2V8c0-4.4,3.6-8,8-8s8,3.6,8,8
			v0.1C39,10.2,38.2,12.1,36.7,13.6z"/>
		<path class="st0" d="M31,48c-4.4,0-8-3.6-8-8v-3h2v3c0,3.3,2.7,6,6,6s6-2.7,6-6l2-0.1h-1h1V40C39,44.4,35.4,48,31,48z"/>
		<path class="st0" d="M24,36c-6.6,0-12-5.4-12-12s5.4-12,12-12s12,5.4,12,12S30.6,36,24,36z M24,14c-5.5,0-10,4.5-10,10
			s4.5,10,10,10s10-4.5,10-10S29.5,14,24,14z"/>
		<path class="st0" d="M24,31c-2.2,0-4-1.8-4-4h2c0,1.1,0.9,2,2,2s2-0.9,2-2s-0.9-2-2-2c-2.2,0-4-1.8-4-4s1.8-4,4-4s4,1.8,4,4h-2
			c0-1.1-0.9-2-2-2s-2,0.9-2,2s0.9,2,2,2c2.2,0,4,1.8,4,4S26.2,31,24,31z"/>
		<rect x="23" y="30" class="st0" width="2" height="3"/>
		<rect x="23" y="15" class="st0" width="2" height="3"/>
		<rect x="30" y="23" class="st0" width="2" height="2"/>
		<rect x="16" y="23" class="st0" width="2" height="2"/>
	</g>
</g>
</svg>
