<?xml version="1.0" encoding="utf-8"?>
<!-- Generator: Adobe Illustrator 24.0.1, SVG Export Plug-In . SVG Version: 6.00 Build 0)  -->
<svg version="1.1" id="Layer_1" xmlns="http://www.w3.org/2000/svg" xmlns:xlink="http://www.w3.org/1999/xlink" x="0px" y="0px"
	 viewBox="0 0 48 42" style="enable-background:new 0 0 48 42;" xml:space="preserve">
<style type="text/css">
	.st0{fill:#FFFFFF;}
</style>
<title>Asset 6ldpi</title>
<g id="Layer_2_1_">
	<g id="layer_1-2">
		<rect x="11" y="35" class="st0" width="2" height="2"/>
		<path class="st0" d="M12,42c-3.3,0-6-2.7-6-6s2.7-6,6-6s6,2.7,6,6S15.3,42,12,42z M12,32c-2.2,0-4,1.8-4,4s1.8,4,4,4s4-1.8,4-4
			S14.2,32,12,32z"/>
		<rect x="36" y="35" class="st0" width="2" height="2"/>
		<path class="st0" d="M37,42c-3.3,0-6-2.7-6-6s2.7-6,6-6s6,2.7,6,6S40.3,42,37,42z M37,32c-2.2,0-4,1.8-4,4s1.8,4,4,4s4-1.8,4-4
			S39.2,32,37,32z"/>
		<path class="st0" d="M45,38h-3v-2h3c0.6,0,1-0.4,1-1v-7.5c0-1-0.7-1.8-1.6-2L41.8,25c-0.4-0.1-0.7-0.3-0.8-0.7L36.6,9.4
			c-0.3-0.8-1-1.4-1.9-1.4H26v28h6v2h-7c-0.6,0-1-0.4-1-1V7c0-0.6,0.4-1,1-1h9.7c1.8,0,3.3,1.2,3.8,2.9l4.3,14.3l2,0.4
			c1.9,0.4,3.2,2,3.2,3.9V35C48,36.7,46.7,38,45,38z"/>
		<path class="st0" d="M25,38h-8v-2h7V26H2v9c0,0.6,0.4,1,1,1h4v2H3c-1.7,0-3-1.3-3-3V25c0-0.6,0.4-1,1-1h24c0.6,0,1,0.4,1,1v12
			C26,37.6,25.6,38,25,38z"/>
		<path class="st0" d="M41.8,25l-7.6-1.5c-1.9-0.4-3.2-2-3.2-3.9V7h2v12.5c0,1,0.7,1.8,1.6,2l7.6,1.5L41.8,25z"/>
		<path class="st0" d="M25,26H1c-0.6,0-1-0.4-1-1V1c0-0.6,0.4-1,1-1h24c0.6,0,1,0.4,1,1v24C26,25.6,25.6,26,25,26z M2,24h22V2H2V24z
			"/>
		<path class="st0" d="M13,20c-2.2,0-4-1.8-4-4h2c0,1.1,0.9,2,2,2s2-0.9,2-2s-0.9-2-2-2c-2.2,0-4-1.8-4-4s1.8-4,4-4s4,1.8,4,4h-2
			c0-1.1-0.9-2-2-2s-2,0.9-2,2s0.9,2,2,2c2.2,0,4,1.8,4,4S15.2,20,13,20z"/>
		<rect x="12" y="19" class="st0" width="2" height="3"/>
		<rect x="12" y="4" class="st0" width="2" height="3"/>
		<rect x="19" y="12" class="st0" width="2" height="2"/>
		<rect x="5" y="12" class="st0" width="2" height="2"/>
	</g>
</g>
</svg>
