<?xml version="1.0" encoding="utf-8"?>
<!-- Generator: Adobe Illustrator 24.0.1, SVG Export Plug-In . SVG Version: 6.00 Build 0)  -->
<svg version="1.1" id="Layer_1" xmlns="http://www.w3.org/2000/svg" xmlns:xlink="http://www.w3.org/1999/xlink" x="0px" y="0px"
	 viewBox="0 0 48 48" style="enable-background:new 0 0 48 48;" xml:space="preserve">
<style type="text/css">
	.st0{fill:#FFFFFF;}
</style>
<title>Asset 7ldpi</title>
<g id="Layer_2_1_">
	<g id="layer_1-2">
		<path class="st0" d="M24,44c-0.3,0-0.6-0.1-0.7-0.3L14.6,34H4c-2.2,0-4-1.8-4-4V4c0-2.2,1.8-4,4-4h40c2.2,0,4,1.8,4,4v26
			c0,2.2-1.8,4-4,4H33.5l-8.7,9.7C24.6,43.9,24.3,44,24,44z M4,2C2.9,2,2,2.9,2,4v26c0,1.1,0.9,2,2,2h11c0.3,0,0.6,0.1,0.7,0.3
			l8.3,9.2l8.3-9.2c0.2-0.2,0.5-0.3,0.7-0.3h11c1.1,0,2-0.9,2-2V4c0-1.1-0.9-2-2-2H4z"/>
		<path class="st0" d="M47,48H1c-0.6,0-1-0.4-1-1c0-0.2,0.1-0.5,0.2-0.7l7-8C7.4,38.1,7.7,38,8,38h12v2H8.4l-5.3,6h41.6l-5.3-6H28
			v-2h12c0.3,0,0.6,0.1,0.8,0.3l7,8c0.4,0.4,0.3,1-0.1,1.4C47.5,47.9,47.2,48,47,48z"/>
		<path class="st0" d="M39,29H9c-0.6,0-1-0.4-1-1c0-1.1-0.9-2-2-2c-0.6,0-1-0.4-1-1V9c0-0.6,0.4-1,1-1c1.1,0,2-0.9,2-2
			c0-0.6,0.4-1,1-1h30c0.6,0,1,0.4,1,1c0,1.1,0.9,2,2,2c0.6,0,1,0.4,1,1v16c0,0.6-0.4,1-1,1c-1.1,0-2,0.9-2,2C40,28.6,39.6,29,39,29
			z M9.9,27h28.3c0.4-1.4,1.5-2.5,2.9-2.9V9.9c-1.4-0.4-2.5-1.5-2.9-2.9H9.9C9.5,8.4,8.4,9.5,7,9.9v14.3C8.4,24.5,9.5,25.6,9.9,27z"
			/>
		<path class="st0" d="M24,24c-2.2,0-4-1.8-4-4h2c0,1.1,0.9,2,2,2s2-0.9,2-2s-0.9-2-2-2c-2.2,0-4-1.8-4-4s1.8-4,4-4s4,1.8,4,4h-2
			c0-1.1-0.9-2-2-2s-2,0.9-2,2s0.9,2,2,2c2.2,0,4,1.8,4,4S26.2,24,24,24z"/>
		<rect x="23" y="23" class="st0" width="2" height="3"/>
		<rect x="23" y="8" class="st0" width="2" height="3"/>
		<path class="st0" d="M34,21c-2.2,0-4-1.8-4-4s1.8-4,4-4s4,1.8,4,4S36.2,21,34,21z M34,15c-1.1,0-2,0.9-2,2s0.9,2,2,2s2-0.9,2-2
			S35.1,15,34,15z"/>
		<path class="st0" d="M14,21c-2.2,0-4-1.8-4-4s1.8-4,4-4s4,1.8,4,4S16.2,21,14,21z M14,15c-1.1,0-2,0.9-2,2s0.9,2,2,2s2-0.9,2-2
			S15.1,15,14,15z"/>
	</g>
</g>
</svg>
