<?xml version="1.0" encoding="utf-8"?>
<!-- Generator: Adobe Illustrator 24.0.1, SVG Export Plug-In . SVG Version: 6.00 Build 0)  -->
<svg version="1.1" id="Layer_1" xmlns="http://www.w3.org/2000/svg" xmlns:xlink="http://www.w3.org/1999/xlink" x="0px" y="0px"
	 viewBox="0 0 48 48" style="enable-background:new 0 0 48 48;" xml:space="preserve">
<style type="text/css">
	.st0{fill:#FFFFFF;}
</style>
<title>Asset 8ldpi</title>
<g id="Layer_2_1_">
	<g id="layer_1-2">
		<path class="st0" d="M19,48C8.5,48,0,39.5,0,29s8.5-19,19-19c1.1,0,2.1,0.1,3.2,0.3l-0.3,2C20.9,12.1,19.9,12,19,12
			C9.6,12,2,19.6,2,29c0,9.4,7.6,17,17,17s17-7.6,17-17c0-1-0.1-1.9-0.2-2.8l2-0.3c0.2,1.1,0.3,2.1,0.2,3.2C38,39.5,29.5,48,19,48z"
			/>
		<path class="st0" d="M19,48c-6.2,0-11-8.3-11-19s4.8-19,11-19v2c-4.9,0-9,7.8-9,17s4.1,17,9,17s9-7.8,9-17c0-0.7,0-1.3-0.1-1.9
			l2-0.1c0,0.7,0.1,1.4,0.1,2.1C30,39.7,25.2,48,19,48z"/>
		<rect x="2" y="22" class="st0" width="20" height="2"/>
		<rect x="2" y="34" class="st0" width="34" height="2"/>
		<rect x="18" y="11" class="st0" width="2" height="36"/>
		<path class="st0" d="M36,19c-2.2,0-4-1.8-4-4h2c0,1.1,0.9,2,2,2s2-0.9,2-2s-0.9-2-2-2c-2.2,0-4-1.8-4-4s1.8-4,4-4s4,1.8,4,4h-2
			c0-1.1-0.9-2-2-2s-2,0.9-2,2s0.9,2,2,2c2.2,0,4,1.8,4,4S38.2,19,36,19z"/>
		<rect x="35" y="18" class="st0" width="2" height="3"/>
		<rect x="35" y="3" class="st0" width="2" height="3"/>
		<rect x="42" y="11" class="st0" width="2" height="2"/>
		<rect x="28" y="11" class="st0" width="2" height="2"/>
		<path class="st0" d="M25,28c-0.1,0-0.3,0-0.4-0.1C24.2,27.8,24,27.4,24,27V12c0-6.6,5.4-12,12-12s12,5.4,12,12c0,6.6-5.4,12-12,12
			c-1.7,0-3.4-0.4-5-1.1l-5.3,4.9C25.5,27.9,25.3,28,25,28z M36,2c-5.5,0-10,4.5-10,10v12.7l4.1-3.7c0.3-0.3,0.8-0.3,1.1-0.1
			c4.9,2.6,10.9,0.7,13.5-4.2c2.6-4.9,0.7-10.9-4.2-13.5C39.1,2.4,37.6,2,36,2z"/>
	</g>
</g>
</svg>
