<?xml version="1.0" encoding="utf-8"?>
<!-- Generator: Adobe Illustrator 24.0.1, SVG Export Plug-In . SVG Version: 6.00 Build 0)  -->
<svg version="1.1" id="Layer_1" xmlns="http://www.w3.org/2000/svg" xmlns:xlink="http://www.w3.org/1999/xlink" x="0px" y="0px"
	 viewBox="0 0 48 48" style="enable-background:new 0 0 48 48;" xml:space="preserve">
<style type="text/css">
	.st0{fill:#FFFFFF;}
</style>
<title>Asset 15ldpi</title>
<g id="Layer_2_1_">
	<g id="layer_1-2">
		<path class="st0" d="M36,43c-2.2,0-4-1.8-4-4h2c0,1.1,0.9,2,2,2s2-0.9,2-2s-0.9-2-2-2c-2.2,0-4-1.8-4-4s1.8-4,4-4s4,1.8,4,4h-2
			c0-1.1-0.9-2-2-2s-2,0.9-2,2c0,1.1,0.9,2,2,2c2.2,0,4,1.8,4,4S38.2,43,36,43z"/>
		<rect x="35" y="27" class="st0" width="2" height="3"/>
		<rect x="35" y="42" class="st0" width="2" height="3"/>
		<rect x="42" y="35" class="st0" width="2" height="2"/>
		<rect x="28" y="35" class="st0" width="2" height="2"/>
		<path class="st0" d="M36,48c-6.6,0-12-5.4-12-12V20c0-0.4,0.3-0.8,0.6-0.9c0.4-0.2,0.8-0.1,1.1,0.3l5.3,5.8
			c6-2.7,13.1-0.1,15.9,5.9c2.7,6,0.1,13.1-5.9,15.9C39.4,47.6,37.7,48,36,48z M26,22.6V36c0,5.5,4.5,10,10,10c5.5,0,10-4.5,10-10
			c0-5.5-4.5-10-10-10c-1.7,0-3.3,0.4-4.7,1.2c-0.4,0.2-0.9,0.1-1.2-0.2L26,22.6z"/>
		<path class="st0" d="M21,42C9.4,42,0,32.6,0,21S9.4,0,21,0s21,9.4,21,21c0,1.7-0.2,3.5-0.6,5.2l-1.9-0.5c0.4-1.5,0.6-3.1,0.6-4.7
			c0-10.5-8.5-19-19-19S2,10.5,2,21s8.5,19,19,19c1.6,0,3.1-0.2,4.7-0.6l0.5,1.9C24.5,41.8,22.7,42,21,42z"/>
		<path class="st0" d="M21,31c-5.5,0-10-4.5-10-10s4.5-10,10-10s10,4.5,10,10h-2c0-4.4-3.6-8-8-8s-8,3.6-8,8s3.6,8,8,8
			c1.2,0,2.4-0.3,3.5-0.8l0.9,1.8C24.1,30.6,22.5,31,21,31z"/>
		<rect x="20" y="1" class="st0" width="2" height="11"/>
		<rect x="28.4" y="13.5" transform="matrix(0.8928 -0.4504 0.4504 0.8928 -2.8844 16.8409)" class="st0" width="11" height="2"/>
		<rect x="7.5" y="32.1" transform="matrix(0.5489 -0.8359 0.8359 0.5489 -21.7901 25.8421)" class="st0" width="11" height="2"/>
	</g>
</g>
</svg>
