<?xml version="1.0" encoding="utf-8"?>
<!-- Generator: Adobe Illustrator 24.0.1, SVG Export Plug-In . SVG Version: 6.00 Build 0)  -->
<svg version="1.1" id="Layer_1" xmlns="http://www.w3.org/2000/svg" xmlns:xlink="http://www.w3.org/1999/xlink" x="0px" y="0px"
	 viewBox="0 0 48 48" style="enable-background:new 0 0 48 48;" xml:space="preserve">
<style type="text/css">
	.st0{fill:#FFFFFF;}
</style>
<title>Asset 9ldpi</title>
<g id="Layer_2_1_">
	<g id="layer_1-2">
		<rect x="18" y="7" class="st0" width="2" height="33"/>
		<rect x="7" y="21" class="st0" width="16" height="2"/>
		<path class="st0" d="M19,48c-0.2,0-0.4-0.1-0.5-0.2l-18-12C0.2,35.6,0,35.3,0,35V8c0-0.6,0.4-1,1-1c3.3,0,6-2.7,6-6
			c0-0.6,0.4-1,1-1h19v2H8.9C8.5,5.6,5.6,8.5,2,8.9v25.5l17,11.3l17-11.3V25h2v10c0,0.3-0.2,0.6-0.5,0.8l-18,12
			C19.4,47.9,19.2,48,19,48z"/>
		<path class="st0" d="M19,41c-0.2,0-0.4-0.1-0.5-0.2l-12-8C6.2,32.6,6,32.3,6,32V13c0-0.6,0.4-1,1-1c2.8,0,5-2.2,5-5
			c0-0.6,0.4-1,1-1h10v2h-9.1c-0.4,3.1-2.9,5.5-5.9,5.9v17.5l11,7.3l11-7.3V25h2v7c0,0.3-0.2,0.6-0.5,0.8l-12,8
			C19.4,40.9,19.2,41,19,41z"/>
		<path class="st0" d="M36,19c-2.2,0-4-1.8-4-4h2c0,1.1,0.9,2,2,2s2-0.9,2-2s-0.9-2-2-2c-2.2,0-4-1.8-4-4s1.8-4,4-4s4,1.8,4,4h-2
			c0-1.1-0.9-2-2-2s-2,0.9-2,2s0.9,2,2,2c2.2,0,4,1.8,4,4S38.2,19,36,19z"/>
		<rect x="35" y="18" class="st0" width="2" height="3"/>
		<rect x="35" y="3" class="st0" width="2" height="3"/>
		<rect x="42" y="11" class="st0" width="2" height="2"/>
		<rect x="28" y="11" class="st0" width="2" height="2"/>
		<path class="st0" d="M25,28c-0.1,0-0.3,0-0.4-0.1C24.2,27.8,24,27.4,24,27V12c0-6.6,5.4-12,12-12s12,5.4,12,12c0,6.6-5.4,12-12,12
			c-1.7,0-3.4-0.4-5-1.1l-5.3,4.9C25.5,27.9,25.3,28,25,28z M36,2c-5.5,0-10,4.5-10,10v12.7l4.1-3.7c0.3-0.3,0.8-0.3,1.1-0.1
			c4.9,2.6,10.9,0.7,13.5-4.2c2.6-4.9,0.7-10.9-4.2-13.5C39.1,2.4,37.6,2,36,2z"/>
	</g>
</g>
</svg>
