<?xml version="1.0" encoding="utf-8"?>
<!-- Generator: Adobe Illustrator 24.0.1, SVG Export Plug-In . SVG Version: 6.00 Build 0)  -->
<svg version="1.1" id="Layer_1" xmlns="http://www.w3.org/2000/svg" xmlns:xlink="http://www.w3.org/1999/xlink" x="0px" y="0px"
	 viewBox="0 0 48 48" style="enable-background:new 0 0 48 48;" xml:space="preserve">
<style type="text/css">
	.st0{fill:#FFFFFF;}
</style>
<title>Asset 16ldpi</title>
<g id="Layer_2_1_">
	<g id="layer_1-2">
		<path class="st0" d="M47,42H1c-0.3,0-0.6-0.2-0.8-0.5C0,41.3,0,40.9,0.1,40.6l5-12C5.2,28.2,5.6,28,6,28h36c0.4,0,0.8,0.2,0.9,0.6
			l5,12c0.1,0.3,0.1,0.7-0.1,0.9C47.6,41.8,47.3,42,47,42z M2.5,40h43l-4.2-10H6.7L2.5,40z"/>
		<path class="st0" d="M42,30H6c-0.6,0-1-0.4-1-1V3c0-1.7,1.3-3,3-3h32c1.7,0,3,1.3,3,3v26C43,29.6,42.6,30,42,30z M7,28h34V3
			c0-0.6-0.4-1-1-1H8C7.4,2,7,2.4,7,3V28z"/>
		<path class="st0" d="M34,25h-5v-2h4.1c0.4-1.4,1.5-2.5,2.9-2.9V9.9c-1.4-0.4-2.5-1.5-2.9-2.9H29V5h5c0.6,0,1,0.4,1,1
			c0,1.1,0.9,2,2,2c0.6,0,1,0.4,1,1v12c0,0.6-0.4,1-1,1c-1.1,0-2,0.9-2,2C35,24.6,34.6,25,34,25z"/>
		<path class="st0" d="M19,25h-5c-0.6,0-1-0.4-1-1c0-1.1-0.9-2-2-2c-0.6,0-1-0.4-1-1V9c0-0.6,0.4-1,1-1c1.1,0,2-0.9,2-2
			c0-0.6,0.4-1,1-1h5v2h-4.1c-0.4,1.4-1.5,2.5-2.9,2.9v10.3c1.4,0.4,2.5,1.5,2.9,2.9H19V25z"/>
		<path class="st0" d="M45,48H3c-1.7,0-3-1.3-3-3v-4c0-0.6,0.4-1,1-1h46c0.6,0,1,0.4,1,1v4C48,46.7,46.7,48,45,48z M2,42v3
			c0,0.6,0.4,1,1,1h42c0.6,0,1-0.4,1-1v-3H2z"/>
		<rect x="23" y="32" class="st0" width="2" height="2"/>
		<rect x="21" y="36" class="st0" width="2" height="2"/>
		<rect x="27" y="32" class="st0" width="2" height="2"/>
		<rect x="25" y="36" class="st0" width="2" height="2"/>
		<rect x="31" y="32" class="st0" width="2" height="2"/>
		<rect x="31" y="14" class="st0" width="2" height="2"/>
		<rect x="15" y="14" class="st0" width="2" height="2"/>
		<rect x="29" y="36" class="st0" width="2" height="2"/>
		<rect x="35" y="32" class="st0" width="3" height="2"/>
		<rect x="33" y="36" class="st0" width="2" height="2"/>
		<rect x="37" y="36" class="st0" width="3" height="2"/>
		<rect x="19" y="32" class="st0" width="2" height="2"/>
		<rect x="17" y="36" class="st0" width="2" height="2"/>
		<rect x="15" y="32" class="st0" width="2" height="2"/>
		<rect x="13" y="36" class="st0" width="2" height="2"/>
		<rect x="10" y="32" class="st0" width="3" height="2"/>
		<rect x="8" y="36" class="st0" width="3" height="2"/>
		<path class="st0" d="M24,24c-2.8,0-5-2.2-5-5h2c0,1.7,1.3,3,3,3s3-1.3,3-3s-1.3-3-3-3c-2.8,0-5-2.2-5-5s2.2-5,5-5s5,2.2,5,5h-2
			c0-1.7-1.3-3-3-3s-3,1.3-3,3s1.3,3,3,3c2.8,0,5,2.2,5,5S26.8,24,24,24z"/>
		<rect x="23" y="23" class="st0" width="2" height="3"/>
		<rect x="23" y="4" class="st0" width="2" height="3"/>
	</g>
</g>
</svg>
