<?xml version="1.0" encoding="utf-8"?>
<!-- Generator: Adobe Illustrator 24.0.1, SVG Export Plug-In . SVG Version: 6.00 Build 0)  -->
<svg version="1.1" id="Layer_1" xmlns="http://www.w3.org/2000/svg" xmlns:xlink="http://www.w3.org/1999/xlink" x="0px" y="0px"
	 viewBox="0 0 48 48" style="enable-background:new 0 0 48 48;" xml:space="preserve">
<style type="text/css">
	.st0{fill:#FFFFFF;}
</style>
<title>Asset 17ldpi</title>
<g id="Layer_2_1_">
	<g id="layer_1-2">
		<path class="st0" d="M21,42C9.4,42,0,32.6,0,21S9.4,0,21,0s21,9.4,21,21S32.6,42,21,42z M21,2C10.5,2,2,10.5,2,21s8.5,19,19,19
			s19-8.5,19-19S31.5,2,21,2z"/>
		<path class="st0" d="M41,48c-0.3,0-0.5-0.1-0.7-0.3l-9-9l1.4-1.4l8.3,8.3l4.6-4.6l-8.3-8.3l1.4-1.4l9,9c0.4,0.4,0.4,1,0,1.4
			c0,0,0,0,0,0l-6,6C41.5,47.9,41.3,48,41,48z"/>
		<path class="st0" d="M21,36c-8.3,0-15-6.7-15-15S12.7,6,21,6s15,6.7,15,15S29.3,36,21,36z M21,8C13.8,8,8,13.8,8,21s5.8,13,13,13
			s13-5.8,13-13S28.2,8,21,8z"/>
		<path class="st0" d="M21,28c-2.2,0-4-1.8-4-4h2c0,1.1,0.9,2,2,2s2-0.9,2-2s-0.9-2-2-2c-2.2,0-4-1.8-4-4s1.8-4,4-4s4,1.8,4,4h-2
			c0-1.1-0.9-2-2-2s-2,0.9-2,2s0.9,2,2,2c2.2,0,4,1.8,4,4S23.2,28,21,28z"/>
		<rect x="20" y="27" class="st0" width="2" height="3"/>
		<rect x="20" y="12" class="st0" width="2" height="3"/>
		<rect x="28" y="20" class="st0" width="2" height="2"/>
		<rect x="12" y="20" class="st0" width="2" height="2"/>
	</g>
</g>
</svg>
