<?xml version="1.0" encoding="utf-8"?>
<!-- Generator: Adobe Illustrator 24.0.1, SVG Export Plug-In . SVG Version: 6.00 Build 0)  -->
<svg version="1.1" id="Layer_1" xmlns="http://www.w3.org/2000/svg" xmlns:xlink="http://www.w3.org/1999/xlink" x="0px" y="0px"
	 viewBox="0 0 48 48" style="enable-background:new 0 0 48 48;" xml:space="preserve">
<style type="text/css">
	.st0{fill:#FFFFFF;}
</style>
<title>Asset 18ldpi</title>
<g id="Layer_2_1_">
	<g id="layer_1-2">
		<path class="st0" d="M47,48H1c-0.6,0-1-0.4-1-1V7c0-0.6,0.4-1,1-1h6v2H2v38h44V8h-5V6h6c0.6,0,1,0.4,1,1v40C48,47.6,47.6,48,47,48
			z"/>
		<path class="st0" d="M24,47c-0.6,0-1-0.4-1-1V36h2v5.5c1.1-1,2.5-1.5,4-1.5h11V2H29c-2.2,0-4,1.8-4,4h-2c0-3.3,2.7-6,6-6h12
			c0.6,0,1,0.4,1,1v40c0,0.6-0.4,1-1,1H29c-2.2,0-4,1.8-4,4C25,46.6,24.6,47,24,47z"/>
		<path class="st0" d="M25,46h-2c0-2.2-1.8-4-4-4H7c-0.6,0-1-0.4-1-1V1c0-0.6,0.4-1,1-1h12c3.3,0,6,2.7,6,6v2h-2V6c0-2.2-1.8-4-4-4
			H8v38h11C22.3,40,25,42.7,25,46z"/>
		<path class="st0" d="M24,35c-7.2,0-13-5.8-13-13S16.8,9,24,9s13,5.8,13,13S31.2,35,24,35z M24,11c-6.1,0-11,4.9-11,11
			s4.9,11,11,11s11-4.9,11-11S30.1,11,24,11z"/>
		<path class="st0" d="M24,29c-2.2,0-4-1.8-4-4h2c0,1.1,0.9,2,2,2s2-0.9,2-2s-0.9-2-2-2c-2.2,0-4-1.8-4-4s1.8-4,4-4s4,1.8,4,4h-2
			c0-1.1-0.9-2-2-2s-2,0.9-2,2s0.9,2,2,2c2.2,0,4,1.8,4,4S26.2,29,24,29z"/>
		<rect x="23" y="28" class="st0" width="2" height="3"/>
		<rect x="23" y="13" class="st0" width="2" height="3"/>
		<rect x="30" y="21" class="st0" width="2" height="2"/>
		<rect x="16" y="21" class="st0" width="2" height="2"/>
	</g>
</g>
</svg>
