<svg xmlns="http://www.w3.org/2000/svg" xmlns:xlink="http://www.w3.org/1999/xlink" width="204" height="60" viewBox="0 0 204 60">
  <defs>
    <clipPath id="clip-Artboard_1">
      <rect width="204" height="60"/>
    </clipPath>
  </defs>
  <g id="Artboard_1" data-name="Artboard – 1" clip-path="url(#clip-Artboard_1)">
    <g id="Untitled-1-02" transform="translate(-7 -80.1)">
      <text id="Vital" transform="translate(56.62 127.281)" fill="#fff" font-size="28" font-family="CenturyGothic, Century Gothic"><tspan x="0" y="0">Vital</tspan></text>
      <text id="Group" transform="translate(120.74 128.989)" fill="#fff" font-size="29" font-family="CenturyGothic, Century Gothic"><tspan x="0" y="0">Group</tspan></text>
      <path id="Path_2" data-name="Path 2" d="M8,97.6s7.658,3.373,9.4,17.517.365,20.508,5.928,29.907a65.269,65.269,0,0,1-8.758-15.866C11.555,120.68,9.267,117.3,8,97.6Z" transform="translate(0 -13.762)" fill="#83bd45"/>
      <path id="Path_3" data-name="Path 3" d="M61.055,80.1s6.746,6.565,5.189,18.6c0,0-2.136,12.676-2.484,16.688a96.641,96.641,0,0,0,0,10.485,46.4,46.4,0,0,1-2.121-11.67S60.179,101.208,59.5,96.472,59.548,83.336,61.055,80.1Z" transform="translate(-40.299 0)" fill="#fab71b"/>
      <path id="Path_4" data-name="Path 4" d="M97.229,83.73a19.537,19.537,0,0,1,2.119,16.481c-3.008,9.369-7.31,17.643-7.588,27.833A56.9,56.9,0,0,1,93.125,107.6s1.3-9.162.684-14.223C93.809,93.373,94.56,86.191,97.229,83.73Z" transform="translate(-65.576 -2.855)" fill="#b58a31"/>
      <path id="Path_5" data-name="Path 5" d="M118.694,88.85s4.445,9.78-3.762,22.294c0,0-10.532,14.5-10.942,20.106a40.2,40.2,0,0,1,1.76-9.643c1.455-3.967,3.749-8.479,6.2-18.737C111.943,102.87,113.77,94.253,118.694,88.85Z" transform="translate(-75.484 -6.881)" fill="#097c3e"/>
      <path id="Path_6" data-name="Path 6" d="M128.783,113.884s2.461-3.1,3.008-2.734,2.645,8.57-3.008,16.959S112.7,148.991,112.033,154.1c0,0-.666-4.606,2.707-10.44s10.455-17.617,11.322-19.487S129.1,116.3,128.783,113.884Z" transform="translate(-81.767 -24.393)" fill="#574c45"/>
      <path id="Path_7" data-name="Path 7" d="M121.59,273.46s-.1.117-.269.338c-1.248,1.611-6.409,8.722-6.661,16.257a16.5,16.5,0,0,0,6.349-6.131A11.511,11.511,0,0,0,121.59,273.46Z" transform="translate(-83.875 -152.054)" fill="#574c45"/>
    </g>
  </g>
</svg>
